ISO-10303-21;
HEADER;

/* File generated by Shapr3D Version 26.32.0.10532 */

FILE_DESCRIPTION(('HOOPS Exchange Step'),'2;1');

FILE_NAME('/private/var/mobile/Containers/Data/Application/14AF4A4F-3867-4C69-BE3A-5DB98616F2D0/tmp/export/temp_export',
'2026-03-20T10:13:48+01:00',
('mobile'),
('Shapr3D Limited'),
'HOOPS Exchange 2025.9',
'Shapr3D',
'Authorized');

FILE_SCHEMA( ('AP242_MANAGED_MODEL_BASED_3D_ENGINEERING_MIM_LF {1 0 10303 442 1 1 4}') );

ENDSEC;

DATA;
#3=(NAMED_UNIT(*)PLANE_ANGLE_UNIT()SI_UNIT($,.RADIAN.));
#4=PLANE_ANGLE_MEASURE_WITH_UNIT(PLANE_ANGLE_MEASURE(0.0174532925),#3);
#5=(CONVERSION_BASED_UNIT('DEGREE',#4)NAMED_UNIT(#6)PLANE_ANGLE_UNIT());
#6=DIMENSIONAL_EXPONENTS(0.,0.,0.,0.,0.,0.,0.);
#7=(NAMED_UNIT(*)SI_UNIT($,.STERADIAN.)SOLID_ANGLE_UNIT());
#8=(LENGTH_UNIT()NAMED_UNIT(*)SI_UNIT(.MILLI.,.METRE.));
#9=UNCERTAINTY_MEASURE_WITH_UNIT(LENGTH_MEASURE(1.000000E-05),#8,'DISTANCE_ACCURACY_VALUE','Maximum Tolerance applied to model');
#10=(GEOMETRIC_REPRESENTATION_CONTEXT(3)GLOBAL_UNCERTAINTY_ASSIGNED_CONTEXT((#9))GLOBAL_UNIT_ASSIGNED_CONTEXT((#8,#5,#7))REPRESENTATION_CONTEXT('','Cuerpo 01'));
#12=CARTESIAN_POINT('',(0.,0.,0.));
#13=DIRECTION('',(0.,0.,1.));
#14=DIRECTION('',(1.,0.,0.));
#15=AXIS2_PLACEMENT_3D('TS3D_PRODUCT_CSYS',#12,#13,#14);
#27=CARTESIAN_POINT('',(-2.333333333,7.666666667,2.2));
#28=CARTESIAN_POINT('',(-2.333333333,7.666666667,-1.4));
#29=CARTESIAN_POINT('',(-1.333333333,8.,2.2));
#30=CARTESIAN_POINT('',(-1.333333333,8.,-1.4));
#31=CARTESIAN_POINT('',(1.,8.,2.2));
#32=CARTESIAN_POINT('',(1.,8.,-1.4));
#33=CARTESIAN_POINT('',(4.,8.,2.2));
#34=CARTESIAN_POINT('',(4.,8.,-1.4));
#35=CARTESIAN_POINT('',(4.,0.,2.2));
#36=CARTESIAN_POINT('',(4.,0.,-1.4));
#37=CARTESIAN_POINT('',(0.,-7.,2.2));
#38=CARTESIAN_POINT('',(0.,-7.,-1.4));
#39=CARTESIAN_POINT('',(-5.,0.,2.2));
#40=CARTESIAN_POINT('',(-5.,0.,-1.4));
#41=CARTESIAN_POINT('',(-5.,6.,2.2));
#42=CARTESIAN_POINT('',(-5.,6.,-1.4));
#43=CARTESIAN_POINT('',(-3.333333333,7.333333333,2.2));
#44=CARTESIAN_POINT('',(-3.333333333,7.333333333,-1.4));
#45=CARTESIAN_POINT('',(-2.333333333,7.666666667,2.2));
#46=CARTESIAN_POINT('',(-2.333333333,7.666666667,-1.4));
#47=B_SPLINE_SURFACE_WITH_KNOTS('',4,1,((#27,#28),(#29,#30),(#31,#32),(#33,#34),(#35,#36),(#37,#38),(#39,#40),(#41,#42),(#43,#44),(#45,#46)),.UNSPECIFIED.,.T.,.F.,.U.,(5,1,1,1,1,1,5),(2,2),(0.,0.166666667,0.333333333,0.5,0.666666667,0.833333333,1.),(0.,1.),.UNSPECIFIED.);
#48=CARTESIAN_POINT('',(-2.333333333,7.666666667,-1.4));
#49=VERTEX_POINT('',#48);
#50=CARTESIAN_POINT('',(-2.333333333,7.666666667,2.2));
#51=VERTEX_POINT('',#50);
#52=CARTESIAN_POINT('',(-2.333333333,7.666666667,-1.4));
#53=CARTESIAN_POINT('',(-2.333333333,7.666666667,2.2));
#54=B_SPLINE_CURVE_WITH_KNOTS('',1,(#52,#53),.UNSPECIFIED.,.F.,.F.,(2,2),(0.,1.),.UNSPECIFIED.);
#55=EDGE_CURVE('',#49,#51,#54,.T.);
#56=ORIENTED_EDGE('',*,*,#55,.T.);
#57=CARTESIAN_POINT('',(-2.333333333,7.666666667,2.2));
#58=CARTESIAN_POINT('',(-1.333333333,8.,2.2));
#59=CARTESIAN_POINT('',(1.,8.,2.2));
#60=CARTESIAN_POINT('',(4.,8.,2.2));
#61=CARTESIAN_POINT('',(4.,0.,2.2));
#62=CARTESIAN_POINT('',(0.,-7.,2.2));
#63=CARTESIAN_POINT('',(-5.,0.,2.2));
#64=CARTESIAN_POINT('',(-5.,6.,2.2));
#65=CARTESIAN_POINT('',(-3.333333333,7.333333333,2.2));
#66=CARTESIAN_POINT('',(-2.333333333,7.666666667,2.2));
#67=B_SPLINE_CURVE_WITH_KNOTS('',4,(#57,#58,#59,#60,#61,#62,#63,#64,#65,#66),.UNSPECIFIED.,.T.,.F.,(5,1,1,1,1,1,5),(0.,0.166666667,0.333333333,0.5,0.666666667,0.833333333,1.),.UNSPECIFIED.);
#68=EDGE_CURVE('',#51,#51,#67,.T.);
#69=ORIENTED_EDGE('',*,*,#68,.T.);
#70=ORIENTED_EDGE('',*,*,#55,.F.);
#71=CARTESIAN_POINT('',(-2.333333333,7.666666667,-1.4));
#72=CARTESIAN_POINT('',(-1.333333333,8.,-1.4));
#73=CARTESIAN_POINT('',(1.,8.,-1.4));
#74=CARTESIAN_POINT('',(4.,8.,-1.4));
#75=CARTESIAN_POINT('',(4.,0.,-1.4));
#76=CARTESIAN_POINT('',(0.,-7.,-1.4));
#77=CARTESIAN_POINT('',(-5.,0.,-1.4));
#78=CARTESIAN_POINT('',(-5.,6.,-1.4));
#79=CARTESIAN_POINT('',(-3.333333333,7.333333333,-1.4));
#80=CARTESIAN_POINT('',(-2.333333333,7.666666667,-1.4));
#81=B_SPLINE_CURVE_WITH_KNOTS('',4,(#71,#72,#73,#74,#75,#76,#77,#78,#79,#80),.UNSPECIFIED.,.T.,.F.,(5,1,1,1,1,1,5),(0.,0.166666667,0.333333333,0.5,0.666666667,0.833333333,1.),.UNSPECIFIED.);
#82=EDGE_CURVE('',#49,#49,#81,.T.);
#83=ORIENTED_EDGE('',*,*,#82,.F.);
#84=EDGE_LOOP('',(#56,#69,#70,#83));
#85=FACE_BOUND('',#84,.T.);
#86=ADVANCED_FACE('',(#85),#47,.T.);
#87=CARTESIAN_POINT('',(0.,0.,2.2));
#88=DIRECTION('',(0.,0.,1.));
#89=DIRECTION('',(1.,0.,0.));
#90=AXIS2_PLACEMENT_3D('',#87,#88,#89);
#91=PLANE('',#90);
#92=ORIENTED_EDGE('',*,*,#68,.F.);
#93=EDGE_LOOP('',(#92));
#94=FACE_BOUND('',#93,.T.);
#95=ADVANCED_FACE('',(#94),#91,.T.);
#96=CARTESIAN_POINT('',(0.,0.,-1.4));
#97=DIRECTION('',(0.,0.,1.));
#98=DIRECTION('',(1.,0.,0.));
#99=AXIS2_PLACEMENT_3D('',#96,#97,#98);
#100=PLANE('',#99);
#101=ORIENTED_EDGE('',*,*,#82,.T.);
#102=EDGE_LOOP('',(#101));
#103=FACE_BOUND('',#102,.T.);
#104=ADVANCED_FACE('',(#103),#100,.F.);
#105=CLOSED_SHELL('',(#86,#95,#104));
#106=MANIFOLD_SOLID_BREP('Cuerpo 01',#105);
#107=COLOUR_RGB('',0.627451003,0.627451003,0.643137276);
#108=FILL_AREA_STYLE_COLOUR('',#107);
#109=FILL_AREA_STYLE('',(#108));
#110=SURFACE_STYLE_FILL_AREA(#109);
#111=SURFACE_SIDE_STYLE('',(#110));
#112=SURFACE_STYLE_USAGE(.BOTH.,#111);
#113=PRESENTATION_STYLE_ASSIGNMENT((#112));
#26=STYLED_ITEM('',(#113),#106);
#16=SHAPE_REPRESENTATION('Cuerpo 01',(#15),#10);
#17=ADVANCED_BREP_SHAPE_REPRESENTATION('Cuerpo 01',(#106),#10);
#121=SHAPE_REPRESENTATION_RELATIONSHIP('','',#16,#17);
#122=CARTESIAN_POINT('',(0.,0.,0.));
#123=DIRECTION('',(0.,0.,1.));
#124=DIRECTION('',(1.,0.,0.));
#125=AXIS2_PLACEMENT_3D('',#122,#123,#124);
#127=MAPPED_ITEM('',#126,#125);
#126=REPRESENTATION_MAP(#125,#16);
#128=APPLICATION_CONTEXT('Managed model based 3d engineering');
#129=APPLICATION_PROTOCOL_DEFINITION('international standard','ap242_managed_model_based_3d_engineering',2014,#128);
#130=PRODUCT_CONTEXT('',#128,'mechanical');
#131=PRODUCT_DEFINITION_CONTEXT('part definition',#128,'design');
#24=PRODUCT('Cuerpo 01','Cuerpo 01','',(#130));
#132=PRODUCT_RELATED_PRODUCT_CATEGORY('part','',(#24));
#133=PRODUCT_DEFINITION_FORMATION_WITH_SPECIFIED_SOURCE('','',#24,.NOT_KNOWN.);
#25=PRODUCT_DEFINITION('design','',#133,#131);
#23=PRODUCT_DEFINITION_SHAPE('','',#25);
#134=SHAPE_DEFINITION_REPRESENTATION(#23,#16);
#11=DRAUGHTING_MODEL('',(#127),#10);
#135=DESCRIPTIVE_REPRESENTATION_ITEM('KEY','/private/var/mobile/Containers/Data/Application/14AF4A4F-3867-4C69-BE3A-5DB98616F2D0/tmp/67775E74-9361-4DF0-9010-6112B8252FFE.tmp');
#136=PROPERTY_DEFINITION('KEY','',#25);
#137=REPRESENTATION('',(#135),#10);
#138=PROPERTY_DEFINITION_REPRESENTATION(#136,#137);
#139=GENERAL_PROPERTY('','KEY','');
#140=GENERAL_PROPERTY_ASSOCIATION('','',#139,#136);
#1=MECHANICAL_DESIGN_GEOMETRIC_PRESENTATION_REPRESENTATION('',(#26),#10);
ENDSEC;
END-ISO-10303-21;
