ISO-10303-21;
HEADER;
FILE_DESCRIPTION(('Open CASCADE Model'),'2;1');
FILE_NAME('Open CASCADE Shape Model','2026-03-23T22:52:04',('Author'),(
    'Open CASCADE'),'Open CASCADE STEP processor 7.8','Open CASCADE 7.8'
  ,'Unknown');
FILE_SCHEMA(('AUTOMOTIVE_DESIGN { 1 0 10303 214 1 1 1 1 }'));
ENDSEC;
DATA;
#1 = APPLICATION_PROTOCOL_DEFINITION('international standard',
  'automotive_design',2000,#2);
#2 = APPLICATION_CONTEXT(
  'core data for automotive mechanical design processes');
#3 = SHAPE_DEFINITION_REPRESENTATION(#4,#10);
#4 = PRODUCT_DEFINITION_SHAPE('','',#5);
#5 = PRODUCT_DEFINITION('design','',#6,#9);
#6 = PRODUCT_DEFINITION_FORMATION('','',#7);
#7 = PRODUCT('Open CASCADE STEP translator 7.8 4',
  'Open CASCADE STEP translator 7.8 4','',(#8));
#8 = PRODUCT_CONTEXT('',#2,'mechanical');
#9 = PRODUCT_DEFINITION_CONTEXT('part definition',#2,'design');
#10 = ADVANCED_BREP_SHAPE_REPRESENTATION('',(#11,#15),#334);
#11 = AXIS2_PLACEMENT_3D('',#12,#13,#14);
#12 = CARTESIAN_POINT('',(0.,0.,0.));
#13 = DIRECTION('',(0.,0.,1.));
#14 = DIRECTION('',(1.,0.,-0.));
#15 = MANIFOLD_SOLID_BREP('',#16);
#16 = CLOSED_SHELL('',(#17,#303,#329));
#17 = ADVANCED_FACE('',(#18),#33,.T.);
#18 = FACE_BOUND('',#19,.T.);
#19 = EDGE_LOOP('',(#20,#201));
#20 = ORIENTED_EDGE('',*,*,#21,.T.);
#21 = EDGE_CURVE('',#22,#24,#26,.T.);
#22 = VERTEX_POINT('',#23);
#23 = CARTESIAN_POINT('',(4.87843133507,-3.,4.554558781928));
#24 = VERTEX_POINT('',#25);
#25 = CARTESIAN_POINT('',(-3.330870741907,-3.,-4.557766523517));
#26 = SURFACE_CURVE('',#27,(#32,#120),.PCURVE_S1.);
#27 = CIRCLE('',#28,6.320403468742);
#28 = AXIS2_PLACEMENT_3D('',#29,#30,#31);
#29 = CARTESIAN_POINT('',(0.55,-1.5,0.2));
#30 = DIRECTION('',(-0.728421103596,-0.19687056854,0.656235228465));
#31 = DIRECTION('',(-0.669334446869,7.603294938528E-18,-0.742961236024)
  );
#32 = PCURVE('',#33,#38);
#33 = SPHERICAL_SURFACE('',#34,9.899494937);
#34 = AXIS2_PLACEMENT_3D('',#35,#36,#37);
#35 = CARTESIAN_POINT('',(6.1,0.,-4.8));
#36 = DIRECTION('',(0.,0.,1.));
#37 = DIRECTION('',(1.,0.,0.));
#38 = DEFINITIONAL_REPRESENTATION('',(#39),#119);
#39 = B_SPLINE_CURVE_WITH_KNOTS('',8,(#40,#41,#42,#43,#44,#45,#46,#47,
    #48,#49,#50,#51,#52,#53,#54,#55,#56,#57,#58,#59,#60,#61,#62,#63,#64,
    #65,#66,#67,#68,#69,#70,#71,#72,#73,#74,#75,#76,#77,#78,#79,#80,#81,
    #82,#83,#84,#85,#86,#87,#88,#89,#90,#91,#92,#93,#94,#95,#96,#97,#98,
    #99,#100,#101,#102,#103,#104,#105,#106,#107,#108,#109,#110,#111,#112
    ,#113,#114,#115,#116,#117,#118),.UNSPECIFIED.,.F.,.F.,(9,7,7,7,7,7,7
    ,7,7,7,7,9),(2.897100166239,3.124011268007,3.230375846961,
    3.333416532823,3.433237197251,3.529938465916,3.717297173954,
    4.068594751526,4.375980131902,4.913904547559,5.720791171045,
    6.52767779453),.UNSPECIFIED.);
#40 = CARTESIAN_POINT('',(4.325700117372,1.237451347139));
#41 = CARTESIAN_POINT('',(4.306875849383,1.254480797747));
#42 = CARTESIAN_POINT('',(4.284637135318,1.271231381755));
#43 = CARTESIAN_POINT('',(4.258359892396,1.287634700487));
#44 = CARTESIAN_POINT('',(4.227265991656,1.303603575871));
#45 = CARTESIAN_POINT('',(4.190352453471,1.319019893652));
#46 = CARTESIAN_POINT('',(4.146400188431,1.333729622889));
#47 = CARTESIAN_POINT('',(4.093790749126,1.347503718116));
#48 = CARTESIAN_POINT('',(4.002035838854,1.365915350128));
#49 = CARTESIAN_POINT('',(3.970585489322,1.371519276057));
#50 = CARTESIAN_POINT('',(3.936843757272,1.376819888027));
#51 = CARTESIAN_POINT('',(3.90070777621,1.381782552453));
#52 = CARTESIAN_POINT('',(3.862109548058,1.386369192437));
#53 = CARTESIAN_POINT('',(3.821050122666,1.390539218939));
#54 = CARTESIAN_POINT('',(3.77763454393,1.394251780262));
#55 = CARTESIAN_POINT('',(3.687963544293,1.400587099467));
#56 = CARTESIAN_POINT('',(3.641839044993,1.403240281986));
#57 = CARTESIAN_POINT('',(3.593918704064,1.405395484223));
#58 = CARTESIAN_POINT('',(3.544506847855,1.407022030518));
#59 = CARTESIAN_POINT('',(3.494028733122,1.408095580555));
#60 = CARTESIAN_POINT('',(3.442997182101,1.408601934848));
#61 = CARTESIAN_POINT('',(3.391950129887,1.408539180691));
#62 = CARTESIAN_POINT('',(3.292399632496,1.407312177661));
#63 = CARTESIAN_POINT('',(3.243866788306,1.406182418423));
#64 = CARTESIAN_POINT('',(3.19623850899,1.404534524872));
#65 = CARTESIAN_POINT('',(3.149937251497,1.40238581102));
#66 = CARTESIAN_POINT('',(3.105299393322,1.39976191237));
#67 = CARTESIAN_POINT('',(3.062556328908,1.396693617679));
#68 = CARTESIAN_POINT('',(3.021842591851,1.393213523748));
#69 = CARTESIAN_POINT('',(2.945805623448,1.38561582175));
#70 = CARTESIAN_POINT('',(2.910353497554,1.381521522827));
#71 = CARTESIAN_POINT('',(2.876921247854,1.377101269358));
#72 = CARTESIAN_POINT('',(2.84549864348,1.372384795517));
#73 = CARTESIAN_POINT('',(2.816030061966,1.367400335259));
#74 = CARTESIAN_POINT('',(2.788432145512,1.362173774583));
#75 = CARTESIAN_POINT('',(2.762607288352,1.356728397854));
#76 = CARTESIAN_POINT('',(2.691653934771,1.340151586932));
#77 = CARTESIAN_POINT('',(2.651125621864,1.328475409057));
#78 = CARTESIAN_POINT('',(2.616119634727,1.316209301694));
#79 = CARTESIAN_POINT('',(2.585807157055,1.303471955594));
#80 = CARTESIAN_POINT('',(2.559501406161,1.290351458435));
#81 = CARTESIAN_POINT('',(2.536625066597,1.27691693996));
#82 = CARTESIAN_POINT('',(2.51670495634,1.263222565588));
#83 = CARTESIAN_POINT('',(2.46680587928,1.223229724727));
#84 = CARTESIAN_POINT('',(2.443277013353,1.196387428904));
#85 = CARTESIAN_POINT('',(2.426175516497,1.169072730545));
#86 = CARTESIAN_POINT('',(2.413939166633,1.141441895209));
#87 = CARTESIAN_POINT('',(2.405542909362,1.113606354429));
#88 = CARTESIAN_POINT('',(2.400246540082,1.085645588729));
#89 = CARTESIAN_POINT('',(2.397517095923,1.057622511994));
#90 = CARTESIAN_POINT('',(2.396453652799,1.005057760217));
#91 = CARTESIAN_POINT('',(2.39761293285,0.980518779927));
#92 = CARTESIAN_POINT('',(2.400157426585,0.956005143612));
#93 = CARTESIAN_POINT('',(2.403893978475,0.931544208986));
#94 = CARTESIAN_POINT('',(2.40867603068,0.907159564618));
#95 = CARTESIAN_POINT('',(2.414388519783,0.882872450772));
#96 = CARTESIAN_POINT('',(2.420940634881,0.858702414438));
#97 = CARTESIAN_POINT('',(2.441065630354,0.79260775227));
#98 = CARTESIAN_POINT('',(2.456218458289,0.750962834807));
#99 = CARTESIAN_POINT('',(2.473324467957,0.709832436141));
#100 = CARTESIAN_POINT('',(2.492153192404,0.669306153577));
#101 = CARTESIAN_POINT('',(2.512552534161,0.629471897153));
#102 = CARTESIAN_POINT('',(2.534416671676,0.59041915335));
#103 = CARTESIAN_POINT('',(2.557676075384,0.552240074846));
#104 = CARTESIAN_POINT('',(2.619185492486,0.459217064592));
#105 = CARTESIAN_POINT('',(2.659116008454,0.405585450937));
#106 = CARTESIAN_POINT('',(2.701902601505,0.354460576222));
#107 = CARTESIAN_POINT('',(2.74747743043,0.306186405299));
#108 = CARTESIAN_POINT('',(2.795798707922,0.261132432758));
#109 = CARTESIAN_POINT('',(2.846799902147,0.219689862011));
#110 = CARTESIAN_POINT('',(2.900353185878,0.182255217637));
#111 = CARTESIAN_POINT('',(3.012121385581,0.116142295256));
#112 = CARTESIAN_POINT('',(3.07033642858,8.746402049446E-02));
#113 = CARTESIAN_POINT('',(3.130662057977,6.353439690722E-02));
#114 = CARTESIAN_POINT('',(3.192787519374,4.469758401627E-02));
#115 = CARTESIAN_POINT('',(3.256290398917,3.124361651311E-02));
#116 = CARTESIAN_POINT('',(3.32063496517,2.336341501212E-02));
#117 = CARTESIAN_POINT('',(3.385247553269,2.112275602725E-02));
#118 = CARTESIAN_POINT('',(3.449574989705,2.447171873313E-02));
#119 = ( GEOMETRIC_REPRESENTATION_CONTEXT(2) 
PARAMETRIC_REPRESENTATION_CONTEXT() REPRESENTATION_CONTEXT('2D SPACE',''
  ) );
#120 = PCURVE('',#121,#126);
#121 = SPHERICAL_SURFACE('',#122,9.899494937);
#122 = AXIS2_PLACEMENT_3D('',#123,#124,#125);
#123 = CARTESIAN_POINT('',(-5.,-3.,5.2));
#124 = DIRECTION('',(0.,0.,1.));
#125 = DIRECTION('',(1.,0.,0.));
#126 = DEFINITIONAL_REPRESENTATION('',(#127),#200);
#127 = B_SPLINE_CURVE_WITH_KNOTS('',8,(#128,#129,#130,#131,#132,#133,
    #134,#135,#136,#137,#138,#139,#140,#141,#142,#143,#144,#145,#146,
    #147,#148,#149,#150,#151,#152,#153,#154,#155,#156,#157,#158,#159,
    #160,#161,#162,#163,#164,#165,#166,#167,#168,#169,#170,#171,#172,
    #173,#174,#175,#176,#177,#178,#179,#180,#181,#182,#183,#184,#185,
    #186,#187,#188,#189,#190,#191,#192,#193,#194,#195,#196,#197,#198,
    #199),.UNSPECIFIED.,.F.,.F.,(9,7,7,7,7,7,7,7,7,7,9),(2.897100166239,
    3.804744573312,4.485477878616,4.996027857595,5.378940341829,
    5.666124705004,5.881512977386,6.043054181672,6.285365988101,
    6.406521891316,6.52767779453),.UNSPECIFIED.);
#128 = CARTESIAN_POINT('',(0.,-6.524569084418E-02));
#129 = CARTESIAN_POINT('',(6.905373800137E-02,-4.290963203766E-02));
#130 = CARTESIAN_POINT('',(0.140111016227,-2.709567315743E-02));
#131 = CARTESIAN_POINT('',(0.212581939746,-1.81868836862E-02));
#132 = CARTESIAN_POINT('',(0.28572770966,-1.644171856118E-02));
#133 = CARTESIAN_POINT('',(0.358681043962,-2.193655385971E-02));
#134 = CARTESIAN_POINT('',(0.430600315406,-3.451762162106E-02));
#135 = CARTESIAN_POINT('',(0.500797210804,-5.386597882943E-02));
#136 = CARTESIAN_POINT('',(0.619697521569,-9.882248450847E-02));
#137 = CARTESIAN_POINT('',(0.669387050626,-0.121656404825));
#138 = CARTESIAN_POINT('',(0.717584825083,-0.147877501551));
#139 = CARTESIAN_POINT('',(0.764117673411,-0.177271987785));
#140 = CARTESIAN_POINT('',(0.808866786383,-0.209607564067));
#141 = CARTESIAN_POINT('',(0.851756711807,-0.244647276527));
#142 = CARTESIAN_POINT('',(0.892736901567,-0.282159219509));
#143 = CARTESIAN_POINT('',(0.961032389602,-0.35174001363));
#144 = CARTESIAN_POINT('',(0.989202576041,-0.382825149312));
#145 = CARTESIAN_POINT('',(1.016254953964,-0.415080728282));
#146 = CARTESIAN_POINT('',(1.042172028021,-0.448415110099));
#147 = CARTESIAN_POINT('',(1.066933891263,-0.482740273031));
#148 = CARTESIAN_POINT('',(1.090512389191,-0.517972026398));
#149 = CARTESIAN_POINT('',(1.112862864194,-0.554029528161));
#150 = CARTESIAN_POINT('',(1.14970144249,-0.618437542458));
#151 = CARTESIAN_POINT('',(1.164758106782,-0.646461201143));
#152 = CARTESIAN_POINT('',(1.17905337667,-0.674871925175));
#153 = CARTESIAN_POINT('',(1.19254715779,-0.703637151261));
#154 = CARTESIAN_POINT('',(1.20518800764,-0.732724767252));
#155 = CARTESIAN_POINT('',(1.216908109368,-0.762102618927));
#156 = CARTESIAN_POINT('',(1.227614569696,-0.791737667761));
#157 = CARTESIAN_POINT('',(1.244348894428,-0.843987648621));
#158 = CARTESIAN_POINT('',(1.250877111348,-0.866505405652));
#159 = CARTESIAN_POINT('',(1.256706897452,-0.889133279625));
#160 = CARTESIAN_POINT('',(1.261770055624,-0.911855672615));
#161 = CARTESIAN_POINT('',(1.265983243546,-0.934656024998));
#162 = CARTESIAN_POINT('',(1.26924195579,-0.957516249745));
#163 = CARTESIAN_POINT('',(1.271410230351,-0.980415755945));
#164 = CARTESIAN_POINT('',(1.272977966612,-1.020515790736));
#165 = CARTESIAN_POINT('',(1.272933990773,-1.037709829832));
#166 = CARTESIAN_POINT('',(1.27209746527,-1.054901869043));
#167 = CARTESIAN_POINT('',(1.270375823706,-1.072080207385));
#168 = CARTESIAN_POINT('',(1.267657915272,-1.089231541135));
#169 = CARTESIAN_POINT('',(1.263807399371,-1.106340304078));
#170 = CARTESIAN_POINT('',(1.25865223976,-1.123387559564));
#171 = CARTESIAN_POINT('',(1.246958842011,-1.153070857959));
#172 = CARTESIAN_POINT('',(1.241088524084,-1.165744239007));
#173 = CARTESIAN_POINT('',(1.234265505675,-1.178359525306));
#174 = CARTESIAN_POINT('',(1.226379659313,-1.190904974353));
#175 = CARTESIAN_POINT('',(1.217300871439,-1.203366852626));
#176 = CARTESIAN_POINT('',(1.206873527222,-1.21572875431));
#177 = CARTESIAN_POINT('',(1.194909177545,-1.227970549468));
#178 = CARTESIAN_POINT('',(1.160579704096,-1.258211579931));
#179 = CARTESIAN_POINT('',(1.136005352715,-1.276029116065));
#180 = CARTESIAN_POINT('',(1.106675882488,-1.293433770795));
#181 = CARTESIAN_POINT('',(1.071605888388,-1.310315207977));
#182 = CARTESIAN_POINT('',(1.029510563155,-1.326518645737));
#183 = CARTESIAN_POINT('',(0.978815682902,-1.341843077594));
#184 = CARTESIAN_POINT('',(0.917388235298,-1.35597188512));
#185 = CARTESIAN_POINT('',(0.807401290946,-1.374762165954));
#186 = CARTESIAN_POINT('',(0.767764769707,-1.38062513207));
#187 = CARTESIAN_POINT('',(0.725007279225,-1.38603680557));
#188 = CARTESIAN_POINT('',(0.679045497241,-1.39094127171));
#189 = CARTESIAN_POINT('',(0.629892244883,-1.395277633129));
#190 = CARTESIAN_POINT('',(0.57774110354,-1.398984354764));
#191 = CARTESIAN_POINT('',(0.523022149519,-1.402006351397));
#192 = CARTESIAN_POINT('',(0.409673870922,-1.406600280339));
#193 = CARTESIAN_POINT('',(0.351044375117,-1.408172194737));
#194 = CARTESIAN_POINT('',(0.291072669022,-1.408978638398));
#195 = CARTESIAN_POINT('',(0.230548681406,-1.408993482568));
#196 = CARTESIAN_POINT('',(0.170404641204,-1.408211773341));
#197 = CARTESIAN_POINT('',(0.111513858865,-1.406654777625));
#198 = CARTESIAN_POINT('',(5.455242387083E-02,-1.404361041466));
#199 = CARTESIAN_POINT('',(-8.881784197001E-16,-1.401379537522));
#200 = ( GEOMETRIC_REPRESENTATION_CONTEXT(2) 
PARAMETRIC_REPRESENTATION_CONTEXT() REPRESENTATION_CONTEXT('2D SPACE',''
  ) );
#201 = ORIENTED_EDGE('',*,*,#202,.T.);
#202 = EDGE_CURVE('',#24,#22,#203,.T.);
#203 = SURFACE_CURVE('',#204,(#209,#250),.PCURVE_S1.);
#204 = CIRCLE('',#205,6.320403468742);
#205 = AXIS2_PLACEMENT_3D('',#206,#207,#208);
#206 = CARTESIAN_POINT('',(0.55,-1.5,0.2));
#207 = DIRECTION('',(-0.728421103596,-0.19687056854,0.656235228465));
#208 = DIRECTION('',(-0.669334446869,7.603294938528E-18,-0.742961236024)
  );
#209 = PCURVE('',#33,#210);
#210 = DEFINITIONAL_REPRESENTATION('',(#211),#249);
#211 = B_SPLINE_CURVE_WITH_KNOTS('',8,(#212,#213,#214,#215,#216,#217,
    #218,#219,#220,#221,#222,#223,#224,#225,#226,#227,#228,#229,#230,
    #231,#232,#233,#234,#235,#236,#237,#238,#239,#240,#241,#242,#243,
    #244,#245,#246,#247,#248),.UNSPECIFIED.,.F.,.F.,(9,7,7,7,7,9),(
    0.244492487351,0.907644407073,1.902372286656,2.399736226448,
    2.648418196343,2.897100166239),.UNSPECIFIED.);
#212 = CARTESIAN_POINT('',(3.449574989705,2.447171873313E-02));
#213 = CARTESIAN_POINT('',(3.502443461832,2.72241141538E-02));
#214 = CARTESIAN_POINT('',(3.555119289803,3.37520813228E-02));
#215 = CARTESIAN_POINT('',(3.607295647602,4.40278351249E-02));
#216 = CARTESIAN_POINT('',(3.658674166669,5.797063865464E-02));
#217 = CARTESIAN_POINT('',(3.708990197571,7.544916003246E-02));
#218 = CARTESIAN_POINT('',(3.758027555908,9.629374383468E-02));
#219 = CARTESIAN_POINT('',(3.805621291216,0.120311543648));
#220 = CARTESIAN_POINT('',(3.920685607303,0.187776340171));
#221 = CARTESIAN_POINT('',(3.986196160016,0.234933461205));
#222 = CARTESIAN_POINT('',(4.047760424498,0.288076946492));
#223 = CARTESIAN_POINT('',(4.105165703907,0.346451961316));
#224 = CARTESIAN_POINT('',(4.158357835721,0.409332252813));
#225 = CARTESIAN_POINT('',(4.207246630803,0.476056243095));
#226 = CARTESIAN_POINT('',(4.251672290343,0.546023977773));
#227 = CARTESIAN_POINT('',(4.310654538628,0.65497865813));
#228 = CARTESIAN_POINT('',(4.329039346567,0.691964070175));
#229 = CARTESIAN_POINT('',(4.346067071922,0.729544671502));
#230 = CARTESIAN_POINT('',(4.361629248339,0.767650247502));
#231 = CARTESIAN_POINT('',(4.375567325112,0.80621015993));
#232 = CARTESIAN_POINT('',(4.38766111047,0.845152137882));
#233 = CARTESIAN_POINT('',(4.397585166517,0.884398097503));
#234 = CARTESIAN_POINT('',(4.408392274308,0.943580486047));
#235 = CARTESIAN_POINT('',(4.411314686545,0.963360176523));
#236 = CARTESIAN_POINT('',(4.413488698011,0.983180248415));
#237 = CARTESIAN_POINT('',(4.41483046741,1.003027645265));
#238 = CARTESIAN_POINT('',(4.415238500577,1.022887920617));
#239 = CARTESIAN_POINT('',(4.414586888345,1.042744591505));
#240 = CARTESIAN_POINT('',(4.41271403762,1.062578025162));
#241 = CARTESIAN_POINT('',(4.406099753693,1.102149692735));
#242 = CARTESIAN_POINT('',(4.401358203208,1.121887922453));
#243 = CARTESIAN_POINT('',(4.394968786612,1.141554076637));
#244 = CARTESIAN_POINT('',(4.386664805659,1.161118969973));
#245 = CARTESIAN_POINT('',(4.376107995074,1.180546199104));
#246 = CARTESIAN_POINT('',(4.362859588038,1.199789720292));
#247 = CARTESIAN_POINT('',(4.346330470002,1.218788014713));
#248 = CARTESIAN_POINT('',(4.325700117372,1.237451347139));
#249 = ( GEOMETRIC_REPRESENTATION_CONTEXT(2) 
PARAMETRIC_REPRESENTATION_CONTEXT() REPRESENTATION_CONTEXT('2D SPACE',''
  ) );
#250 = PCURVE('',#251,#256);
#251 = SPHERICAL_SURFACE('',#252,9.899494937);
#252 = AXIS2_PLACEMENT_3D('',#253,#254,#255);
#253 = CARTESIAN_POINT('',(-5.,-3.,5.2));
#254 = DIRECTION('',(0.,0.,1.));
#255 = DIRECTION('',(1.,0.,0.));
#256 = DEFINITIONAL_REPRESENTATION('',(#257),#302);
#257 = B_SPLINE_CURVE_WITH_KNOTS('',8,(#258,#259,#260,#261,#262,#263,
    #264,#265,#266,#267,#268,#269,#270,#271,#272,#273,#274,#275,#276,
    #277,#278,#279,#280,#281,#282,#283,#284,#285,#286,#287,#288,#289,
    #290,#291,#292,#293,#294,#295,#296,#297,#298,#299,#300,#301),
  .UNSPECIFIED.,.F.,.F.,(9,7,7,7,7,7,9),(0.244492487351,0.410280467281,
    0.565706698466,0.857130881938,1.367123203013,2.132111684626,
    2.897100166239),.UNSPECIFIED.);
#258 = CARTESIAN_POINT('',(6.28318530718,-1.401379537522));
#259 = CARTESIAN_POINT('',(6.208536561936,-1.397299690789));
#260 = CARTESIAN_POINT('',(6.138398424758,-1.391932030767));
#261 = CARTESIAN_POINT('',(6.073998133447,-1.385401793973));
#262 = CARTESIAN_POINT('',(6.015860359924,-1.377871410162));
#263 = CARTESIAN_POINT('',(5.963727368367,-1.369500796728));
#264 = CARTESIAN_POINT('',(5.917157712913,-1.360422609925));
#265 = CARTESIAN_POINT('',(5.875609998259,-1.350749356647));
#266 = CARTESIAN_POINT('',(5.803811756783,-1.331033166303));
#267 = CARTESIAN_POINT('',(5.773017417633,-1.32105113039));
#268 = CARTESIAN_POINT('',(5.745730319378,-1.310703311886));
#269 = CARTESIAN_POINT('',(5.721515444375,-1.300050641294));
#270 = CARTESIAN_POINT('',(5.699991920638,-1.289141555079));
#271 = CARTESIAN_POINT('',(5.680836662138,-1.278015049536));
#272 = CARTESIAN_POINT('',(5.663770897925,-1.266703257074));
#273 = CARTESIAN_POINT('',(5.620035246208,-1.233725549481));
#274 = CARTESIAN_POINT('',(5.598027682384,-1.211660414939));
#275 = CARTESIAN_POINT('',(5.580974158034,-1.189212496711));
#276 = CARTESIAN_POINT('',(5.567824206584,-1.166490442729));
#277 = CARTESIAN_POINT('',(5.557839535248,-1.143571237141));
#278 = CARTESIAN_POINT('',(5.550474821437,-1.120513973423));
#279 = CARTESIAN_POINT('',(5.545313511982,-1.097363992685));
#280 = CARTESIAN_POINT('',(5.53629437036,-1.033549761717));
#281 = CARTESIAN_POINT('',(5.536316916624,-0.992771608552));
#282 = CARTESIAN_POINT('',(5.540374878675,-0.952024296733));
#283 = CARTESIAN_POINT('',(5.547603686902,-0.911428935927));
#284 = CARTESIAN_POINT('',(5.557400972596,-0.87108807856));
#285 = CARTESIAN_POINT('',(5.569381197024,-0.831087523201));
#286 = CARTESIAN_POINT('',(5.583261004526,-0.791508442096));
#287 = CARTESIAN_POINT('',(5.622208339603,-0.693809082824));
#288 = CARTESIAN_POINT('',(5.649399442013,-0.636313016258));
#289 = CARTESIAN_POINT('',(5.679734124748,-0.58020363506));
#290 = CARTESIAN_POINT('',(5.712923128535,-0.525730931331));
#291 = CARTESIAN_POINT('',(5.748791358378,-0.473158376088));
#292 = CARTESIAN_POINT('',(5.787256378221,-0.422766282008));
#293 = CARTESIAN_POINT('',(5.828259495678,-0.374856552191));
#294 = CARTESIAN_POINT('',(5.915218067354,-0.284633449627));
#295 = CARTESIAN_POINT('',(5.961173432056,-0.242320049629));
#296 = CARTESIAN_POINT('',(6.009542662456,-0.203120886638));
#297 = CARTESIAN_POINT('',(6.060256754749,-0.167365376828));
#298 = CARTESIAN_POINT('',(6.11320629488,-0.135391988443));
#299 = CARTESIAN_POINT('',(6.16820757062,-0.10752962094));
#300 = CARTESIAN_POINT('',(6.2249848558,-8.407115550684E-02));
#301 = CARTESIAN_POINT('',(6.28318530718,-6.524569084418E-02));
#302 = ( GEOMETRIC_REPRESENTATION_CONTEXT(2) 
PARAMETRIC_REPRESENTATION_CONTEXT() REPRESENTATION_CONTEXT('2D SPACE',''
  ) );
#303 = ADVANCED_FACE('',(#304),#121,.T.);
#304 = FACE_BOUND('',#305,.T.);
#305 = EDGE_LOOP('',(#306,#307));
#306 = ORIENTED_EDGE('',*,*,#21,.F.);
#307 = ORIENTED_EDGE('',*,*,#308,.F.);
#308 = EDGE_CURVE('',#24,#22,#309,.T.);
#309 = SURFACE_CURVE('',#310,(#315,#322),.PCURVE_S1.);
#310 = CIRCLE('',#311,9.899494937);
#311 = AXIS2_PLACEMENT_3D('',#312,#313,#314);
#312 = CARTESIAN_POINT('',(-5.,-3.,5.2));
#313 = DIRECTION('',(-2.449293598295E-16,-1.,0.));
#314 = DIRECTION('',(1.,-2.449293598295E-16,0.));
#315 = PCURVE('',#121,#316);
#316 = DEFINITIONAL_REPRESENTATION('',(#317),#321);
#317 = LINE('',#318,#319);
#318 = CARTESIAN_POINT('',(0.,-6.28318530718));
#319 = VECTOR('',#320,1.);
#320 = DIRECTION('',(0.,1.));
#321 = ( GEOMETRIC_REPRESENTATION_CONTEXT(2) 
PARAMETRIC_REPRESENTATION_CONTEXT() REPRESENTATION_CONTEXT('2D SPACE',''
  ) );
#322 = PCURVE('',#251,#323);
#323 = DEFINITIONAL_REPRESENTATION('',(#324),#328);
#324 = LINE('',#325,#326);
#325 = CARTESIAN_POINT('',(6.28318530718,-6.28318530718));
#326 = VECTOR('',#327,1.);
#327 = DIRECTION('',(0.,1.));
#328 = ( GEOMETRIC_REPRESENTATION_CONTEXT(2) 
PARAMETRIC_REPRESENTATION_CONTEXT() REPRESENTATION_CONTEXT('2D SPACE',''
  ) );
#329 = ADVANCED_FACE('',(#330),#251,.T.);
#330 = FACE_BOUND('',#331,.T.);
#331 = EDGE_LOOP('',(#332,#333));
#332 = ORIENTED_EDGE('',*,*,#308,.T.);
#333 = ORIENTED_EDGE('',*,*,#202,.F.);
#334 = ( GEOMETRIC_REPRESENTATION_CONTEXT(3) 
GLOBAL_UNCERTAINTY_ASSIGNED_CONTEXT((#338)) GLOBAL_UNIT_ASSIGNED_CONTEXT
((#335,#336,#337)) REPRESENTATION_CONTEXT('Context #1',
  '3D Context with UNIT and UNCERTAINTY') );
#335 = ( LENGTH_UNIT() NAMED_UNIT(*) SI_UNIT(.MILLI.,.METRE.) );
#336 = ( NAMED_UNIT(*) PLANE_ANGLE_UNIT() SI_UNIT($,.RADIAN.) );
#337 = ( NAMED_UNIT(*) SI_UNIT($,.STERADIAN.) SOLID_ANGLE_UNIT() );
#338 = UNCERTAINTY_MEASURE_WITH_UNIT(LENGTH_MEASURE(1.E-07),#335,
  'distance_accuracy_value','confusion accuracy');
#339 = PRODUCT_RELATED_PRODUCT_CATEGORY('part',$,(#7));
ENDSEC;
END-ISO-10303-21;
