ISO-10303-21;
HEADER;

/* File generated by Shapr3D Version 26.151.0.11589 */

FILE_DESCRIPTION(('HOOPS Exchange Step'),'2;1');

FILE_NAME('/private/var/mobile/Containers/Data/Application/1993A6C5-0FE1-406A-BFB1-231683AB655A/tmp/export/temp_export',
'2026-09-01T17:47:00+02:00',
('mobile'),
('Shapr3D Limited'),
'HOOPS Exchange 2026.3',
'Shapr3D',
'Authorized');

FILE_SCHEMA( ('AP242_MANAGED_MODEL_BASED_3D_ENGINEERING_MIM_LF {1 0 10303 442 1 1 4}') );

ENDSEC;

DATA;
#3=(NAMED_UNIT(*)PLANE_ANGLE_UNIT()SI_UNIT($,.RADIAN.));
#4=PLANE_ANGLE_MEASURE_WITH_UNIT(PLANE_ANGLE_MEASURE(0.0174532925),#3);
#5=(CONVERSION_BASED_UNIT('DEGREE',#4)NAMED_UNIT(#6)PLANE_ANGLE_UNIT());
#6=DIMENSIONAL_EXPONENTS(0.,0.,0.,0.,0.,0.,0.);
#7=(NAMED_UNIT(*)SI_UNIT($,.STERADIAN.)SOLID_ANGLE_UNIT());
#8=(LENGTH_UNIT()NAMED_UNIT(*)SI_UNIT(.MILLI.,.METRE.));
#9=UNCERTAINTY_MEASURE_WITH_UNIT(LENGTH_MEASURE(1.000000E-05),#8,'DISTANCE_ACCURACY_VALUE','Maximum Tolerance applied to model');
#10=(GEOMETRIC_REPRESENTATION_CONTEXT(3)GLOBAL_UNCERTAINTY_ASSIGNED_CONTEXT((#9))GLOBAL_UNIT_ASSIGNED_CONTEXT((#8,#5,#7))REPRESENTATION_CONTEXT('','Cuerpo 02'));
#12=CARTESIAN_POINT('',(0.,0.,0.));
#13=DIRECTION('',(0.,0.,1.));
#14=DIRECTION('',(1.,0.,0.));
#15=AXIS2_PLACEMENT_3D('',#12,#13,#14);
#27=CARTESIAN_POINT('',(5.6,-0.05,8.));
#28=DIRECTION('',(-1.,0.,0.));
#29=DIRECTION('',(0.,0.,1.));
#30=AXIS2_PLACEMENT_3D('',#27,#28,#29);
#31=PLANE('',#30);
#32=CARTESIAN_POINT('',(5.6,0.2,5.102874102));
#33=VERTEX_POINT('',#32);
#34=CARTESIAN_POINT('',(5.6,0.208592387,5.001695865));
#35=VERTEX_POINT('',#34);
#36=CARTESIAN_POINT('',(5.6,0.8,5.102874102));
#37=DIRECTION('',(1.,-0.,-0.));
#38=DIRECTION('',(0.,0.,1.));
#39=AXIS2_PLACEMENT_3D('',#36,#37,#38);
#40=CIRCLE('',#39,0.6);
#41=EDGE_CURVE('',#33,#35,#40,.T.);
#42=ORIENTED_EDGE('',*,*,#41,.T.);
#43=CARTESIAN_POINT('',(5.6,-0.312457377,5.010734395));
#44=VERTEX_POINT('',#43);
#45=CARTESIAN_POINT('',(5.6,0.,8.));
#46=DIRECTION('',(-1.,0.,0.));
#47=DIRECTION('',(0.,0.,1.));
#48=AXIS2_PLACEMENT_3D('',#45,#46,#47);
#49=CIRCLE('',#48,3.005551275);
#50=EDGE_CURVE('',#35,#44,#49,.T.);
#51=ORIENTED_EDGE('',*,*,#50,.T.);
#52=CARTESIAN_POINT('',(5.6,-0.3,5.132363609));
#53=VERTEX_POINT('',#52);
#54=CARTESIAN_POINT('',(5.6,-0.9,5.132363609));
#55=DIRECTION('',(1.,-0.,-0.));
#56=DIRECTION('',(0.,0.,1.));
#57=AXIS2_PLACEMENT_3D('',#54,#55,#56);
#58=CIRCLE('',#57,0.6);
#59=EDGE_CURVE('',#44,#53,#58,.T.);
#60=ORIENTED_EDGE('',*,*,#59,.T.);
#61=CARTESIAN_POINT('',(5.6,-0.3,8.));
#62=VERTEX_POINT('',#61);
#63=CARTESIAN_POINT('',(5.6,-0.3,8.));
#64=DIRECTION('',(0.,0.,-1.));
#65=VECTOR('',#64,2.867636391);
#66=LINE('',#63,#65);
#67=EDGE_CURVE('',#62,#53,#66,.T.);
#68=ORIENTED_EDGE('',*,*,#67,.F.);
#69=CARTESIAN_POINT('',(5.6,0.2,8.));
#70=VERTEX_POINT('',#69);
#71=CARTESIAN_POINT('',(5.6,-0.3,8.));
#72=DIRECTION('',(0.,1.,0.));
#73=VECTOR('',#72,0.5);
#74=LINE('',#71,#73);
#75=EDGE_CURVE('',#62,#70,#74,.T.);
#76=ORIENTED_EDGE('',*,*,#75,.T.);
#77=CARTESIAN_POINT('',(5.6,0.2,8.));
#78=DIRECTION('',(0.,0.,-1.));
#79=VECTOR('',#78,2.897125898);
#80=LINE('',#77,#79);
#81=EDGE_CURVE('',#70,#33,#80,.T.);
#82=ORIENTED_EDGE('',*,*,#81,.T.);
#83=EDGE_LOOP('',(#42,#51,#60,#68,#76,#82));
#84=FACE_BOUND('',#83,.T.);
#85=ADVANCED_FACE('',(#84),#31,.T.);
#86=CARTESIAN_POINT('',(6.1,-0.05,8.));
#87=DIRECTION('',(1.,0.,0.));
#88=DIRECTION('',(0.,0.,-1.));
#89=AXIS2_PLACEMENT_3D('',#86,#87,#88);
#90=PLANE('',#89);
#91=CARTESIAN_POINT('',(6.1,-0.3,5.132363609));
#92=VERTEX_POINT('',#91);
#93=CARTESIAN_POINT('',(6.1,-0.312457377,5.010734395));
#94=VERTEX_POINT('',#93);
#95=CARTESIAN_POINT('',(6.1,-0.9,5.132363609));
#96=DIRECTION('',(-1.,-0.,-0.));
#97=DIRECTION('',(0.,0.,-1.));
#98=AXIS2_PLACEMENT_3D('',#95,#96,#97);
#99=CIRCLE('',#98,0.6);
#100=EDGE_CURVE('',#92,#94,#99,.T.);
#101=ORIENTED_EDGE('',*,*,#100,.T.);
#102=CARTESIAN_POINT('',(6.1,-0.,4.994448725));
#103=VERTEX_POINT('',#102);
#104=CARTESIAN_POINT('',(6.1,0.,8.));
#105=DIRECTION('',(1.,0.,0.));
#106=DIRECTION('',(0.,0.,-1.));
#107=AXIS2_PLACEMENT_3D('',#104,#105,#106);
#108=CIRCLE('',#107,3.005551275);
#109=EDGE_CURVE('',#94,#103,#108,.T.);
#110=ORIENTED_EDGE('',*,*,#109,.T.);
#111=CARTESIAN_POINT('',(6.1,0.208592387,5.001695865));
#112=VERTEX_POINT('',#111);
#113=CARTESIAN_POINT('',(6.1,0.,8.));
#114=DIRECTION('',(1.,0.,0.));
#115=DIRECTION('',(0.,0.,-1.));
#116=AXIS2_PLACEMENT_3D('',#113,#114,#115);
#117=CIRCLE('',#116,3.005551275);
#118=EDGE_CURVE('',#103,#112,#117,.T.);
#119=ORIENTED_EDGE('',*,*,#118,.T.);
#120=CARTESIAN_POINT('',(6.1,0.2,5.102874102));
#121=VERTEX_POINT('',#120);
#122=CARTESIAN_POINT('',(6.1,0.8,5.102874102));
#123=DIRECTION('',(-1.,-0.,-0.));
#124=DIRECTION('',(0.,0.,-1.));
#125=AXIS2_PLACEMENT_3D('',#122,#123,#124);
#126=CIRCLE('',#125,0.6);
#127=EDGE_CURVE('',#112,#121,#126,.T.);
#128=ORIENTED_EDGE('',*,*,#127,.T.);
#129=CARTESIAN_POINT('',(6.1,0.2,8.));
#130=VERTEX_POINT('',#129);
#131=CARTESIAN_POINT('',(6.1,0.2,8.));
#132=DIRECTION('',(0.,0.,-1.));
#133=VECTOR('',#132,2.897125898);
#134=LINE('',#131,#133);
#135=EDGE_CURVE('',#130,#121,#134,.T.);
#136=ORIENTED_EDGE('',*,*,#135,.F.);
#137=CARTESIAN_POINT('',(6.1,-0.3,8.));
#138=VERTEX_POINT('',#137);
#139=CARTESIAN_POINT('',(6.1,0.2,8.));
#140=DIRECTION('',(0.,-1.,0.));
#141=VECTOR('',#140,0.5);
#142=LINE('',#139,#141);
#143=EDGE_CURVE('',#130,#138,#142,.T.);
#144=ORIENTED_EDGE('',*,*,#143,.T.);
#145=CARTESIAN_POINT('',(6.1,-0.3,8.));
#146=DIRECTION('',(0.,0.,-1.));
#147=VECTOR('',#146,2.867636391);
#148=LINE('',#145,#147);
#149=EDGE_CURVE('',#138,#92,#148,.T.);
#150=ORIENTED_EDGE('',*,*,#149,.T.);
#151=EDGE_LOOP('',(#101,#110,#119,#128,#136,#144,#150));
#152=FACE_BOUND('',#151,.T.);
#153=ADVANCED_FACE('',(#152),#90,.T.);
#154=CARTESIAN_POINT('',(5.85,0.2,8.));
#155=DIRECTION('',(0.,1.,0.));
#156=DIRECTION('',(0.,0.,1.));
#157=AXIS2_PLACEMENT_3D('',#154,#155,#156);
#158=PLANE('',#157);
#159=ORIENTED_EDGE('',*,*,#135,.T.);
#160=CARTESIAN_POINT('',(6.1,0.2,5.102874102));
#161=DIRECTION('',(-1.,0.,0.));
#162=VECTOR('',#161,0.5);
#163=LINE('',#160,#162);
#164=EDGE_CURVE('',#121,#33,#163,.T.);
#165=ORIENTED_EDGE('',*,*,#164,.T.);
#166=ORIENTED_EDGE('',*,*,#81,.F.);
#167=CARTESIAN_POINT('',(5.6,0.2,8.));
#168=DIRECTION('',(1.,0.,-0.));
#169=VECTOR('',#168,0.5);
#170=LINE('',#167,#169);
#171=EDGE_CURVE('',#70,#130,#170,.T.);
#172=ORIENTED_EDGE('',*,*,#171,.T.);
#173=EDGE_LOOP('',(#159,#165,#166,#172));
#174=FACE_BOUND('',#173,.T.);
#175=ADVANCED_FACE('',(#174),#158,.T.);
#176=CARTESIAN_POINT('',(5.85,-0.3,8.));
#177=DIRECTION('',(0.,-1.,0.));
#178=DIRECTION('',(0.,0.,-1.));
#179=AXIS2_PLACEMENT_3D('',#176,#177,#178);
#180=PLANE('',#179);
#181=ORIENTED_EDGE('',*,*,#67,.T.);
#182=CARTESIAN_POINT('',(5.6,-0.3,5.132363609));
#183=DIRECTION('',(1.,-0.,-0.));
#184=VECTOR('',#183,0.5);
#185=LINE('',#182,#184);
#186=EDGE_CURVE('',#53,#92,#185,.T.);
#187=ORIENTED_EDGE('',*,*,#186,.T.);
#188=ORIENTED_EDGE('',*,*,#149,.F.);
#189=CARTESIAN_POINT('',(6.1,-0.3,8.));
#190=DIRECTION('',(-1.,0.,0.));
#191=VECTOR('',#190,0.5);
#192=LINE('',#189,#191);
#193=EDGE_CURVE('',#138,#62,#192,.T.);
#194=ORIENTED_EDGE('',*,*,#193,.T.);
#195=EDGE_LOOP('',(#181,#187,#188,#194));
#196=FACE_BOUND('',#195,.T.);
#197=ADVANCED_FACE('',(#196),#180,.T.);
#198=CARTESIAN_POINT('',(-8.9,0.2,8.));
#199=DIRECTION('',(0.,0.,1.));
#200=DIRECTION('',(0.,1.,0.));
#201=AXIS2_PLACEMENT_3D('',#198,#199,#200);
#202=PLANE('',#201);
#203=ORIENTED_EDGE('',*,*,#171,.F.);
#204=ORIENTED_EDGE('',*,*,#75,.F.);
#205=ORIENTED_EDGE('',*,*,#193,.F.);
#206=ORIENTED_EDGE('',*,*,#143,.F.);
#207=EDGE_LOOP('',(#203,#204,#205,#206));
#208=FACE_BOUND('',#207,.T.);
#209=ADVANCED_FACE('',(#208),#202,.T.);
#210=CARTESIAN_POINT('',(0.,0.,15.6));
#211=DIRECTION('',(0.,0.,-1.));
#212=DIRECTION('',(-1.,0.,0.));
#213=AXIS2_PLACEMENT_3D('',#210,#211,#212);
#214=CYLINDRICAL_SURFACE('',#213,8.602325267);
#215=CARTESIAN_POINT('',(-8.602325267,0.,0.));
#216=VERTEX_POINT('',#215);
#217=CARTESIAN_POINT('',(-8.602325268,-0.,4.394448717));
#218=VERTEX_POINT('',#217);
#219=CARTESIAN_POINT('',(-8.602325267,0.,0.));
#220=DIRECTION('',(-0.,-0.,1.));
#221=VECTOR('',#220,4.394448717);
#222=LINE('',#219,#221);
#223=EDGE_CURVE('',#216,#218,#222,.T.);
#224=ORIENTED_EDGE('',*,*,#223,.T.);
#225=CARTESIAN_POINT('',(-8.602325267,0.,11.605551275));
#226=VERTEX_POINT('',#225);
#227=CARTESIAN_POINT('',(-8.602325267,0.,11.605551275));
#228=CARTESIAN_POINT('',(-8.602325267,0.241135082,11.605551275));
#229=CARTESIAN_POINT('',(-8.592212538,0.477721925,11.581609049));
#230=CARTESIAN_POINT('',(-8.572972968,0.710024285,11.534949153));
#231=CARTESIAN_POINT('',(-8.563353184,0.826175465,11.511619205));
#232=CARTESIAN_POINT('',(-8.551446828,0.941247999,11.482565356));
#233=CARTESIAN_POINT('',(-8.537358327,1.055231161,11.447678523));
#234=CARTESIAN_POINT('',(-8.523269825,1.169214323,11.41279169));
#235=CARTESIAN_POINT('',(-8.507027456,1.281661963,11.372131366));
#236=CARTESIAN_POINT('',(-8.489192345,1.390544258,11.326617902));
#237=CARTESIAN_POINT('',(-8.453522123,1.608308849,11.235590974));
#238=CARTESIAN_POINT('',(-8.411191791,1.814396917,11.124591059));
#239=CARTESIAN_POINT('',(-8.364369114,2.00931066,10.99377198));
#240=CARTESIAN_POINT('',(-8.340957775,2.106767532,10.928362441));
#241=CARTESIAN_POINT('',(-8.31632872,2.201693302,10.857661794));
#242=CARTESIAN_POINT('',(-8.291367126,2.291992841,10.783301784));
#243=CARTESIAN_POINT('',(-8.266405532,2.382292379,10.708941774));
#244=CARTESIAN_POINT('',(-8.241014109,2.46841498,10.630668688));
#245=CARTESIAN_POINT('',(-8.21553045,2.550501798,10.54851733));
#246=CARTESIAN_POINT('',(-8.164563132,2.714675432,10.384214614));
#247=CARTESIAN_POINT('',(-8.112986035,2.863390833,10.203717691));
#248=CARTESIAN_POINT('',(-8.064314651,2.994466432,10.008275575));
#249=CARTESIAN_POINT('',(-8.015643267,3.125542032,9.812833459));
#250=CARTESIAN_POINT('',(-7.971053292,3.236032535,9.60716991));
#251=CARTESIAN_POINT('',(-7.933154326,3.326418861,9.39102033));
#252=CARTESIAN_POINT('',(-7.914204843,3.371612025,9.28294554));
#253=CARTESIAN_POINT('',(-7.896928077,3.411740682,9.172231571));
#254=CARTESIAN_POINT('',(-7.881680759,3.446608248,9.058721674));
#255=CARTESIAN_POINT('',(-7.866433441,3.481475814,8.945211777));
#256=CARTESIAN_POINT('',(-7.853215765,3.511077412,8.828544534));
#257=CARTESIAN_POINT('',(-7.842630171,3.53456532,8.711932579));
#258=CARTESIAN_POINT('',(-7.821458983,3.581541137,8.47870867));
#259=CARTESIAN_POINT('',(-7.810395408,3.60523559,8.242989869));
#260=CARTESIAN_POINT('',(-7.810251111,3.605548167,8.004734327));
#261=CARTESIAN_POINT('',(-7.810178962,3.605704456,7.885606556));
#262=CARTESIAN_POINT('',(-7.812867054,3.599899581,7.76518287));
#263=CARTESIAN_POINT('',(-7.818281855,3.588101008,7.645696233));
#264=CARTESIAN_POINT('',(-7.823696655,3.576302434,7.526209595));
#265=CARTESIAN_POINT('',(-7.831769579,3.558656949,7.408380976));
#266=CARTESIAN_POINT('',(-7.842262048,3.535382012,7.292134171));
#267=CARTESIAN_POINT('',(-7.863246987,3.488832137,7.059640559));
#268=CARTESIAN_POINT('',(-7.894025181,3.419676646,6.832830148));
#269=CARTESIAN_POINT('',(-7.932369598,3.328289735,6.613462068));
#270=CARTESIAN_POINT('',(-7.970714015,3.236902825,6.394093987));
#271=CARTESIAN_POINT('',(-8.015490528,3.125878073,6.18799044));
#272=CARTESIAN_POINT('',(-8.063746245,2.995996746,5.994008102));
#273=CARTESIAN_POINT('',(-8.112001961,2.866115419,5.800025763));
#274=CARTESIAN_POINT('',(-8.164235874,2.7156845,5.616876542));
#275=CARTESIAN_POINT('',(-8.215334184,2.551133914,5.452115436));
#276=CARTESIAN_POINT('',(-8.266432494,2.386583328,5.28735433));
#277=CARTESIAN_POINT('',(-8.316704529,2.207373123,5.139488582));
#278=CARTESIAN_POINT('',(-8.363541055,2.012754584,5.008542331));
#279=CARTESIAN_POINT('',(-8.386959319,1.915445315,4.943069206));
#280=CARTESIAN_POINT('',(-8.409616965,1.813708268,4.881613318));
#281=CARTESIAN_POINT('',(-8.43064979,1.7100129,4.825751131));
#282=CARTESIAN_POINT('',(-8.451682615,1.606317533,4.769888945));
#283=CARTESIAN_POINT('',(-8.471183205,1.500360666,4.719347455));
#284=CARTESIAN_POINT('',(-8.488930973,1.392138978,4.674049149));
#285=CARTESIAN_POINT('',(-8.524426509,1.175695602,4.583452536));
#286=CARTESIAN_POINT('',(-8.552936528,0.950263252,4.513654682));
#287=CARTESIAN_POINT('',(-8.572557599,0.715021827,4.466058322));
#288=CARTESIAN_POINT('',(-8.59217867,0.479780403,4.418461961));
#289=CARTESIAN_POINT('',(-8.602193512,0.242245068,4.394763073));
#290=CARTESIAN_POINT('',(-8.602323969,0.004724807,4.39445182));
#291=CARTESIAN_POINT('',(-8.602389198,-0.114035324,4.394296194));
#292=CARTESIAN_POINT('',(-8.599996329,-0.232978887,4.399993097));
#293=CARTESIAN_POINT('',(-8.595115972,-0.352109957,4.411683044));
#294=CARTESIAN_POINT('',(-8.590235615,-0.471241028,4.423372991));
#295=CARTESIAN_POINT('',(-8.582814335,-0.590805371,4.441186126));
#296=CARTESIAN_POINT('',(-8.573166775,-0.70768033,4.464580852));
#297=CARTESIAN_POINT('',(-8.553871655,-0.941430247,4.511370305));
#298=CARTESIAN_POINT('',(-8.525621454,-1.167381773,4.580464443));
#299=CARTESIAN_POINT('',(-8.489959456,-1.385852963,4.671424995));
#300=CARTESIAN_POINT('',(-8.472128457,-1.495088558,4.716905271));
#301=CARTESIAN_POINT('',(-8.452333124,-1.602902783,4.768187858));
#302=CARTESIAN_POINT('',(-8.431304971,-1.706779565,4.824011411));
#303=CARTESIAN_POINT('',(-8.410276818,-1.810656347,4.879834964));
#304=CARTESIAN_POINT('',(-8.387968391,-1.911002407,4.940310279));
#305=CARTESIAN_POINT('',(-8.36469128,-2.007969073,5.005328031));
#306=CARTESIAN_POINT('',(-8.318137056,-2.201902404,5.135363535));
#307=CARTESIAN_POINT('',(-8.267388072,-2.383372707,5.284384429));
#308=CARTESIAN_POINT('',(-8.215913047,-2.549269071,5.45024958));
#309=CARTESIAN_POINT('',(-8.164438023,-2.715165435,5.616114732));
#310=CARTESIAN_POINT('',(-8.113202176,-2.862718533,5.795654807));
#311=CARTESIAN_POINT('',(-8.06498206,-2.992668438,5.989046092));
#312=CARTESIAN_POINT('',(-8.040872001,-3.05764339,6.085741734));
#313=CARTESIAN_POINT('',(-8.017516182,-3.118182161,6.185926517));
#314=CARTESIAN_POINT('',(-7.995297334,-3.17414879,6.28980134));
#315=CARTESIAN_POINT('',(-7.973078486,-3.230115419,6.393676163));
#316=CARTESIAN_POINT('',(-7.952087668,-3.281268348,6.500954752));
#317=CARTESIAN_POINT('',(-7.933052198,-3.326662416,6.609562237));
#318=CARTESIAN_POINT('',(-7.894981258,-3.417450551,6.826777207));
#319=CARTESIAN_POINT('',(-7.86421649,-3.486655725,7.051520504));
#320=CARTESIAN_POINT('',(-7.842979325,-3.533790501,7.284231395));
#321=CARTESIAN_POINT('',(-7.832360743,-3.557357889,7.400586841));
#322=CARTESIAN_POINT('',(-7.824096853,-3.575427688,7.519653229));
#323=CARTESIAN_POINT('',(-7.818582731,-3.58744534,7.639117846));
#324=CARTESIAN_POINT('',(-7.81306861,-3.599462993,7.758582463));
#325=CARTESIAN_POINT('',(-7.810301396,-3.605439239,7.877758076));
#326=CARTESIAN_POINT('',(-7.810250394,-3.605549721,7.996652202));
#327=CARTESIAN_POINT('',(-7.810148388,-3.605770686,8.234440454));
#328=CARTESIAN_POINT('',(-7.820928363,-3.582700918,8.471109282));
#329=CARTESIAN_POINT('',(-7.842151345,-3.535627565,8.706638323));
#330=CARTESIAN_POINT('',(-7.863374327,-3.488554212,8.942167364));
#331=CARTESIAN_POINT('',(-7.894294518,-3.419026925,9.168608005));
#332=CARTESIAN_POINT('',(-7.932256353,-3.328559622,9.385889911));
#333=CARTESIAN_POINT('',(-7.970218187,-3.238092318,9.603171817));
#334=CARTESIAN_POINT('',(-8.015780054,-3.125149225,9.813313102));
#335=CARTESIAN_POINT('',(-8.064128435,-2.994967877,10.007527687));
#336=CARTESIAN_POINT('',(-8.112476816,-2.864786529,10.201742273));
#337=CARTESIAN_POINT('',(-8.163750207,-2.717203894,10.381521355));
#338=CARTESIAN_POINT('',(-8.21514075,-2.55175674,10.547260791));
#339=CARTESIAN_POINT('',(-8.240836021,-2.469033163,10.63013051));
#340=CARTESIAN_POINT('',(-8.266614738,-2.381565419,10.709578778));
#341=CARTESIAN_POINT('',(-8.291562503,-2.291285939,10.783883752));
#342=CARTESIAN_POINT('',(-8.316510268,-2.201006458,10.858188727));
#343=CARTESIAN_POINT('',(-8.340758216,-2.107521092,10.927785227));
#344=CARTESIAN_POINT('',(-8.364007077,-2.010817151,10.992760329));
#345=CARTESIAN_POINT('',(-8.4105048,-1.817409268,11.122710532));
#346=CARTESIAN_POINT('',(-8.453104313,-1.610788618,11.234520619));
#347=CARTESIAN_POINT('',(-8.489120766,-1.390981174,11.326435235));
#348=CARTESIAN_POINT('',(-8.525137218,-1.17117373,11.418349851));
#349=CARTESIAN_POINT('',(-8.553398006,-0.945285184,11.487468501));
#350=CARTESIAN_POINT('',(-8.572699597,-0.71331733,11.534286121));
#351=CARTESIAN_POINT('',(-8.582350393,-0.597333403,11.557694931));
#352=CARTESIAN_POINT('',(-8.589760433,-0.479819682,11.575486362));
#353=CARTESIAN_POINT('',(-8.594759203,-0.360713529,11.587462299));
#354=CARTESIAN_POINT('',(-8.599757972,-0.241607376,11.599438237));
#355=CARTESIAN_POINT('',(-8.602325267,-0.120689411,11.605551275));
#356=CARTESIAN_POINT('',(-8.602325267,0.,11.605551275));
#357=B_SPLINE_CURVE_WITH_KNOTS('',3,(#227,#228,#229,#230,#231,#232,#233,#234,#235,#236,#237,#238,#239,#240,#241,#242,#243,#244,#245,#246,#247,#248,#249,#250,#251,#252,
#253,#254,#255,#256,#257,#258,#259,#260,#261,#262,#263,#264,#265,#266,#267,#268,#269,#270,#271,#272,#273,#274,#275,#276,#277,
#278,#279,#280,#281,#282,#283,#284,#285,#286,#287,#288,#289,#290,#291,#292,#293,#294,#295,#296,#297,#298,#299,#300,#301,#302,
#303,#304,#305,#306,#307,#308,#309,#310,#311,#312,#313,#314,#315,#316,#317,#318,#319,#320,#321,#322,#323,#324,#325,#326,#327,
#328,#329,#330,#331,#332,#333,#334,#335,#336,#337,#338,#339,#340,#341,#342,#343,#344,#345,#346,#347,#348,#349,#350,#351,#352,
#353,#354,#355,#356),.UNSPECIFIED.,.T.,.F.,(4,3,3,3,3,3,3,3,3,3,3,3,3,3,3,3,3,3,3,3,3,3,3,3,3,3,
3,3,3,3,3,3,3,3,3,3,3,3,3,3,3,3,3,4),(0.,0.000712575,0.001068863,0.001425151,0.002137726,0.002494014,0.002850302,0.003562877,0.004275452,0.00463174,0.004988028,0.005700603,0.006056891,0.006413179,0.007125754,0.007838329,0.008550905,0.00926348,0.009619768,0.009976056,0.010688631,0.011401206,0.011757494,0.012113782,0.012826357,0.013182645,
0.013538933,0.014251508,0.014964083,0.015320371,0.015676659,0.016389234,0.016745522,0.01710181,0.017814385,0.01852696,0.019239536,0.019952111,0.020308399,0.020664687,0.021377262,0.022089837,0.022446125,0.022802413),.UNSPECIFIED.);
#358=EDGE_CURVE('',#226,#218,#357,.T.);
#359=ORIENTED_EDGE('',*,*,#358,.F.);
#360=CARTESIAN_POINT('',(-8.602325267,0.,15.6));
#361=VERTEX_POINT('',#360);
#362=CARTESIAN_POINT('',(-8.602325267,0.,11.605551275));
#363=DIRECTION('',(-0.,-0.,1.));
#364=VECTOR('',#363,3.994448725);
#365=LINE('',#362,#364);
#366=EDGE_CURVE('',#226,#361,#365,.T.);
#367=ORIENTED_EDGE('',*,*,#366,.T.);
#368=CARTESIAN_POINT('',(8.602325267,-0.,15.6));
#369=VERTEX_POINT('',#368);
#370=CARTESIAN_POINT('',(0.,0.,15.6));
#371=DIRECTION('',(0.,0.,1.));
#372=DIRECTION('',(1.,0.,-0.));
#373=AXIS2_PLACEMENT_3D('',#370,#371,#372);
#374=CIRCLE('',#373,8.602325267);
#375=EDGE_CURVE('',#369,#361,#374,.T.);
#376=ORIENTED_EDGE('',*,*,#375,.F.);
#377=CARTESIAN_POINT('',(0.,0.,15.6));
#378=DIRECTION('',(0.,0.,1.));
#379=DIRECTION('',(1.,0.,-0.));
#380=AXIS2_PLACEMENT_3D('',#377,#378,#379);
#381=CIRCLE('',#380,8.602325267);
#382=EDGE_CURVE('',#361,#369,#381,.T.);
#383=ORIENTED_EDGE('',*,*,#382,.F.);
#384=ORIENTED_EDGE('',*,*,#366,.F.);
#385=CARTESIAN_POINT('',(-8.602325267,0.,11.605551275));
#386=CARTESIAN_POINT('',(-8.602325267,0.241135082,11.605551275));
#387=CARTESIAN_POINT('',(-8.592212538,0.477721925,11.581609049));
#388=CARTESIAN_POINT('',(-8.572972968,0.710024285,11.534949153));
#389=CARTESIAN_POINT('',(-8.563353184,0.826175465,11.511619205));
#390=CARTESIAN_POINT('',(-8.551446828,0.941247999,11.482565356));
#391=CARTESIAN_POINT('',(-8.537358327,1.055231161,11.447678523));
#392=CARTESIAN_POINT('',(-8.523269825,1.169214323,11.41279169));
#393=CARTESIAN_POINT('',(-8.507027456,1.281661963,11.372131366));
#394=CARTESIAN_POINT('',(-8.489192345,1.390544258,11.326617902));
#395=CARTESIAN_POINT('',(-8.453522123,1.608308849,11.235590974));
#396=CARTESIAN_POINT('',(-8.411191791,1.814396917,11.124591059));
#397=CARTESIAN_POINT('',(-8.364369114,2.00931066,10.99377198));
#398=CARTESIAN_POINT('',(-8.340957775,2.106767532,10.928362441));
#399=CARTESIAN_POINT('',(-8.31632872,2.201693302,10.857661794));
#400=CARTESIAN_POINT('',(-8.291367126,2.291992841,10.783301784));
#401=CARTESIAN_POINT('',(-8.266405532,2.382292379,10.708941774));
#402=CARTESIAN_POINT('',(-8.241014109,2.46841498,10.630668688));
#403=CARTESIAN_POINT('',(-8.21553045,2.550501798,10.54851733));
#404=CARTESIAN_POINT('',(-8.164563132,2.714675432,10.384214614));
#405=CARTESIAN_POINT('',(-8.112986035,2.863390833,10.203717691));
#406=CARTESIAN_POINT('',(-8.064314651,2.994466432,10.008275575));
#407=CARTESIAN_POINT('',(-8.015643267,3.125542032,9.812833459));
#408=CARTESIAN_POINT('',(-7.971053292,3.236032535,9.60716991));
#409=CARTESIAN_POINT('',(-7.933154326,3.326418861,9.39102033));
#410=CARTESIAN_POINT('',(-7.914204843,3.371612025,9.28294554));
#411=CARTESIAN_POINT('',(-7.896928077,3.411740682,9.172231571));
#412=CARTESIAN_POINT('',(-7.881680759,3.446608248,9.058721674));
#413=CARTESIAN_POINT('',(-7.866433441,3.481475814,8.945211777));
#414=CARTESIAN_POINT('',(-7.853215765,3.511077412,8.828544534));
#415=CARTESIAN_POINT('',(-7.842630171,3.53456532,8.711932579));
#416=CARTESIAN_POINT('',(-7.821458983,3.581541137,8.47870867));
#417=CARTESIAN_POINT('',(-7.810395408,3.60523559,8.242989869));
#418=CARTESIAN_POINT('',(-7.810251111,3.605548167,8.004734327));
#419=CARTESIAN_POINT('',(-7.810178962,3.605704456,7.885606556));
#420=CARTESIAN_POINT('',(-7.812867054,3.599899581,7.76518287));
#421=CARTESIAN_POINT('',(-7.818281855,3.588101008,7.645696233));
#422=CARTESIAN_POINT('',(-7.823696655,3.576302434,7.526209595));
#423=CARTESIAN_POINT('',(-7.831769579,3.558656949,7.408380976));
#424=CARTESIAN_POINT('',(-7.842262048,3.535382012,7.292134171));
#425=CARTESIAN_POINT('',(-7.863246987,3.488832137,7.059640559));
#426=CARTESIAN_POINT('',(-7.894025181,3.419676646,6.832830148));
#427=CARTESIAN_POINT('',(-7.932369598,3.328289735,6.613462068));
#428=CARTESIAN_POINT('',(-7.970714015,3.236902825,6.394093987));
#429=CARTESIAN_POINT('',(-8.015490528,3.125878073,6.18799044));
#430=CARTESIAN_POINT('',(-8.063746245,2.995996746,5.994008102));
#431=CARTESIAN_POINT('',(-8.112001961,2.866115419,5.800025763));
#432=CARTESIAN_POINT('',(-8.164235874,2.7156845,5.616876542));
#433=CARTESIAN_POINT('',(-8.215334184,2.551133914,5.452115436));
#434=CARTESIAN_POINT('',(-8.266432494,2.386583328,5.28735433));
#435=CARTESIAN_POINT('',(-8.316704529,2.207373123,5.139488582));
#436=CARTESIAN_POINT('',(-8.363541055,2.012754584,5.008542331));
#437=CARTESIAN_POINT('',(-8.386959319,1.915445315,4.943069206));
#438=CARTESIAN_POINT('',(-8.409616965,1.813708268,4.881613318));
#439=CARTESIAN_POINT('',(-8.43064979,1.7100129,4.825751131));
#440=CARTESIAN_POINT('',(-8.451682615,1.606317533,4.769888945));
#441=CARTESIAN_POINT('',(-8.471183205,1.500360666,4.719347455));
#442=CARTESIAN_POINT('',(-8.488930973,1.392138978,4.674049149));
#443=CARTESIAN_POINT('',(-8.524426509,1.175695602,4.583452536));
#444=CARTESIAN_POINT('',(-8.552936528,0.950263252,4.513654682));
#445=CARTESIAN_POINT('',(-8.572557599,0.715021827,4.466058322));
#446=CARTESIAN_POINT('',(-8.59217867,0.479780403,4.418461961));
#447=CARTESIAN_POINT('',(-8.602193512,0.242245068,4.394763073));
#448=CARTESIAN_POINT('',(-8.602323969,0.004724807,4.39445182));
#449=CARTESIAN_POINT('',(-8.602389198,-0.114035324,4.394296194));
#450=CARTESIAN_POINT('',(-8.599996329,-0.232978887,4.399993097));
#451=CARTESIAN_POINT('',(-8.595115972,-0.352109957,4.411683044));
#452=CARTESIAN_POINT('',(-8.590235615,-0.471241028,4.423372991));
#453=CARTESIAN_POINT('',(-8.582814335,-0.590805371,4.441186126));
#454=CARTESIAN_POINT('',(-8.573166775,-0.70768033,4.464580852));
#455=CARTESIAN_POINT('',(-8.553871655,-0.941430247,4.511370305));
#456=CARTESIAN_POINT('',(-8.525621454,-1.167381773,4.580464443));
#457=CARTESIAN_POINT('',(-8.489959456,-1.385852963,4.671424995));
#458=CARTESIAN_POINT('',(-8.472128457,-1.495088558,4.716905271));
#459=CARTESIAN_POINT('',(-8.452333124,-1.602902783,4.768187858));
#460=CARTESIAN_POINT('',(-8.431304971,-1.706779565,4.824011411));
#461=CARTESIAN_POINT('',(-8.410276818,-1.810656347,4.879834964));
#462=CARTESIAN_POINT('',(-8.387968391,-1.911002407,4.940310279));
#463=CARTESIAN_POINT('',(-8.36469128,-2.007969073,5.005328031));
#464=CARTESIAN_POINT('',(-8.318137056,-2.201902404,5.135363535));
#465=CARTESIAN_POINT('',(-8.267388072,-2.383372707,5.284384429));
#466=CARTESIAN_POINT('',(-8.215913047,-2.549269071,5.45024958));
#467=CARTESIAN_POINT('',(-8.164438023,-2.715165435,5.616114732));
#468=CARTESIAN_POINT('',(-8.113202176,-2.862718533,5.795654807));
#469=CARTESIAN_POINT('',(-8.06498206,-2.992668438,5.989046092));
#470=CARTESIAN_POINT('',(-8.040872001,-3.05764339,6.085741734));
#471=CARTESIAN_POINT('',(-8.017516182,-3.118182161,6.185926517));
#472=CARTESIAN_POINT('',(-7.995297334,-3.17414879,6.28980134));
#473=CARTESIAN_POINT('',(-7.973078486,-3.230115419,6.393676163));
#474=CARTESIAN_POINT('',(-7.952087668,-3.281268348,6.500954752));
#475=CARTESIAN_POINT('',(-7.933052198,-3.326662416,6.609562237));
#476=CARTESIAN_POINT('',(-7.894981258,-3.417450551,6.826777207));
#477=CARTESIAN_POINT('',(-7.86421649,-3.486655725,7.051520504));
#478=CARTESIAN_POINT('',(-7.842979325,-3.533790501,7.284231395));
#479=CARTESIAN_POINT('',(-7.832360743,-3.557357889,7.400586841));
#480=CARTESIAN_POINT('',(-7.824096853,-3.575427688,7.519653229));
#481=CARTESIAN_POINT('',(-7.818582731,-3.58744534,7.639117846));
#482=CARTESIAN_POINT('',(-7.81306861,-3.599462993,7.758582463));
#483=CARTESIAN_POINT('',(-7.810301396,-3.605439239,7.877758076));
#484=CARTESIAN_POINT('',(-7.810250394,-3.605549721,7.996652202));
#485=CARTESIAN_POINT('',(-7.810148388,-3.605770686,8.234440454));
#486=CARTESIAN_POINT('',(-7.820928363,-3.582700918,8.471109282));
#487=CARTESIAN_POINT('',(-7.842151345,-3.535627565,8.706638323));
#488=CARTESIAN_POINT('',(-7.863374327,-3.488554212,8.942167364));
#489=CARTESIAN_POINT('',(-7.894294518,-3.419026925,9.168608005));
#490=CARTESIAN_POINT('',(-7.932256353,-3.328559622,9.385889911));
#491=CARTESIAN_POINT('',(-7.970218187,-3.238092318,9.603171817));
#492=CARTESIAN_POINT('',(-8.015780054,-3.125149225,9.813313102));
#493=CARTESIAN_POINT('',(-8.064128435,-2.994967877,10.007527687));
#494=CARTESIAN_POINT('',(-8.112476816,-2.864786529,10.201742273));
#495=CARTESIAN_POINT('',(-8.163750207,-2.717203894,10.381521355));
#496=CARTESIAN_POINT('',(-8.21514075,-2.55175674,10.547260791));
#497=CARTESIAN_POINT('',(-8.240836021,-2.469033163,10.63013051));
#498=CARTESIAN_POINT('',(-8.266614738,-2.381565419,10.709578778));
#499=CARTESIAN_POINT('',(-8.291562503,-2.291285939,10.783883752));
#500=CARTESIAN_POINT('',(-8.316510268,-2.201006458,10.858188727));
#501=CARTESIAN_POINT('',(-8.340758216,-2.107521092,10.927785227));
#502=CARTESIAN_POINT('',(-8.364007077,-2.010817151,10.992760329));
#503=CARTESIAN_POINT('',(-8.4105048,-1.817409268,11.122710532));
#504=CARTESIAN_POINT('',(-8.453104313,-1.610788618,11.234520619));
#505=CARTESIAN_POINT('',(-8.489120766,-1.390981174,11.326435235));
#506=CARTESIAN_POINT('',(-8.525137218,-1.17117373,11.418349851));
#507=CARTESIAN_POINT('',(-8.553398006,-0.945285184,11.487468501));
#508=CARTESIAN_POINT('',(-8.572699597,-0.71331733,11.534286121));
#509=CARTESIAN_POINT('',(-8.582350393,-0.597333403,11.557694931));
#510=CARTESIAN_POINT('',(-8.589760433,-0.479819682,11.575486362));
#511=CARTESIAN_POINT('',(-8.594759203,-0.360713529,11.587462299));
#512=CARTESIAN_POINT('',(-8.599757972,-0.241607376,11.599438237));
#513=CARTESIAN_POINT('',(-8.602325267,-0.120689411,11.605551275));
#514=CARTESIAN_POINT('',(-8.602325267,0.,11.605551275));
#515=B_SPLINE_CURVE_WITH_KNOTS('',3,(#385,#386,#387,#388,#389,#390,#391,#392,#393,#394,#395,#396,#397,#398,#399,#400,#401,#402,#403,#404,#405,#406,#407,#408,#409,#410,
#411,#412,#413,#414,#415,#416,#417,#418,#419,#420,#421,#422,#423,#424,#425,#426,#427,#428,#429,#430,#431,#432,#433,#434,#435,
#436,#437,#438,#439,#440,#441,#442,#443,#444,#445,#446,#447,#448,#449,#450,#451,#452,#453,#454,#455,#456,#457,#458,#459,#460,
#461,#462,#463,#464,#465,#466,#467,#468,#469,#470,#471,#472,#473,#474,#475,#476,#477,#478,#479,#480,#481,#482,#483,#484,#485,
#486,#487,#488,#489,#490,#491,#492,#493,#494,#495,#496,#497,#498,#499,#500,#501,#502,#503,#504,#505,#506,#507,#508,#509,#510,
#511,#512,#513,#514),.UNSPECIFIED.,.T.,.F.,(4,3,3,3,3,3,3,3,3,3,3,3,3,3,3,3,3,3,3,3,3,3,3,3,3,3,
3,3,3,3,3,3,3,3,3,3,3,3,3,3,3,3,3,4),(0.,0.000712575,0.001068863,0.001425151,0.002137726,0.002494014,0.002850302,0.003562877,0.004275452,0.00463174,0.004988028,0.005700603,0.006056891,0.006413179,0.007125754,0.007838329,0.008550905,0.00926348,0.009619768,0.009976056,0.010688631,0.011401206,0.011757494,0.012113782,0.012826357,0.013182645,
0.013538933,0.014251508,0.014964083,0.015320371,0.015676659,0.016389234,0.016745522,0.01710181,0.017814385,0.01852696,0.019239536,0.019952111,0.020308399,0.020664687,0.021377262,0.022089837,0.022446125,0.022802413),.UNSPECIFIED.);
#516=EDGE_CURVE('',#218,#226,#515,.T.);
#517=ORIENTED_EDGE('',*,*,#516,.F.);
#518=ORIENTED_EDGE('',*,*,#223,.F.);
#519=CARTESIAN_POINT('',(8.602325267,-0.,0.));
#520=VERTEX_POINT('',#519);
#521=CARTESIAN_POINT('',(0.,0.,0.));
#522=DIRECTION('',(0.,0.,1.));
#523=DIRECTION('',(1.,0.,-0.));
#524=AXIS2_PLACEMENT_3D('',#521,#522,#523);
#525=CIRCLE('',#524,8.602325267);
#526=EDGE_CURVE('',#216,#520,#525,.T.);
#527=ORIENTED_EDGE('',*,*,#526,.T.);
#528=CARTESIAN_POINT('',(0.,0.,0.));
#529=DIRECTION('',(0.,0.,1.));
#530=DIRECTION('',(1.,0.,-0.));
#531=AXIS2_PLACEMENT_3D('',#528,#529,#530);
#532=CIRCLE('',#531,8.602325267);
#533=EDGE_CURVE('',#520,#216,#532,.T.);
#534=ORIENTED_EDGE('',*,*,#533,.T.);
#535=EDGE_LOOP('',(#224,#359,#367,#376,#383,#384,#517,#518,#527,#534));
#536=FACE_BOUND('',#535,.T.);
#537=CARTESIAN_POINT('',(8.602325267,0.,4.394448725));
#538=VERTEX_POINT('',#537);
#539=CARTESIAN_POINT('',(8.602325267,0.,4.394448725));
#540=CARTESIAN_POINT('',(8.602325267,0.241135082,4.394448725));
#541=CARTESIAN_POINT('',(8.592212538,0.477721925,4.418390951));
#542=CARTESIAN_POINT('',(8.572972968,0.710024285,4.465050847));
#543=CARTESIAN_POINT('',(8.563353184,0.826175465,4.488380795));
#544=CARTESIAN_POINT('',(8.551446828,0.941247999,4.517434644));
#545=CARTESIAN_POINT('',(8.537358327,1.055231161,4.552321477));
#546=CARTESIAN_POINT('',(8.523269825,1.169214323,4.58720831));
#547=CARTESIAN_POINT('',(8.507027456,1.281661963,4.627868634));
#548=CARTESIAN_POINT('',(8.489192345,1.390544258,4.673382098));
#549=CARTESIAN_POINT('',(8.453522123,1.608308849,4.764409026));
#550=CARTESIAN_POINT('',(8.411191791,1.814396917,4.875408941));
#551=CARTESIAN_POINT('',(8.364369114,2.00931066,5.00622802));
#552=CARTESIAN_POINT('',(8.340957775,2.106767532,5.071637559));
#553=CARTESIAN_POINT('',(8.31632872,2.201693302,5.142338206));
#554=CARTESIAN_POINT('',(8.291367126,2.291992841,5.216698216));
#555=CARTESIAN_POINT('',(8.266405532,2.382292379,5.291058226));
#556=CARTESIAN_POINT('',(8.241014109,2.46841498,5.369331312));
#557=CARTESIAN_POINT('',(8.21553045,2.550501798,5.45148267));
#558=CARTESIAN_POINT('',(8.164563132,2.714675432,5.615785386));
#559=CARTESIAN_POINT('',(8.112986035,2.863390833,5.796282309));
#560=CARTESIAN_POINT('',(8.064314651,2.994466432,5.991724425));
#561=CARTESIAN_POINT('',(8.015643267,3.125542032,6.187166541));
#562=CARTESIAN_POINT('',(7.971053292,3.236032535,6.39283009));
#563=CARTESIAN_POINT('',(7.933154326,3.326418861,6.60897967));
#564=CARTESIAN_POINT('',(7.914204843,3.371612025,6.71705446));
#565=CARTESIAN_POINT('',(7.896928077,3.411740682,6.827768429));
#566=CARTESIAN_POINT('',(7.881680759,3.446608248,6.941278326));
#567=CARTESIAN_POINT('',(7.866433441,3.481475814,7.054788223));
#568=CARTESIAN_POINT('',(7.853215765,3.511077412,7.171455466));
#569=CARTESIAN_POINT('',(7.842630171,3.53456532,7.288067421));
#570=CARTESIAN_POINT('',(7.821458983,3.581541137,7.52129133));
#571=CARTESIAN_POINT('',(7.810395408,3.60523559,7.757010131));
#572=CARTESIAN_POINT('',(7.810251111,3.605548167,7.995265673));
#573=CARTESIAN_POINT('',(7.810178962,3.605704456,8.114393444));
#574=CARTESIAN_POINT('',(7.812867054,3.599899581,8.23481713));
#575=CARTESIAN_POINT('',(7.818281855,3.588101008,8.354303767));
#576=CARTESIAN_POINT('',(7.823696655,3.576302434,8.473790405));
#577=CARTESIAN_POINT('',(7.831769579,3.558656949,8.591619024));
#578=CARTESIAN_POINT('',(7.842262048,3.535382012,8.707865829));
#579=CARTESIAN_POINT('',(7.863246987,3.488832137,8.940359441));
#580=CARTESIAN_POINT('',(7.894025181,3.419676646,9.167169852));
#581=CARTESIAN_POINT('',(7.932369598,3.328289735,9.386537932));
#582=CARTESIAN_POINT('',(7.970714015,3.236902825,9.605906013));
#583=CARTESIAN_POINT('',(8.015490528,3.125878073,9.81200956));
#584=CARTESIAN_POINT('',(8.063746245,2.995996746,10.005991898));
#585=CARTESIAN_POINT('',(8.112001961,2.866115419,10.199974237));
#586=CARTESIAN_POINT('',(8.164235874,2.7156845,10.383123458));
#587=CARTESIAN_POINT('',(8.215334184,2.551133914,10.547884564));
#588=CARTESIAN_POINT('',(8.266432494,2.386583328,10.71264567));
#589=CARTESIAN_POINT('',(8.316704529,2.207373123,10.860511418));
#590=CARTESIAN_POINT('',(8.363541055,2.012754584,10.991457669));
#591=CARTESIAN_POINT('',(8.386959319,1.915445315,11.056930794));
#592=CARTESIAN_POINT('',(8.409616965,1.813708268,11.118386682));
#593=CARTESIAN_POINT('',(8.43064979,1.7100129,11.174248869));
#594=CARTESIAN_POINT('',(8.451682615,1.606317533,11.230111055));
#595=CARTESIAN_POINT('',(8.471183205,1.500360666,11.280652545));
#596=CARTESIAN_POINT('',(8.488930973,1.392138978,11.325950851));
#597=CARTESIAN_POINT('',(8.524426509,1.175695602,11.416547464));
#598=CARTESIAN_POINT('',(8.552936528,0.950263252,11.486345318));
#599=CARTESIAN_POINT('',(8.572557599,0.715021827,11.533941678));
#600=CARTESIAN_POINT('',(8.59217867,0.479780403,11.581538039));
#601=CARTESIAN_POINT('',(8.602193512,0.242245068,11.605236927));
#602=CARTESIAN_POINT('',(8.602323969,0.004724807,11.60554818));
#603=CARTESIAN_POINT('',(8.602389198,-0.114035324,11.605703806));
#604=CARTESIAN_POINT('',(8.599996329,-0.232978887,11.600006903));
#605=CARTESIAN_POINT('',(8.595115972,-0.352109957,11.588316956));
#606=CARTESIAN_POINT('',(8.590235615,-0.471241028,11.576627009));
#607=CARTESIAN_POINT('',(8.582814335,-0.590805371,11.558813874));
#608=CARTESIAN_POINT('',(8.573166775,-0.70768033,11.535419148));
#609=CARTESIAN_POINT('',(8.553871655,-0.941430247,11.488629695));
#610=CARTESIAN_POINT('',(8.525621454,-1.167381773,11.419535557));
#611=CARTESIAN_POINT('',(8.489959456,-1.385852963,11.328575005));
#612=CARTESIAN_POINT('',(8.472128457,-1.495088558,11.283094729));
#613=CARTESIAN_POINT('',(8.452333124,-1.602902783,11.231812142));
#614=CARTESIAN_POINT('',(8.431304971,-1.706779565,11.175988589));
#615=CARTESIAN_POINT('',(8.410276818,-1.810656347,11.120165036));
#616=CARTESIAN_POINT('',(8.387968391,-1.911002407,11.059689721));
#617=CARTESIAN_POINT('',(8.36469128,-2.007969073,10.994671969));
#618=CARTESIAN_POINT('',(8.318137056,-2.201902404,10.864636465));
#619=CARTESIAN_POINT('',(8.267388072,-2.383372707,10.715615571));
#620=CARTESIAN_POINT('',(8.215913047,-2.549269071,10.54975042));
#621=CARTESIAN_POINT('',(8.164438023,-2.715165435,10.383885268));
#622=CARTESIAN_POINT('',(8.113202176,-2.862718533,10.204345193));
#623=CARTESIAN_POINT('',(8.06498206,-2.992668438,10.010953908));
#624=CARTESIAN_POINT('',(8.040872001,-3.05764339,9.914258266));
#625=CARTESIAN_POINT('',(8.017516182,-3.118182161,9.814073483));
#626=CARTESIAN_POINT('',(7.995297334,-3.17414879,9.71019866));
#627=CARTESIAN_POINT('',(7.973078486,-3.230115419,9.606323837));
#628=CARTESIAN_POINT('',(7.952087668,-3.281268348,9.499045248));
#629=CARTESIAN_POINT('',(7.933052198,-3.326662416,9.390437763));
#630=CARTESIAN_POINT('',(7.894981258,-3.417450551,9.173222793));
#631=CARTESIAN_POINT('',(7.86421649,-3.486655725,8.948479496));
#632=CARTESIAN_POINT('',(7.842979325,-3.533790501,8.715768605));
#633=CARTESIAN_POINT('',(7.832360743,-3.557357889,8.599413159));
#634=CARTESIAN_POINT('',(7.824096853,-3.575427688,8.480346771));
#635=CARTESIAN_POINT('',(7.818582731,-3.58744534,8.360882154));
#636=CARTESIAN_POINT('',(7.81306861,-3.599462993,8.241417537));
#637=CARTESIAN_POINT('',(7.810301396,-3.605439239,8.122241924));
#638=CARTESIAN_POINT('',(7.810250394,-3.605549721,8.003347798));
#639=CARTESIAN_POINT('',(7.810148388,-3.605770686,7.765559546));
#640=CARTESIAN_POINT('',(7.820928363,-3.582700918,7.528890718));
#641=CARTESIAN_POINT('',(7.842151345,-3.535627565,7.293361677));
#642=CARTESIAN_POINT('',(7.863374327,-3.488554212,7.057832636));
#643=CARTESIAN_POINT('',(7.894294518,-3.419026925,6.831391995));
#644=CARTESIAN_POINT('',(7.932256353,-3.328559622,6.614110089));
#645=CARTESIAN_POINT('',(7.970218187,-3.238092318,6.396828183));
#646=CARTESIAN_POINT('',(8.015780054,-3.125149225,6.186686898));
#647=CARTESIAN_POINT('',(8.064128435,-2.994967877,5.992472313));
#648=CARTESIAN_POINT('',(8.112476816,-2.864786529,5.798257727));
#649=CARTESIAN_POINT('',(8.163750207,-2.717203894,5.618478645));
#650=CARTESIAN_POINT('',(8.21514075,-2.55175674,5.452739209));
#651=CARTESIAN_POINT('',(8.240836021,-2.469033163,5.36986949));
#652=CARTESIAN_POINT('',(8.266614738,-2.381565419,5.290421222));
#653=CARTESIAN_POINT('',(8.291562503,-2.291285939,5.216116248));
#654=CARTESIAN_POINT('',(8.316510268,-2.201006458,5.141811273));
#655=CARTESIAN_POINT('',(8.340758216,-2.107521092,5.072214773));
#656=CARTESIAN_POINT('',(8.364007077,-2.010817151,5.007239671));
#657=CARTESIAN_POINT('',(8.4105048,-1.817409268,4.877289468));
#658=CARTESIAN_POINT('',(8.453104313,-1.610788618,4.765479381));
#659=CARTESIAN_POINT('',(8.489120766,-1.390981174,4.673564765));
#660=CARTESIAN_POINT('',(8.525137218,-1.17117373,4.581650149));
#661=CARTESIAN_POINT('',(8.553398006,-0.945285184,4.512531499));
#662=CARTESIAN_POINT('',(8.572699597,-0.71331733,4.465713879));
#663=CARTESIAN_POINT('',(8.582350393,-0.597333403,4.442305069));
#664=CARTESIAN_POINT('',(8.589760433,-0.479819682,4.424513638));
#665=CARTESIAN_POINT('',(8.594759203,-0.360713529,4.412537701));
#666=CARTESIAN_POINT('',(8.599757972,-0.241607376,4.400561763));
#667=CARTESIAN_POINT('',(8.602325267,-0.120689411,4.394448725));
#668=CARTESIAN_POINT('',(8.602325267,0.,4.394448725));
#669=B_SPLINE_CURVE_WITH_KNOTS('',3,(#539,#540,#541,#542,#543,#544,#545,#546,#547,#548,#549,#550,#551,#552,#553,#554,#555,#556,#557,#558,#559,#560,#561,#562,#563,#564,
#565,#566,#567,#568,#569,#570,#571,#572,#573,#574,#575,#576,#577,#578,#579,#580,#581,#582,#583,#584,#585,#586,#587,#588,#589,
#590,#591,#592,#593,#594,#595,#596,#597,#598,#599,#600,#601,#602,#603,#604,#605,#606,#607,#608,#609,#610,#611,#612,#613,#614,
#615,#616,#617,#618,#619,#620,#621,#622,#623,#624,#625,#626,#627,#628,#629,#630,#631,#632,#633,#634,#635,#636,#637,#638,#639,
#640,#641,#642,#643,#644,#645,#646,#647,#648,#649,#650,#651,#652,#653,#654,#655,#656,#657,#658,#659,#660,#661,#662,#663,#664,
#665,#666,#667,#668),.UNSPECIFIED.,.T.,.F.,(4,3,3,3,3,3,3,3,3,3,3,3,3,3,3,3,3,3,3,3,3,3,3,3,3,3,
3,3,3,3,3,3,3,3,3,3,3,3,3,3,3,3,3,4),(0.,0.000712575,0.001068863,0.001425151,0.002137726,0.002494014,0.002850302,0.003562877,0.004275452,0.00463174,0.004988028,0.005700603,0.006056891,0.006413179,0.007125754,0.007838329,0.008550905,0.00926348,0.009619768,0.009976056,0.010688631,0.011401206,0.011757494,0.012113782,0.012826357,0.013182645,
0.013538933,0.014251508,0.014964083,0.015320371,0.015676659,0.016389234,0.016745522,0.01710181,0.017814385,0.01852696,0.019239536,0.019952111,0.020308399,0.020664687,0.021377262,0.022089837,0.022446125,0.022802413),.UNSPECIFIED.);
#670=EDGE_CURVE('',#538,#538,#669,.T.);
#671=ORIENTED_EDGE('',*,*,#670,.F.);
#672=EDGE_LOOP('',(#671));
#673=FACE_BOUND('',#672,.T.);
#674=ADVANCED_FACE('',(#536,#673),#214,.T.);
#675=CARTESIAN_POINT('',(0.,0.,15.6));
#676=DIRECTION('',(0.,0.,1.));
#677=DIRECTION('',(1.,0.,0.));
#678=AXIS2_PLACEMENT_3D('',#675,#676,#677);
#679=PLANE('',#678);
#680=CARTESIAN_POINT('',(6.1,0.2,15.6));
#681=VERTEX_POINT('',#680);
#682=CARTESIAN_POINT('',(5.6,0.2,15.6));
#683=VERTEX_POINT('',#682);
#684=CARTESIAN_POINT('',(6.1,0.2,15.6));
#685=DIRECTION('',(-1.,0.,0.));
#686=VECTOR('',#685,0.5);
#687=LINE('',#684,#686);
#688=EDGE_CURVE('',#681,#683,#687,.T.);
#689=ORIENTED_EDGE('',*,*,#688,.F.);
#690=CARTESIAN_POINT('',(6.1,-0.3,15.6));
#691=VERTEX_POINT('',#690);
#692=CARTESIAN_POINT('',(6.1,-0.3,15.6));
#693=DIRECTION('',(0.,1.,0.));
#694=VECTOR('',#693,0.5);
#695=LINE('',#692,#694);
#696=EDGE_CURVE('',#691,#681,#695,.T.);
#697=ORIENTED_EDGE('',*,*,#696,.F.);
#698=CARTESIAN_POINT('',(5.6,-0.3,15.6));
#699=VERTEX_POINT('',#698);
#700=CARTESIAN_POINT('',(5.6,-0.3,15.6));
#701=DIRECTION('',(1.,0.,-0.));
#702=VECTOR('',#701,0.5);
#703=LINE('',#700,#702);
#704=EDGE_CURVE('',#699,#691,#703,.T.);
#705=ORIENTED_EDGE('',*,*,#704,.F.);
#706=CARTESIAN_POINT('',(5.6,0.2,15.6));
#707=DIRECTION('',(0.,-1.,0.));
#708=VECTOR('',#707,0.5);
#709=LINE('',#706,#708);
#710=EDGE_CURVE('',#683,#699,#709,.T.);
#711=ORIENTED_EDGE('',*,*,#710,.F.);
#712=EDGE_LOOP('',(#689,#697,#705,#711));
#713=FACE_BOUND('',#712,.T.);
#714=ORIENTED_EDGE('',*,*,#375,.T.);
#715=ORIENTED_EDGE('',*,*,#382,.T.);
#716=EDGE_LOOP('',(#714,#715));
#717=FACE_BOUND('',#716,.T.);
#718=ADVANCED_FACE('',(#713,#717),#679,.T.);
#719=CARTESIAN_POINT('',(0.,0.,0.));
#720=DIRECTION('',(0.,0.,1.));
#721=DIRECTION('',(1.,0.,0.));
#722=AXIS2_PLACEMENT_3D('',#719,#720,#721);
#723=PLANE('',#722);
#724=ORIENTED_EDGE('',*,*,#526,.F.);
#725=ORIENTED_EDGE('',*,*,#533,.F.);
#726=EDGE_LOOP('',(#724,#725));
#727=FACE_BOUND('',#726,.T.);
#728=ADVANCED_FACE('',(#727),#723,.F.);
#729=CARTESIAN_POINT('',(-11.,0.,8.));
#730=DIRECTION('',(1.,0.,-0.));
#731=DIRECTION('',(-0.,0.,-1.));
#732=AXIS2_PLACEMENT_3D('',#729,#730,#731);
#733=CYLINDRICAL_SURFACE('',#732,3.605551275);
#734=CARTESIAN_POINT('',(5.,0.,4.394448725));
#735=VERTEX_POINT('',#734);
#736=CARTESIAN_POINT('',(5.,0.,4.394448725));
#737=DIRECTION('',(-1.,-0.,0.));
#738=VECTOR('',#737,13.602325268);
#739=LINE('',#736,#738);
#740=EDGE_CURVE('',#735,#218,#739,.T.);
#741=ORIENTED_EDGE('',*,*,#740,.F.);
#742=CARTESIAN_POINT('',(5.,0.959704479,4.524519125));
#743=VERTEX_POINT('',#742);
#744=CARTESIAN_POINT('',(5.,0.,8.));
#745=DIRECTION('',(1.,-0.,-0.));
#746=DIRECTION('',(0.,0.,1.));
#747=AXIS2_PLACEMENT_3D('',#744,#745,#746);
#748=CIRCLE('',#747,3.605551275);
#749=EDGE_CURVE('',#735,#743,#748,.T.);
#750=ORIENTED_EDGE('',*,*,#749,.T.);
#751=CARTESIAN_POINT('',(6.7,0.959704479,4.524519125));
#752=VERTEX_POINT('',#751);
#753=CARTESIAN_POINT('',(5.,0.959704479,4.524519125));
#754=DIRECTION('',(1.,0.,-0.));
#755=VECTOR('',#754,1.7);
#756=LINE('',#753,#755);
#757=EDGE_CURVE('',#743,#752,#756,.T.);
#758=ORIENTED_EDGE('',*,*,#757,.T.);
#759=CARTESIAN_POINT('',(6.7,-0.,4.394448725));
#760=VERTEX_POINT('',#759);
#761=CARTESIAN_POINT('',(6.7,0.,8.));
#762=DIRECTION('',(-1.,-0.,-0.));
#763=DIRECTION('',(0.,0.,-1.));
#764=AXIS2_PLACEMENT_3D('',#761,#762,#763);
#765=CIRCLE('',#764,3.605551275);
#766=EDGE_CURVE('',#752,#760,#765,.T.);
#767=ORIENTED_EDGE('',*,*,#766,.T.);
#768=CARTESIAN_POINT('',(8.602325267,0.,4.394448725));
#769=DIRECTION('',(-1.,-0.,0.));
#770=VECTOR('',#769,1.902325267);
#771=LINE('',#768,#770);
#772=EDGE_CURVE('',#538,#760,#771,.T.);
#773=ORIENTED_EDGE('',*,*,#772,.F.);
#774=ORIENTED_EDGE('',*,*,#670,.T.);
#775=ORIENTED_EDGE('',*,*,#772,.T.);
#776=CARTESIAN_POINT('',(6.7,-1.079667539,4.55989564));
#777=VERTEX_POINT('',#776);
#778=CARTESIAN_POINT('',(6.7,0.,8.));
#779=DIRECTION('',(-1.,-0.,-0.));
#780=DIRECTION('',(0.,0.,-1.));
#781=AXIS2_PLACEMENT_3D('',#778,#779,#780);
#782=CIRCLE('',#781,3.605551275);
#783=EDGE_CURVE('',#760,#777,#782,.T.);
#784=ORIENTED_EDGE('',*,*,#783,.T.);
#785=CARTESIAN_POINT('',(5.,-1.079667539,4.55989564));
#786=VERTEX_POINT('',#785);
#787=CARTESIAN_POINT('',(6.7,-1.079667539,4.55989564));
#788=DIRECTION('',(-1.,-0.,0.));
#789=VECTOR('',#788,1.7);
#790=LINE('',#787,#789);
#791=EDGE_CURVE('',#777,#786,#790,.T.);
#792=ORIENTED_EDGE('',*,*,#791,.T.);
#793=CARTESIAN_POINT('',(5.,0.,8.));
#794=DIRECTION('',(1.,-0.,-0.));
#795=DIRECTION('',(0.,0.,1.));
#796=AXIS2_PLACEMENT_3D('',#793,#794,#795);
#797=CIRCLE('',#796,3.605551275);
#798=EDGE_CURVE('',#786,#735,#797,.T.);
#799=ORIENTED_EDGE('',*,*,#798,.T.);
#800=ORIENTED_EDGE('',*,*,#740,.T.);
#801=ORIENTED_EDGE('',*,*,#516,.T.);
#802=ORIENTED_EDGE('',*,*,#358,.T.);
#803=EDGE_LOOP('',(#741,#750,#758,#767,#773,#774,#775,#784,#792,#799,#800,#801,#802));
#804=FACE_BOUND('',#803,.T.);
#805=ADVANCED_FACE('',(#804),#733,.F.);
#806=CARTESIAN_POINT('',(5.85,0.2,19.4));
#807=DIRECTION('',(0.,1.,0.));
#808=DIRECTION('',(0.,0.,1.));
#809=AXIS2_PLACEMENT_3D('',#806,#807,#808);
#810=PLANE('',#809);
#811=ORIENTED_EDGE('',*,*,#688,.T.);
#812=CARTESIAN_POINT('',(5.6,0.2,13.6));
#813=VERTEX_POINT('',#812);
#814=CARTESIAN_POINT('',(5.6,0.2,15.6));
#815=DIRECTION('',(0.,0.,-1.));
#816=VECTOR('',#815,2.);
#817=LINE('',#814,#816);
#818=EDGE_CURVE('',#683,#813,#817,.T.);
#819=ORIENTED_EDGE('',*,*,#818,.T.);
#820=CARTESIAN_POINT('',(6.1,0.2,13.6));
#821=VERTEX_POINT('',#820);
#822=CARTESIAN_POINT('',(5.6,0.2,13.6));
#823=DIRECTION('',(1.,0.,-0.));
#824=VECTOR('',#823,0.5);
#825=LINE('',#822,#824);
#826=EDGE_CURVE('',#813,#821,#825,.T.);
#827=ORIENTED_EDGE('',*,*,#826,.T.);
#828=CARTESIAN_POINT('',(6.1,0.2,15.6));
#829=DIRECTION('',(0.,0.,-1.));
#830=VECTOR('',#829,2.);
#831=LINE('',#828,#830);
#832=EDGE_CURVE('',#681,#821,#831,.T.);
#833=ORIENTED_EDGE('',*,*,#832,.F.);
#834=EDGE_LOOP('',(#811,#819,#827,#833));
#835=FACE_BOUND('',#834,.T.);
#836=ADVANCED_FACE('',(#835),#810,.F.);
#837=CARTESIAN_POINT('',(5.6,-0.05,19.4));
#838=DIRECTION('',(-1.,0.,0.));
#839=DIRECTION('',(0.,0.,1.));
#840=AXIS2_PLACEMENT_3D('',#837,#838,#839);
#841=PLANE('',#840);
#842=ORIENTED_EDGE('',*,*,#710,.T.);
#843=CARTESIAN_POINT('',(5.6,-0.3,13.6));
#844=VERTEX_POINT('',#843);
#845=CARTESIAN_POINT('',(5.6,-0.3,15.6));
#846=DIRECTION('',(0.,0.,-1.));
#847=VECTOR('',#846,2.);
#848=LINE('',#845,#847);
#849=EDGE_CURVE('',#699,#844,#848,.T.);
#850=ORIENTED_EDGE('',*,*,#849,.T.);
#851=CARTESIAN_POINT('',(5.6,-0.3,13.6));
#852=DIRECTION('',(0.,1.,0.));
#853=VECTOR('',#852,0.5);
#854=LINE('',#851,#853);
#855=EDGE_CURVE('',#844,#813,#854,.T.);
#856=ORIENTED_EDGE('',*,*,#855,.T.);
#857=ORIENTED_EDGE('',*,*,#818,.F.);
#858=EDGE_LOOP('',(#842,#850,#856,#857));
#859=FACE_BOUND('',#858,.T.);
#860=ADVANCED_FACE('',(#859),#841,.F.);
#861=CARTESIAN_POINT('',(5.85,-0.3,19.4));
#862=DIRECTION('',(0.,-1.,0.));
#863=DIRECTION('',(0.,0.,-1.));
#864=AXIS2_PLACEMENT_3D('',#861,#862,#863);
#865=PLANE('',#864);
#866=ORIENTED_EDGE('',*,*,#704,.T.);
#867=CARTESIAN_POINT('',(6.1,-0.3,13.6));
#868=VERTEX_POINT('',#867);
#869=CARTESIAN_POINT('',(6.1,-0.3,15.6));
#870=DIRECTION('',(0.,0.,-1.));
#871=VECTOR('',#870,2.);
#872=LINE('',#869,#871);
#873=EDGE_CURVE('',#691,#868,#872,.T.);
#874=ORIENTED_EDGE('',*,*,#873,.T.);
#875=CARTESIAN_POINT('',(6.1,-0.3,13.6));
#876=DIRECTION('',(-1.,0.,0.));
#877=VECTOR('',#876,0.5);
#878=LINE('',#875,#877);
#879=EDGE_CURVE('',#868,#844,#878,.T.);
#880=ORIENTED_EDGE('',*,*,#879,.T.);
#881=ORIENTED_EDGE('',*,*,#849,.F.);
#882=EDGE_LOOP('',(#866,#874,#880,#881));
#883=FACE_BOUND('',#882,.T.);
#884=ADVANCED_FACE('',(#883),#865,.F.);
#885=CARTESIAN_POINT('',(6.1,-0.05,19.4));
#886=DIRECTION('',(1.,0.,0.));
#887=DIRECTION('',(0.,0.,-1.));
#888=AXIS2_PLACEMENT_3D('',#885,#886,#887);
#889=PLANE('',#888);
#890=ORIENTED_EDGE('',*,*,#696,.T.);
#891=ORIENTED_EDGE('',*,*,#832,.T.);
#892=CARTESIAN_POINT('',(6.1,0.2,13.6));
#893=DIRECTION('',(0.,-1.,0.));
#894=VECTOR('',#893,0.5);
#895=LINE('',#892,#894);
#896=EDGE_CURVE('',#821,#868,#895,.T.);
#897=ORIENTED_EDGE('',*,*,#896,.T.);
#898=ORIENTED_EDGE('',*,*,#873,.F.);
#899=EDGE_LOOP('',(#890,#891,#897,#898));
#900=FACE_BOUND('',#899,.T.);
#901=ADVANCED_FACE('',(#900),#889,.F.);
#902=CARTESIAN_POINT('',(-8.9,0.2,13.6));
#903=DIRECTION('',(0.,0.,1.));
#904=DIRECTION('',(0.,1.,0.));
#905=AXIS2_PLACEMENT_3D('',#902,#903,#904);
#906=PLANE('',#905);
#907=ORIENTED_EDGE('',*,*,#826,.F.);
#908=ORIENTED_EDGE('',*,*,#855,.F.);
#909=ORIENTED_EDGE('',*,*,#879,.F.);
#910=ORIENTED_EDGE('',*,*,#896,.F.);
#911=EDGE_LOOP('',(#907,#908,#909,#910));
#912=FACE_BOUND('',#911,.T.);
#913=ADVANCED_FACE('',(#912),#906,.T.);
#914=CARTESIAN_POINT('',(-11.,-0.9,5.132363609));
#915=DIRECTION('',(1.,0.,-0.));
#916=DIRECTION('',(-0.,0.,-1.));
#917=AXIS2_PLACEMENT_3D('',#914,#915,#916);
#918=CYLINDRICAL_SURFACE('',#917,0.6);
#919=CARTESIAN_POINT('',(6.535377287,-0.899999975,4.532338877));
#920=VERTEX_POINT('',#919);
#921=CARTESIAN_POINT('',(5.164622517,-0.899999975,4.532338847));
#922=VERTEX_POINT('',#921);
#923=CARTESIAN_POINT('',(6.535377287,-0.9,4.532363609));
#924=DIRECTION('',(-1.,-0.,0.));
#925=VECTOR('',#924,1.37075477);
#926=LINE('',#923,#925);
#927=EDGE_CURVE('',#920,#922,#926,.T.);
#928=ORIENTED_EDGE('',*,*,#927,.F.);
#929=CARTESIAN_POINT('',(6.1,-0.312457377,5.010734395));
#930=CARTESIAN_POINT('',(6.1,-0.332919696,4.911889023));
#931=CARTESIAN_POINT('',(6.125490747,-0.378035551,4.822552448));
#932=CARTESIAN_POINT('',(6.16520672,-0.436301899,4.751595871));
#933=CARTESIAN_POINT('',(6.204922693,-0.494568246,4.680639294));
#934=CARTESIAN_POINT('',(6.257612627,-0.564361683,4.628458853));
#935=CARTESIAN_POINT('',(6.315461734,-0.637247961,4.592955261));
#936=CARTESIAN_POINT('',(6.373310841,-0.710134239,4.557451669));
#937=CARTESIAN_POINT('',(6.436080109,-0.785762675,4.5385448));
#938=CARTESIAN_POINT('',(6.501229328,-0.86090819,4.533638438));
#939=CARTESIAN_POINT('',(6.566378547,-0.936053705,4.528732077));
#940=CARTESIAN_POINT('',(6.632521159,-1.009152344,4.537764635));
#941=CARTESIAN_POINT('',(6.7,-1.079667539,4.55989564));
#942=B_SPLINE_CURVE_WITH_KNOTS('',3,(#929,#930,#931,#932,#933,#934,#935,#936,#937,#938,#939,#940,#941),.UNSPECIFIED.,.F.,.F.,(4,3,3,3,4),(0.,0.000297535,0.000595069,0.000892604,0.001190139),.UNSPECIFIED.);
#943=EDGE_CURVE('',#94,#920,#942,.T.);
#944=ORIENTED_EDGE('',*,*,#943,.F.);
#945=ORIENTED_EDGE('',*,*,#100,.F.);
#946=ORIENTED_EDGE('',*,*,#186,.F.);
#947=ORIENTED_EDGE('',*,*,#59,.F.);
#948=CARTESIAN_POINT('',(5.,-1.079667539,4.55989564));
#949=CARTESIAN_POINT('',(5.06747737,-1.009151062,4.537764233));
#950=CARTESIAN_POINT('',(5.133621453,-0.936053705,4.528732077));
#951=CARTESIAN_POINT('',(5.198770672,-0.86090819,4.533638438));
#952=CARTESIAN_POINT('',(5.263919891,-0.785762675,4.5385448));
#953=CARTESIAN_POINT('',(5.326689159,-0.710134239,4.557451669));
#954=CARTESIAN_POINT('',(5.384538266,-0.637247961,4.592955261));
#955=CARTESIAN_POINT('',(5.442387373,-0.564361683,4.628458853));
#956=CARTESIAN_POINT('',(5.495077307,-0.494568246,4.680639294));
#957=CARTESIAN_POINT('',(5.53479328,-0.436301899,4.751595871));
#958=CARTESIAN_POINT('',(5.574509253,-0.378035551,4.822552448));
#959=CARTESIAN_POINT('',(5.6,-0.332919696,4.911889023));
#960=CARTESIAN_POINT('',(5.6,-0.312457377,5.010734395));
#961=B_SPLINE_CURVE_WITH_KNOTS('',3,(#948,#949,#950,#951,#952,#953,#954,#955,#956,#957,#958,#959,#960),.UNSPECIFIED.,.F.,.F.,(4,3,3,3,4),(0.,0.000297535,0.000595069,0.000892604,0.001190139),.UNSPECIFIED.);
#962=EDGE_CURVE('',#922,#44,#961,.T.);
#963=ORIENTED_EDGE('',*,*,#962,.F.);
#964=EDGE_LOOP('',(#928,#944,#945,#946,#947,#963));
#965=FACE_BOUND('',#964,.T.);
#966=ADVANCED_FACE('',(#965),#918,.F.);
#967=CARTESIAN_POINT('',(5.,0.,8.));
#968=DIRECTION('',(-1.,0.,0.));
#969=DIRECTION('',(0.,0.,1.));
#970=AXIS2_PLACEMENT_3D('',#967,#968,#969);
#971=TOROIDAL_SURFACE('',#970,3.005551275,0.6);
#972=ORIENTED_EDGE('',*,*,#50,.F.);
#973=CARTESIAN_POINT('',(5.146225458,0.799999956,4.502828367));
#974=VERTEX_POINT('',#973);
#975=CARTESIAN_POINT('',(5.,0.959704479,4.524519125));
#976=CARTESIAN_POINT('',(5.067478841,0.888464137,4.504847121));
#977=CARTESIAN_POINT('',(5.133621453,0.8150962,4.498355284));
#978=CARTESIAN_POINT('',(5.198770672,0.740166063,4.505864973));
#979=CARTESIAN_POINT('',(5.263919891,0.665235926,4.513374662));
#980=CARTESIAN_POINT('',(5.326689159,0.590308741,4.534893185));
#981=CARTESIAN_POINT('',(5.384538266,0.518697689,4.572903339));
#982=CARTESIAN_POINT('',(5.442387373,0.447086637,4.610913493));
#983=CARTESIAN_POINT('',(5.495077307,0.37914497,4.665483192));
#984=CARTESIAN_POINT('',(5.53479328,0.323374672,4.738417937));
#985=CARTESIAN_POINT('',(5.574509253,0.267604373,4.811352681));
#986=CARTESIAN_POINT('',(5.6,0.225614132,4.902200266));
#987=CARTESIAN_POINT('',(5.6,0.208592387,5.001695865));
#988=B_SPLINE_CURVE_WITH_KNOTS('',3,(#975,#976,#977,#978,#979,#980,#981,#982,#983,#984,#985,#986,#987),.UNSPECIFIED.,.F.,.F.,(4,3,3,3,4),(0.,0.000297535,0.000595069,0.000892604,0.001190139),.UNSPECIFIED.);
#989=EDGE_CURVE('',#974,#35,#988,.T.);
#990=ORIENTED_EDGE('',*,*,#989,.F.);
#991=CARTESIAN_POINT('',(5.,0.959704479,4.524519125));
#992=CARTESIAN_POINT('',(5.067478841,0.888464137,4.504847121));
#993=CARTESIAN_POINT('',(5.133621453,0.8150962,4.498355284));
#994=CARTESIAN_POINT('',(5.198770672,0.740166063,4.505864973));
#995=CARTESIAN_POINT('',(5.263919891,0.665235926,4.513374662));
#996=CARTESIAN_POINT('',(5.326689159,0.590308741,4.534893185));
#997=CARTESIAN_POINT('',(5.384538266,0.518697689,4.572903339));
#998=CARTESIAN_POINT('',(5.442387373,0.447086637,4.610913493));
#999=CARTESIAN_POINT('',(5.495077307,0.37914497,4.665483192));
#1000=CARTESIAN_POINT('',(5.53479328,0.323374672,4.738417937));
#1001=CARTESIAN_POINT('',(5.574509253,0.267604373,4.811352681));
#1002=CARTESIAN_POINT('',(5.6,0.225614132,4.902200266));
#1003=CARTESIAN_POINT('',(5.6,0.208592387,5.001695865));
#1004=B_SPLINE_CURVE_WITH_KNOTS('',3,(#991,#992,#993,#994,#995,#996,#997,#998,#999,#1000,#1001,#1002,#1003),.UNSPECIFIED.,.F.,.F.,(4,3,3,3,4),(0.,0.000297535,0.000595069,0.000892604,0.001190139),.UNSPECIFIED.);
#1005=EDGE_CURVE('',#743,#974,#1004,.T.);
#1006=ORIENTED_EDGE('',*,*,#1005,.F.);
#1007=ORIENTED_EDGE('',*,*,#749,.F.);
#1008=ORIENTED_EDGE('',*,*,#798,.F.);
#1009=CARTESIAN_POINT('',(5.,-1.079667539,4.55989564));
#1010=CARTESIAN_POINT('',(5.06747737,-1.009151062,4.537764233));
#1011=CARTESIAN_POINT('',(5.133621453,-0.936053705,4.528732077));
#1012=CARTESIAN_POINT('',(5.198770672,-0.86090819,4.533638438));
#1013=CARTESIAN_POINT('',(5.263919891,-0.785762675,4.5385448));
#1014=CARTESIAN_POINT('',(5.326689159,-0.710134239,4.557451669));
#1015=CARTESIAN_POINT('',(5.384538266,-0.637247961,4.592955261));
#1016=CARTESIAN_POINT('',(5.442387373,-0.564361683,4.628458853));
#1017=CARTESIAN_POINT('',(5.495077307,-0.494568246,4.680639294));
#1018=CARTESIAN_POINT('',(5.53479328,-0.436301899,4.751595871));
#1019=CARTESIAN_POINT('',(5.574509253,-0.378035551,4.822552448));
#1020=CARTESIAN_POINT('',(5.6,-0.332919696,4.911889023));
#1021=CARTESIAN_POINT('',(5.6,-0.312457377,5.010734395));
#1022=B_SPLINE_CURVE_WITH_KNOTS('',3,(#1009,#1010,#1011,#1012,#1013,#1014,#1015,#1016,#1017,#1018,#1019,#1020,#1021),.UNSPECIFIED.,.F.,.F.,(4,3,3,3,4),(0.,0.000297535,0.000595069,0.000892604,0.001190139),.UNSPECIFIED.);
#1023=EDGE_CURVE('',#786,#922,#1022,.T.);
#1024=ORIENTED_EDGE('',*,*,#1023,.T.);
#1025=ORIENTED_EDGE('',*,*,#962,.T.);
#1026=EDGE_LOOP('',(#972,#990,#1006,#1007,#1008,#1024,#1025));
#1027=FACE_BOUND('',#1026,.T.);
#1028=ADVANCED_FACE('',(#1027),#971,.F.);
#1029=CARTESIAN_POINT('',(6.7,0.,8.));
#1030=DIRECTION('',(1.,0.,0.));
#1031=DIRECTION('',(0.,0.,-1.));
#1032=AXIS2_PLACEMENT_3D('',#1029,#1030,#1031);
#1033=TOROIDAL_SURFACE('',#1032,3.005551275,0.6);
#1034=CARTESIAN_POINT('',(6.7,0.,4.994448725));
#1035=DIRECTION('',(-0.,1.,-0.));
#1036=DIRECTION('',(0.,0.,-1.));
#1037=AXIS2_PLACEMENT_3D('',#1034,#1035,#1036);
#1038=CIRCLE('',#1037,0.6);
#1039=EDGE_CURVE('',#760,#103,#1038,.T.);
#1040=ORIENTED_EDGE('',*,*,#1039,.F.);
#1041=ORIENTED_EDGE('',*,*,#766,.F.);
#1042=CARTESIAN_POINT('',(6.553774954,0.799999956,4.50282831));
#1043=VERTEX_POINT('',#1042);
#1044=CARTESIAN_POINT('',(6.1,0.208592387,5.001695865));
#1045=CARTESIAN_POINT('',(6.1,0.225614132,4.902200266));
#1046=CARTESIAN_POINT('',(6.125490747,0.267604373,4.811352681));
#1047=CARTESIAN_POINT('',(6.16520672,0.323374672,4.738417937));
#1048=CARTESIAN_POINT('',(6.204922693,0.37914497,4.665483192));
#1049=CARTESIAN_POINT('',(6.257612627,0.447086637,4.610913493));
#1050=CARTESIAN_POINT('',(6.315461734,0.518697689,4.572903339));
#1051=CARTESIAN_POINT('',(6.373310841,0.590308741,4.534893185));
#1052=CARTESIAN_POINT('',(6.436080109,0.665235926,4.513374662));
#1053=CARTESIAN_POINT('',(6.501229328,0.740166063,4.505864973));
#1054=CARTESIAN_POINT('',(6.566378547,0.8150962,4.498355284));
#1055=CARTESIAN_POINT('',(6.63252263,0.888462842,4.504846763));
#1056=CARTESIAN_POINT('',(6.7,0.959704479,4.524519125));
#1057=B_SPLINE_CURVE_WITH_KNOTS('',3,(#1044,#1045,#1046,#1047,#1048,#1049,#1050,#1051,#1052,#1053,#1054,#1055,#1056),.UNSPECIFIED.,.F.,.F.,(4,3,3,3,4),(0.,0.000297535,0.000595069,0.000892604,0.001190139),.UNSPECIFIED.);
#1058=EDGE_CURVE('',#1043,#752,#1057,.T.);
#1059=ORIENTED_EDGE('',*,*,#1058,.F.);
#1060=CARTESIAN_POINT('',(6.1,0.208592387,5.001695865));
#1061=CARTESIAN_POINT('',(6.1,0.225614132,4.902200266));
#1062=CARTESIAN_POINT('',(6.125490747,0.267604373,4.811352681));
#1063=CARTESIAN_POINT('',(6.16520672,0.323374672,4.738417937));
#1064=CARTESIAN_POINT('',(6.204922693,0.37914497,4.665483192));
#1065=CARTESIAN_POINT('',(6.257612627,0.447086637,4.610913493));
#1066=CARTESIAN_POINT('',(6.315461734,0.518697689,4.572903339));
#1067=CARTESIAN_POINT('',(6.373310841,0.590308741,4.534893185));
#1068=CARTESIAN_POINT('',(6.436080109,0.665235926,4.513374662));
#1069=CARTESIAN_POINT('',(6.501229328,0.740166063,4.505864973));
#1070=CARTESIAN_POINT('',(6.566378547,0.8150962,4.498355284));
#1071=CARTESIAN_POINT('',(6.63252263,0.888462842,4.504846763));
#1072=CARTESIAN_POINT('',(6.7,0.959704479,4.524519125));
#1073=B_SPLINE_CURVE_WITH_KNOTS('',3,(#1060,#1061,#1062,#1063,#1064,#1065,#1066,#1067,#1068,#1069,#1070,#1071,#1072),.UNSPECIFIED.,.F.,.F.,(4,3,3,3,4),(0.,0.000297535,0.000595069,0.000892604,0.001190139),.UNSPECIFIED.);
#1074=EDGE_CURVE('',#112,#1043,#1073,.T.);
#1075=ORIENTED_EDGE('',*,*,#1074,.F.);
#1076=ORIENTED_EDGE('',*,*,#118,.F.);
#1077=EDGE_LOOP('',(#1040,#1041,#1059,#1075,#1076));
#1078=FACE_BOUND('',#1077,.T.);
#1079=ADVANCED_FACE('',(#1078),#1033,.F.);
#1080=CARTESIAN_POINT('',(-11.,0.8,5.102874102));
#1081=DIRECTION('',(1.,0.,-0.));
#1082=DIRECTION('',(-0.,0.,-1.));
#1083=AXIS2_PLACEMENT_3D('',#1080,#1081,#1082);
#1084=CYLINDRICAL_SURFACE('',#1083,0.6);
#1085=CARTESIAN_POINT('',(6.553774954,0.8,4.502874102));
#1086=DIRECTION('',(-1.,-0.,0.));
#1087=VECTOR('',#1086,1.407549496);
#1088=LINE('',#1085,#1087);
#1089=EDGE_CURVE('',#1043,#974,#1088,.T.);
#1090=ORIENTED_EDGE('',*,*,#1089,.F.);
#1091=ORIENTED_EDGE('',*,*,#1058,.T.);
#1092=ORIENTED_EDGE('',*,*,#757,.F.);
#1093=ORIENTED_EDGE('',*,*,#1005,.T.);
#1094=EDGE_LOOP('',(#1090,#1091,#1092,#1093));
#1095=FACE_BOUND('',#1094,.T.);
#1096=ADVANCED_FACE('',(#1095),#1084,.F.);
#1097=CARTESIAN_POINT('',(-11.,-0.9,5.132363609));
#1098=DIRECTION('',(1.,0.,-0.));
#1099=DIRECTION('',(-0.,0.,-1.));
#1100=AXIS2_PLACEMENT_3D('',#1097,#1098,#1099);
#1101=CYLINDRICAL_SURFACE('',#1100,0.6);
#1102=ORIENTED_EDGE('',*,*,#927,.T.);
#1103=ORIENTED_EDGE('',*,*,#1023,.F.);
#1104=ORIENTED_EDGE('',*,*,#791,.F.);
#1105=CARTESIAN_POINT('',(6.1,-0.312457377,5.010734395));
#1106=CARTESIAN_POINT('',(6.1,-0.332919696,4.911889023));
#1107=CARTESIAN_POINT('',(6.125490747,-0.378035551,4.822552448));
#1108=CARTESIAN_POINT('',(6.16520672,-0.436301899,4.751595871));
#1109=CARTESIAN_POINT('',(6.204922693,-0.494568246,4.680639294));
#1110=CARTESIAN_POINT('',(6.257612627,-0.564361683,4.628458853));
#1111=CARTESIAN_POINT('',(6.315461734,-0.637247961,4.592955261));
#1112=CARTESIAN_POINT('',(6.373310841,-0.710134239,4.557451669));
#1113=CARTESIAN_POINT('',(6.436080109,-0.785762675,4.5385448));
#1114=CARTESIAN_POINT('',(6.501229328,-0.86090819,4.533638438));
#1115=CARTESIAN_POINT('',(6.566378547,-0.936053705,4.528732077));
#1116=CARTESIAN_POINT('',(6.632521159,-1.009152344,4.537764635));
#1117=CARTESIAN_POINT('',(6.7,-1.079667539,4.55989564));
#1118=B_SPLINE_CURVE_WITH_KNOTS('',3,(#1105,#1106,#1107,#1108,#1109,#1110,#1111,#1112,#1113,#1114,#1115,#1116,#1117),.UNSPECIFIED.,.F.,.F.,(4,3,3,3,4),(0.,0.000297535,0.000595069,0.000892604,0.001190139),.UNSPECIFIED.);
#1119=EDGE_CURVE('',#920,#777,#1118,.T.);
#1120=ORIENTED_EDGE('',*,*,#1119,.F.);
#1121=EDGE_LOOP('',(#1102,#1103,#1104,#1120));
#1122=FACE_BOUND('',#1121,.T.);
#1123=ADVANCED_FACE('',(#1122),#1101,.F.);
#1124=CARTESIAN_POINT('',(6.7,0.,8.));
#1125=DIRECTION('',(1.,0.,0.));
#1126=DIRECTION('',(0.,0.,-1.));
#1127=AXIS2_PLACEMENT_3D('',#1124,#1125,#1126);
#1128=TOROIDAL_SURFACE('',#1127,3.005551275,0.6);
#1129=ORIENTED_EDGE('',*,*,#1039,.T.);
#1130=ORIENTED_EDGE('',*,*,#109,.F.);
#1131=ORIENTED_EDGE('',*,*,#943,.T.);
#1132=ORIENTED_EDGE('',*,*,#1119,.T.);
#1133=ORIENTED_EDGE('',*,*,#783,.F.);
#1134=EDGE_LOOP('',(#1129,#1130,#1131,#1132,#1133));
#1135=FACE_BOUND('',#1134,.T.);
#1136=ADVANCED_FACE('',(#1135),#1128,.F.);
#1137=CARTESIAN_POINT('',(-11.,0.8,5.102874102));
#1138=DIRECTION('',(1.,0.,-0.));
#1139=DIRECTION('',(-0.,0.,-1.));
#1140=AXIS2_PLACEMENT_3D('',#1137,#1138,#1139);
#1141=CYLINDRICAL_SURFACE('',#1140,0.6);
#1142=ORIENTED_EDGE('',*,*,#1089,.T.);
#1143=ORIENTED_EDGE('',*,*,#989,.T.);
#1144=ORIENTED_EDGE('',*,*,#41,.F.);
#1145=ORIENTED_EDGE('',*,*,#164,.F.);
#1146=ORIENTED_EDGE('',*,*,#127,.F.);
#1147=ORIENTED_EDGE('',*,*,#1074,.T.);
#1148=EDGE_LOOP('',(#1142,#1143,#1144,#1145,#1146,#1147));
#1149=FACE_BOUND('',#1148,.T.);
#1150=ADVANCED_FACE('',(#1149),#1141,.F.);
#1151=CLOSED_SHELL('',(#85,#153,#175,#197,#209,#674,#718,#728,#805,#836,#860,#884,#901,#913,#966,#1028,#1079,#1096,#1123,#1136,#1150));
#1152=MANIFOLD_SOLID_BREP('Cuerpo 02',#1151);
#1153=COLOUR_RGB('',0.627451003,0.627451003,0.643137276);
#1154=FILL_AREA_STYLE_COLOUR('',#1153);
#1155=FILL_AREA_STYLE('',(#1154));
#1156=SURFACE_STYLE_FILL_AREA(#1155);
#1157=SURFACE_SIDE_STYLE('',(#1156));
#1158=SURFACE_STYLE_USAGE(.BOTH.,#1157);
#1159=PRESENTATION_STYLE_ASSIGNMENT((#1158));
#26=STYLED_ITEM('',(#1159),#1152);
#16=SHAPE_REPRESENTATION('Cuerpo 02',(#15),#10);
#17=ADVANCED_BREP_SHAPE_REPRESENTATION('Cuerpo 02',(#1152),#10);
#1167=SHAPE_REPRESENTATION_RELATIONSHIP('','',#16,#17);
#1168=CARTESIAN_POINT('',(0.,0.,0.));
#1169=DIRECTION('',(0.,0.,1.));
#1170=DIRECTION('',(1.,0.,0.));
#1171=AXIS2_PLACEMENT_3D('',#1168,#1169,#1170);
#1173=MAPPED_ITEM('',#1172,#1171);
#1172=REPRESENTATION_MAP(#1171,#16);
#1174=APPLICATION_CONTEXT('Managed model based 3d engineering');
#1175=APPLICATION_PROTOCOL_DEFINITION('international standard','ap242_managed_model_based_3d_engineering',2014,#1174);
#1176=PRODUCT_CONTEXT('',#1174,'mechanical');
#1177=PRODUCT_DEFINITION_CONTEXT('part definition',#1174,'design');
#24=PRODUCT('Cuerpo 02','Cuerpo 02','',(#1176));
#1178=PRODUCT_RELATED_PRODUCT_CATEGORY('part','',(#24));
#1179=PRODUCT_DEFINITION_FORMATION_WITH_SPECIFIED_SOURCE('','',#24,.NOT_KNOWN.);
#25=PRODUCT_DEFINITION('design','',#1179,#1177);
#23=PRODUCT_DEFINITION_SHAPE('','',#25);
#1180=SHAPE_DEFINITION_REPRESENTATION(#23,#16);
#11=DRAUGHTING_MODEL('',(#1173),#10);
#1181=DESCRIPTIVE_REPRESENTATION_ITEM('KEY','/private/var/mobile/Containers/Data/Application/1993A6C5-0FE1-406A-BFB1-231683AB655A/tmp/B760D756-B728-4382-BF55-A34CC56F81CC.tmp');
#1182=PROPERTY_DEFINITION('KEY','',#25);
#1183=REPRESENTATION('',(#1181),#10);
#1184=PROPERTY_DEFINITION_REPRESENTATION(#1182,#1183);
#1185=GENERAL_PROPERTY('','KEY','');
#1186=GENERAL_PROPERTY_ASSOCIATION('','',#1185,#1182);
#1=MECHANICAL_DESIGN_GEOMETRIC_PRESENTATION_REPRESENTATION('',(#26),#10);
ENDSEC;
END-ISO-10303-21;
