ISO-10303-21;
HEADER;
FILE_DESCRIPTION(('Open CASCADE Model'),'2;1');
FILE_NAME('Open CASCADE Shape Model','2026-05-01T21:26:01',('Author'),(
    'Open CASCADE'),'Open CASCADE STEP processor 7.8','Open CASCADE 7.8'
  ,'Unknown');
FILE_SCHEMA(('AUTOMOTIVE_DESIGN { 1 0 10303 214 1 1 1 1 }'));
ENDSEC;
DATA;
#1 = APPLICATION_PROTOCOL_DEFINITION('international standard',
  'automotive_design',2000,#2);
#2 = APPLICATION_CONTEXT(
  'core data for automotive mechanical design processes');
#3 = SHAPE_DEFINITION_REPRESENTATION(#4,#10);
#4 = PRODUCT_DEFINITION_SHAPE('','',#5);
#5 = PRODUCT_DEFINITION('design','',#6,#9);
#6 = PRODUCT_DEFINITION_FORMATION('','',#7);
#7 = PRODUCT('Open CASCADE STEP translator 7.8 1',
  'Open CASCADE STEP translator 7.8 1','',(#8));
#8 = PRODUCT_CONTEXT('',#2,'mechanical');
#9 = PRODUCT_DEFINITION_CONTEXT('part definition',#2,'design');
#10 = ADVANCED_BREP_SHAPE_REPRESENTATION('',(#11,#15),#457);
#11 = AXIS2_PLACEMENT_3D('',#12,#13,#14);
#12 = CARTESIAN_POINT('',(0.,0.,0.));
#13 = DIRECTION('',(0.,0.,1.));
#14 = DIRECTION('',(1.,0.,-0.));
#15 = MANIFOLD_SOLID_BREP('',#16);
#16 = CLOSED_SHELL('',(#17,#133,#309,#398,#424,#450));
#17 = ADVANCED_FACE('',(#18),#32,.T.);
#18 = FACE_BOUND('',#19,.T.);
#19 = EDGE_LOOP('',(#20,#54,#81,#108));
#20 = ORIENTED_EDGE('',*,*,#21,.T.);
#21 = EDGE_CURVE('',#22,#24,#26,.T.);
#22 = VERTEX_POINT('',#23);
#23 = CARTESIAN_POINT('',(-4.,-3.,-0.8));
#24 = VERTEX_POINT('',#25);
#25 = CARTESIAN_POINT('',(-4.,3.,-0.8));
#26 = SURFACE_CURVE('',#27,(#31,#43),.PCURVE_S1.);
#27 = LINE('',#28,#29);
#28 = CARTESIAN_POINT('',(-4.,-3.,-0.8));
#29 = VECTOR('',#30,1.);
#30 = DIRECTION('',(0.,1.,0.));
#31 = PCURVE('',#32,#37);
#32 = PLANE('',#33);
#33 = AXIS2_PLACEMENT_3D('',#34,#35,#36);
#34 = CARTESIAN_POINT('',(0.,0.,-0.8));
#35 = DIRECTION('',(-0.,-0.,-1.));
#36 = DIRECTION('',(-1.,0.,0.));
#37 = DEFINITIONAL_REPRESENTATION('',(#38),#42);
#38 = LINE('',#39,#40);
#39 = CARTESIAN_POINT('',(4.,-3.));
#40 = VECTOR('',#41,1.);
#41 = DIRECTION('',(0.,1.));
#42 = ( GEOMETRIC_REPRESENTATION_CONTEXT(2) 
PARAMETRIC_REPRESENTATION_CONTEXT() REPRESENTATION_CONTEXT('2D SPACE',''
  ) );
#43 = PCURVE('',#44,#49);
#44 = PLANE('',#45);
#45 = AXIS2_PLACEMENT_3D('',#46,#47,#48);
#46 = CARTESIAN_POINT('',(-4.,0.,-0.4));
#47 = DIRECTION('',(-1.,-0.,-0.));
#48 = DIRECTION('',(0.,0.,-1.));
#49 = DEFINITIONAL_REPRESENTATION('',(#50),#53);
#50 = B_SPLINE_CURVE_WITH_KNOTS('',1,(#51,#52),.UNSPECIFIED.,.F.,.F.,(2,
    2),(0.,6.),.PIECEWISE_BEZIER_KNOTS.);
#51 = CARTESIAN_POINT('',(0.4,3.));
#52 = CARTESIAN_POINT('',(0.4,-3.));
#53 = ( GEOMETRIC_REPRESENTATION_CONTEXT(2) 
PARAMETRIC_REPRESENTATION_CONTEXT() REPRESENTATION_CONTEXT('2D SPACE',''
  ) );
#54 = ORIENTED_EDGE('',*,*,#55,.T.);
#55 = EDGE_CURVE('',#24,#56,#58,.T.);
#56 = VERTEX_POINT('',#57);
#57 = CARTESIAN_POINT('',(4.,3.,-0.8));
#58 = SURFACE_CURVE('',#59,(#63,#70),.PCURVE_S1.);
#59 = LINE('',#60,#61);
#60 = CARTESIAN_POINT('',(-4.,3.,-0.8));
#61 = VECTOR('',#62,1.);
#62 = DIRECTION('',(1.,0.,0.));
#63 = PCURVE('',#32,#64);
#64 = DEFINITIONAL_REPRESENTATION('',(#65),#69);
#65 = LINE('',#66,#67);
#66 = CARTESIAN_POINT('',(4.,3.));
#67 = VECTOR('',#68,1.);
#68 = DIRECTION('',(-1.,0.));
#69 = ( GEOMETRIC_REPRESENTATION_CONTEXT(2) 
PARAMETRIC_REPRESENTATION_CONTEXT() REPRESENTATION_CONTEXT('2D SPACE',''
  ) );
#70 = PCURVE('',#71,#76);
#71 = PLANE('',#72);
#72 = AXIS2_PLACEMENT_3D('',#73,#74,#75);
#73 = CARTESIAN_POINT('',(0.,3.,-0.4));
#74 = DIRECTION('',(0.,1.,0.));
#75 = DIRECTION('',(0.,-0.,1.));
#76 = DEFINITIONAL_REPRESENTATION('',(#77),#80);
#77 = B_SPLINE_CURVE_WITH_KNOTS('',1,(#78,#79),.UNSPECIFIED.,.F.,.F.,(2,
    2),(0.,8.),.PIECEWISE_BEZIER_KNOTS.);
#78 = CARTESIAN_POINT('',(-0.4,-4.));
#79 = CARTESIAN_POINT('',(-0.4,4.));
#80 = ( GEOMETRIC_REPRESENTATION_CONTEXT(2) 
PARAMETRIC_REPRESENTATION_CONTEXT() REPRESENTATION_CONTEXT('2D SPACE',''
  ) );
#81 = ORIENTED_EDGE('',*,*,#82,.T.);
#82 = EDGE_CURVE('',#56,#83,#85,.T.);
#83 = VERTEX_POINT('',#84);
#84 = CARTESIAN_POINT('',(4.,-3.,-0.8));
#85 = SURFACE_CURVE('',#86,(#90,#97),.PCURVE_S1.);
#86 = LINE('',#87,#88);
#87 = CARTESIAN_POINT('',(4.,3.,-0.8));
#88 = VECTOR('',#89,1.);
#89 = DIRECTION('',(0.,-1.,0.));
#90 = PCURVE('',#32,#91);
#91 = DEFINITIONAL_REPRESENTATION('',(#92),#96);
#92 = LINE('',#93,#94);
#93 = CARTESIAN_POINT('',(-4.,3.));
#94 = VECTOR('',#95,1.);
#95 = DIRECTION('',(0.,-1.));
#96 = ( GEOMETRIC_REPRESENTATION_CONTEXT(2) 
PARAMETRIC_REPRESENTATION_CONTEXT() REPRESENTATION_CONTEXT('2D SPACE',''
  ) );
#97 = PCURVE('',#98,#103);
#98 = PLANE('',#99);
#99 = AXIS2_PLACEMENT_3D('',#100,#101,#102);
#100 = CARTESIAN_POINT('',(4.,0.,-0.4));
#101 = DIRECTION('',(1.,0.,0.));
#102 = DIRECTION('',(-0.,0.,1.));
#103 = DEFINITIONAL_REPRESENTATION('',(#104),#107);
#104 = B_SPLINE_CURVE_WITH_KNOTS('',1,(#105,#106),.UNSPECIFIED.,.F.,.F.,
  (2,2),(0.,6.),.PIECEWISE_BEZIER_KNOTS.);
#105 = CARTESIAN_POINT('',(-0.4,-3.));
#106 = CARTESIAN_POINT('',(-0.4,3.));
#107 = ( GEOMETRIC_REPRESENTATION_CONTEXT(2) 
PARAMETRIC_REPRESENTATION_CONTEXT() REPRESENTATION_CONTEXT('2D SPACE',''
  ) );
#108 = ORIENTED_EDGE('',*,*,#109,.T.);
#109 = EDGE_CURVE('',#83,#22,#110,.T.);
#110 = SURFACE_CURVE('',#111,(#115,#122),.PCURVE_S1.);
#111 = LINE('',#112,#113);
#112 = CARTESIAN_POINT('',(4.,-3.,-0.8));
#113 = VECTOR('',#114,1.);
#114 = DIRECTION('',(-1.,0.,0.));
#115 = PCURVE('',#32,#116);
#116 = DEFINITIONAL_REPRESENTATION('',(#117),#121);
#117 = LINE('',#118,#119);
#118 = CARTESIAN_POINT('',(-4.,-3.));
#119 = VECTOR('',#120,1.);
#120 = DIRECTION('',(1.,0.));
#121 = ( GEOMETRIC_REPRESENTATION_CONTEXT(2) 
PARAMETRIC_REPRESENTATION_CONTEXT() REPRESENTATION_CONTEXT('2D SPACE',''
  ) );
#122 = PCURVE('',#123,#128);
#123 = PLANE('',#124);
#124 = AXIS2_PLACEMENT_3D('',#125,#126,#127);
#125 = CARTESIAN_POINT('',(0.,-3.,-0.4));
#126 = DIRECTION('',(-0.,-1.,-0.));
#127 = DIRECTION('',(0.,0.,-1.));
#128 = DEFINITIONAL_REPRESENTATION('',(#129),#132);
#129 = B_SPLINE_CURVE_WITH_KNOTS('',1,(#130,#131),.UNSPECIFIED.,.F.,.F.,
  (2,2),(0.,8.),.PIECEWISE_BEZIER_KNOTS.);
#130 = CARTESIAN_POINT('',(0.4,4.));
#131 = CARTESIAN_POINT('',(0.4,-4.));
#132 = ( GEOMETRIC_REPRESENTATION_CONTEXT(2) 
PARAMETRIC_REPRESENTATION_CONTEXT() REPRESENTATION_CONTEXT('2D SPACE',''
  ) );
#133 = ADVANCED_FACE('',(#134),#123,.T.);
#134 = FACE_BOUND('',#135,.T.);
#135 = EDGE_LOOP('',(#136,#158,#159,#181));
#136 = ORIENTED_EDGE('',*,*,#137,.T.);
#137 = EDGE_CURVE('',#138,#22,#140,.T.);
#138 = VERTEX_POINT('',#139);
#139 = CARTESIAN_POINT('',(-4.,-3.,0.));
#140 = SURFACE_CURVE('',#141,(#145,#152),.PCURVE_S1.);
#141 = LINE('',#142,#143);
#142 = CARTESIAN_POINT('',(-4.,-3.,0.));
#143 = VECTOR('',#144,1.);
#144 = DIRECTION('',(0.,0.,-1.));
#145 = PCURVE('',#123,#146);
#146 = DEFINITIONAL_REPRESENTATION('',(#147),#151);
#147 = LINE('',#148,#149);
#148 = CARTESIAN_POINT('',(-0.4,-4.));
#149 = VECTOR('',#150,1.);
#150 = DIRECTION('',(1.,0.));
#151 = ( GEOMETRIC_REPRESENTATION_CONTEXT(2) 
PARAMETRIC_REPRESENTATION_CONTEXT() REPRESENTATION_CONTEXT('2D SPACE',''
  ) );
#152 = PCURVE('',#44,#153);
#153 = DEFINITIONAL_REPRESENTATION('',(#154),#157);
#154 = B_SPLINE_CURVE_WITH_KNOTS('',1,(#155,#156),.UNSPECIFIED.,.F.,.F.,
  (2,2),(0.,0.8),.PIECEWISE_BEZIER_KNOTS.);
#155 = CARTESIAN_POINT('',(-0.4,3.));
#156 = CARTESIAN_POINT('',(0.4,3.));
#157 = ( GEOMETRIC_REPRESENTATION_CONTEXT(2) 
PARAMETRIC_REPRESENTATION_CONTEXT() REPRESENTATION_CONTEXT('2D SPACE',''
  ) );
#158 = ORIENTED_EDGE('',*,*,#109,.F.);
#159 = ORIENTED_EDGE('',*,*,#160,.T.);
#160 = EDGE_CURVE('',#83,#161,#163,.T.);
#161 = VERTEX_POINT('',#162);
#162 = CARTESIAN_POINT('',(4.,-3.,0.));
#163 = SURFACE_CURVE('',#164,(#168,#175),.PCURVE_S1.);
#164 = LINE('',#165,#166);
#165 = CARTESIAN_POINT('',(4.,-3.,-0.8));
#166 = VECTOR('',#167,1.);
#167 = DIRECTION('',(0.,0.,1.));
#168 = PCURVE('',#123,#169);
#169 = DEFINITIONAL_REPRESENTATION('',(#170),#174);
#170 = LINE('',#171,#172);
#171 = CARTESIAN_POINT('',(0.4,4.));
#172 = VECTOR('',#173,1.);
#173 = DIRECTION('',(-1.,0.));
#174 = ( GEOMETRIC_REPRESENTATION_CONTEXT(2) 
PARAMETRIC_REPRESENTATION_CONTEXT() REPRESENTATION_CONTEXT('2D SPACE',''
  ) );
#175 = PCURVE('',#98,#176);
#176 = DEFINITIONAL_REPRESENTATION('',(#177),#180);
#177 = B_SPLINE_CURVE_WITH_KNOTS('',1,(#178,#179),.UNSPECIFIED.,.F.,.F.,
  (2,2),(0.,0.8),.PIECEWISE_BEZIER_KNOTS.);
#178 = CARTESIAN_POINT('',(-0.4,3.));
#179 = CARTESIAN_POINT('',(0.4,3.));
#180 = ( GEOMETRIC_REPRESENTATION_CONTEXT(2) 
PARAMETRIC_REPRESENTATION_CONTEXT() REPRESENTATION_CONTEXT('2D SPACE',''
  ) );
#181 = ORIENTED_EDGE('',*,*,#182,.F.);
#182 = EDGE_CURVE('',#138,#161,#183,.T.);
#183 = SURFACE_CURVE('',#184,(#195,#201),.PCURVE_S1.);
#184 = B_SPLINE_CURVE_WITH_KNOTS('',3,(#185,#186,#187,#188,#189,#190,
    #191,#192,#193,#194),.UNSPECIFIED.,.F.,.F.,(4,3,3,4),(0.,1.,2.,3.),
  .PIECEWISE_BEZIER_KNOTS.);
#185 = CARTESIAN_POINT('',(-4.,-3.,0.));
#186 = CARTESIAN_POINT('',(-3.111111111111,-3.,0.));
#187 = CARTESIAN_POINT('',(-2.222222222222,-3.,0.));
#188 = CARTESIAN_POINT('',(-1.333333333333,-3.,0.));
#189 = CARTESIAN_POINT('',(-0.444444444444,-3.,0.));
#190 = CARTESIAN_POINT('',(0.444444444444,-3.,0.));
#191 = CARTESIAN_POINT('',(1.333333333333,-3.,0.));
#192 = CARTESIAN_POINT('',(2.222222222222,-3.,0.));
#193 = CARTESIAN_POINT('',(3.111111111111,-3.,0.));
#194 = CARTESIAN_POINT('',(4.,-3.,0.));
#195 = PCURVE('',#123,#196);
#196 = DEFINITIONAL_REPRESENTATION('',(#197),#200);
#197 = B_SPLINE_CURVE_WITH_KNOTS('',1,(#198,#199),.UNSPECIFIED.,.F.,.F.,
  (2,2),(0.,3.),.PIECEWISE_BEZIER_KNOTS.);
#198 = CARTESIAN_POINT('',(-0.4,-4.));
#199 = CARTESIAN_POINT('',(-0.4,4.));
#200 = ( GEOMETRIC_REPRESENTATION_CONTEXT(2) 
PARAMETRIC_REPRESENTATION_CONTEXT() REPRESENTATION_CONTEXT('2D SPACE',''
  ) );
#201 = PCURVE('',#202,#303);
#202 = B_SPLINE_SURFACE_WITH_KNOTS('',3,3,(
    (#203,#204,#205,#206,#207,#208,#209,#210,#211,#212)
    ,(#213,#214,#215,#216,#217,#218,#219,#220,#221,#222)
    ,(#223,#224,#225,#226,#227,#228,#229,#230,#231,#232)
    ,(#233,#234,#235,#236,#237,#238,#239,#240,#241,#242)
    ,(#243,#244,#245,#246,#247,#248,#249,#250,#251,#252)
    ,(#253,#254,#255,#256,#257,#258,#259,#260,#261,#262)
    ,(#263,#264,#265,#266,#267,#268,#269,#270,#271,#272)
    ,(#273,#274,#275,#276,#277,#278,#279,#280,#281,#282)
    ,(#283,#284,#285,#286,#287,#288,#289,#290,#291,#292)
    ,(#293,#294,#295,#296,#297,#298,#299,#300,#301,#302
  )),.UNSPECIFIED.,.F.,.F.,.F.,(4,3,3,4),(4,3,3,4),(0.,1.,2.,3.),(0.,1.,
    2.,3.),.PIECEWISE_BEZIER_KNOTS.);
#203 = CARTESIAN_POINT('',(-4.,-3.,0.));
#204 = CARTESIAN_POINT('',(-4.,-2.333333333333,0.));
#205 = CARTESIAN_POINT('',(-4.,-1.666666666667,0.));
#206 = CARTESIAN_POINT('',(-4.,-1.,0.));
#207 = CARTESIAN_POINT('',(-4.,-0.333333333333,0.));
#208 = CARTESIAN_POINT('',(-4.,0.333333333333,0.));
#209 = CARTESIAN_POINT('',(-4.,1.,0.));
#210 = CARTESIAN_POINT('',(-4.,1.666666666667,0.));
#211 = CARTESIAN_POINT('',(-4.,2.333333333333,0.));
#212 = CARTESIAN_POINT('',(-4.,3.,0.));
#213 = CARTESIAN_POINT('',(-3.111111111111,-3.,0.));
#214 = CARTESIAN_POINT('',(-3.111111111111,-2.333333333333,
    2.053946268116E-02));
#215 = CARTESIAN_POINT('',(-3.111111111111,-1.666666666667,
    7.11985055651E-02));
#216 = CARTESIAN_POINT('',(-3.111111111111,-1.,0.125489238164));
#217 = CARTESIAN_POINT('',(-3.111111111111,-0.333333333333,
    0.156323934199));
#218 = CARTESIAN_POINT('',(-3.111111111111,0.333333333333,0.149992326211
    ));
#219 = CARTESIAN_POINT('',(-3.111111111111,1.,0.111390763178));
#220 = CARTESIAN_POINT('',(-3.111111111111,1.666666666667,
    6.896545499574E-02));
#221 = CARTESIAN_POINT('',(-3.111111111111,2.333333333333,
    1.914355920058E-02));
#222 = CARTESIAN_POINT('',(-3.111111111111,3.,0.));
#223 = CARTESIAN_POINT('',(-2.222222222222,-3.,0.));
#224 = CARTESIAN_POINT('',(-2.222222222222,-2.333333333333,
    7.643064136427E-02));
#225 = CARTESIAN_POINT('',(-2.222222222222,-1.666666666667,
    0.262661351326));
#226 = CARTESIAN_POINT('',(-2.222222222222,-1.,0.456487376369));
#227 = CARTESIAN_POINT('',(-2.222222222222,-0.333333333333,
    0.558099795941));
#228 = CARTESIAN_POINT('',(-2.222222222222,0.333333333333,0.523836463127
    ));
#229 = CARTESIAN_POINT('',(-2.222222222222,1.,0.380193843743));
#230 = CARTESIAN_POINT('',(-2.222222222222,1.666666666667,0.232410216022
    ));
#231 = CARTESIAN_POINT('',(-2.222222222222,2.333333333333,
    6.373331919657E-02));
#232 = CARTESIAN_POINT('',(-2.222222222222,3.,0.));
#233 = CARTESIAN_POINT('',(-1.333333333333,-3.,0.));
#234 = CARTESIAN_POINT('',(-1.333333333333,-2.333333333333,
    9.242262966788E-02));
#235 = CARTESIAN_POINT('',(-1.333333333333,-1.666666666667,0.31479464259
    ));
#236 = CARTESIAN_POINT('',(-1.333333333333,-1.,0.539017411204));
#237 = CARTESIAN_POINT('',(-1.333333333333,-0.333333333333,0.64562373077
    ));
#238 = CARTESIAN_POINT('',(-1.333333333333,0.333333333333,0.590930314981
    ));
#239 = CARTESIAN_POINT('',(-1.333333333333,1.,0.417232588796));
#240 = CARTESIAN_POINT('',(-1.333333333333,1.666666666667,0.273981030822
    ));
#241 = CARTESIAN_POINT('',(-1.333333333333,2.333333333333,
    7.427070460985E-02));
#242 = CARTESIAN_POINT('',(-1.333333333333,3.,0.));
#243 = CARTESIAN_POINT('',(-0.444444444444,-3.,0.));
#244 = CARTESIAN_POINT('',(-0.444444444444,-2.333333333333,
    0.105548466094));
#245 = CARTESIAN_POINT('',(-0.444444444444,-1.666666666667,
    0.366856798745));
#246 = CARTESIAN_POINT('',(-0.444444444444,-1.,0.649374551696));
#247 = CARTESIAN_POINT('',(-0.444444444444,-0.333333333333,
    0.813477448329));
#248 = CARTESIAN_POINT('',(-0.444444444444,0.333333333333,0.785545723502
    ));
#249 = CARTESIAN_POINT('',(-0.444444444444,1.,0.587179494055));
#250 = CARTESIAN_POINT('',(-0.444444444444,1.666666666667,0.394505753932
    ));
#251 = CARTESIAN_POINT('',(-0.444444444444,2.333333333333,0.110007420861
    ));
#252 = CARTESIAN_POINT('',(-0.444444444444,3.,0.));
#253 = CARTESIAN_POINT('',(0.444444444444,-3.,0.));
#254 = CARTESIAN_POINT('',(0.444444444444,-2.333333333333,
    8.731732749771E-02));
#255 = CARTESIAN_POINT('',(0.444444444444,-1.666666666667,0.314362327335
    ));
#256 = CARTESIAN_POINT('',(0.444444444444,-1.,0.587179494055));
#257 = CARTESIAN_POINT('',(0.444444444444,-0.333333333333,0.785545723502
    ));
#258 = CARTESIAN_POINT('',(0.444444444444,0.333333333333,0.813477448329)
  );
#259 = CARTESIAN_POINT('',(0.444444444444,1.,0.649374551696));
#260 = CARTESIAN_POINT('',(0.444444444444,1.666666666667,0.447000225343)
  );
#261 = CARTESIAN_POINT('',(0.444444444444,2.333333333333,0.128238559457)
  );
#262 = CARTESIAN_POINT('',(0.444444444444,3.,0.));
#263 = CARTESIAN_POINT('',(1.333333333333,-3.,0.));
#264 = CARTESIAN_POINT('',(1.333333333333,-2.333333333333,0.118137371525
    ));
#265 = CARTESIAN_POINT('',(1.333333333333,-1.666666666667,0.428921997509
    ));
#266 = CARTESIAN_POINT('',(1.333333333333,-1.,0.810982588796));
#267 = CARTESIAN_POINT('',(1.333333333333,-0.333333333333,1.100099627938
    ));
#268 = CARTESIAN_POINT('',(1.333333333333,0.333333333333,1.154793043726)
  );
#269 = CARTESIAN_POINT('',(1.333333333333,1.,0.932767411204));
#270 = CARTESIAN_POINT('',(1.333333333333,1.666666666667,0.593688382628)
  );
#271 = CARTESIAN_POINT('',(1.333333333333,2.333333333333,0.171382630115)
  );
#272 = CARTESIAN_POINT('',(1.333333333333,3.,0.));
#273 = CARTESIAN_POINT('',(2.222222222222,-3.,0.));
#274 = CARTESIAN_POINT('',(2.222222222222,-2.333333333333,
    6.373331919657E-02));
#275 = CARTESIAN_POINT('',(2.222222222222,-1.666666666667,0.232410216022
    ));
#276 = CARTESIAN_POINT('',(2.222222222222,-1.,0.442170230418));
#277 = CARTESIAN_POINT('',(2.222222222222,-0.333333333333,0.603979889724
    ));
#278 = CARTESIAN_POINT('',(2.222222222222,0.333333333333,0.638243222539)
  );
#279 = CARTESIAN_POINT('',(2.222222222222,1.,0.518463763044));
#280 = CARTESIAN_POINT('',(2.222222222222,1.666666666667,0.330947084754)
  );
#281 = CARTESIAN_POINT('',(2.222222222222,2.333333333333,
    9.576360144163E-02));
#282 = CARTESIAN_POINT('',(2.222222222222,3.,0.));
#283 = CARTESIAN_POINT('',(3.111111111111,-3.,0.));
#284 = CARTESIAN_POINT('',(3.111111111111,-2.333333333333,
    1.914355920058E-02));
#285 = CARTESIAN_POINT('',(3.111111111111,-1.666666666667,
    6.896545499574E-02));
#286 = CARTESIAN_POINT('',(3.111111111111,-1.,0.128937429944));
#287 = CARTESIAN_POINT('',(3.111111111111,-0.333333333333,0.172682419575
    ));
#288 = CARTESIAN_POINT('',(3.111111111111,0.333333333333,0.179014027563)
  );
#289 = CARTESIAN_POINT('',(3.111111111111,1.,0.14303590493));
#290 = CARTESIAN_POINT('',(3.111111111111,1.666666666667,
    9.053146564246E-02));
#291 = CARTESIAN_POINT('',(3.111111111111,2.333333333333,
    2.601298294071E-02));
#292 = CARTESIAN_POINT('',(3.111111111111,3.,0.));
#293 = CARTESIAN_POINT('',(4.,-3.,0.));
#294 = CARTESIAN_POINT('',(4.,-2.333333333333,0.));
#295 = CARTESIAN_POINT('',(4.,-1.666666666667,0.));
#296 = CARTESIAN_POINT('',(4.,-1.,0.));
#297 = CARTESIAN_POINT('',(4.,-0.333333333333,0.));
#298 = CARTESIAN_POINT('',(4.,0.333333333333,0.));
#299 = CARTESIAN_POINT('',(4.,1.,0.));
#300 = CARTESIAN_POINT('',(4.,1.666666666667,0.));
#301 = CARTESIAN_POINT('',(4.,2.333333333333,0.));
#302 = CARTESIAN_POINT('',(4.,3.,0.));
#303 = DEFINITIONAL_REPRESENTATION('',(#304),#308);
#304 = LINE('',#305,#306);
#305 = CARTESIAN_POINT('',(0.,0.));
#306 = VECTOR('',#307,1.);
#307 = DIRECTION('',(1.,0.));
#308 = ( GEOMETRIC_REPRESENTATION_CONTEXT(2) 
PARAMETRIC_REPRESENTATION_CONTEXT() REPRESENTATION_CONTEXT('2D SPACE',''
  ) );
#309 = ADVANCED_FACE('',(#310),#202,.T.);
#310 = FACE_BOUND('',#311,.T.);
#311 = EDGE_LOOP('',(#312,#341,#342,#371));
#312 = ORIENTED_EDGE('',*,*,#313,.F.);
#313 = EDGE_CURVE('',#138,#314,#316,.T.);
#314 = VERTEX_POINT('',#315);
#315 = CARTESIAN_POINT('',(-4.,3.,0.));
#316 = SURFACE_CURVE('',#317,(#328,#335),.PCURVE_S1.);
#317 = B_SPLINE_CURVE_WITH_KNOTS('',3,(#318,#319,#320,#321,#322,#323,
    #324,#325,#326,#327),.UNSPECIFIED.,.F.,.F.,(4,3,3,4),(0.,1.,2.,3.),
  .PIECEWISE_BEZIER_KNOTS.);
#318 = CARTESIAN_POINT('',(-4.,-3.,0.));
#319 = CARTESIAN_POINT('',(-4.,-2.333333333333,0.));
#320 = CARTESIAN_POINT('',(-4.,-1.666666666667,0.));
#321 = CARTESIAN_POINT('',(-4.,-1.,0.));
#322 = CARTESIAN_POINT('',(-4.,-0.333333333333,0.));
#323 = CARTESIAN_POINT('',(-4.,0.333333333333,0.));
#324 = CARTESIAN_POINT('',(-4.,1.,0.));
#325 = CARTESIAN_POINT('',(-4.,1.666666666667,0.));
#326 = CARTESIAN_POINT('',(-4.,2.333333333333,0.));
#327 = CARTESIAN_POINT('',(-4.,3.,0.));
#328 = PCURVE('',#202,#329);
#329 = DEFINITIONAL_REPRESENTATION('',(#330),#334);
#330 = LINE('',#331,#332);
#331 = CARTESIAN_POINT('',(0.,0.));
#332 = VECTOR('',#333,1.);
#333 = DIRECTION('',(0.,1.));
#334 = ( GEOMETRIC_REPRESENTATION_CONTEXT(2) 
PARAMETRIC_REPRESENTATION_CONTEXT() REPRESENTATION_CONTEXT('2D SPACE',''
  ) );
#335 = PCURVE('',#44,#336);
#336 = DEFINITIONAL_REPRESENTATION('',(#337),#340);
#337 = B_SPLINE_CURVE_WITH_KNOTS('',1,(#338,#339),.UNSPECIFIED.,.F.,.F.,
  (2,2),(0.,3.),.PIECEWISE_BEZIER_KNOTS.);
#338 = CARTESIAN_POINT('',(-0.4,3.));
#339 = CARTESIAN_POINT('',(-0.4,-3.));
#340 = ( GEOMETRIC_REPRESENTATION_CONTEXT(2) 
PARAMETRIC_REPRESENTATION_CONTEXT() REPRESENTATION_CONTEXT('2D SPACE',''
  ) );
#341 = ORIENTED_EDGE('',*,*,#182,.T.);
#342 = ORIENTED_EDGE('',*,*,#343,.T.);
#343 = EDGE_CURVE('',#161,#344,#346,.T.);
#344 = VERTEX_POINT('',#345);
#345 = CARTESIAN_POINT('',(4.,3.,0.));
#346 = SURFACE_CURVE('',#347,(#358,#365),.PCURVE_S1.);
#347 = B_SPLINE_CURVE_WITH_KNOTS('',3,(#348,#349,#350,#351,#352,#353,
    #354,#355,#356,#357),.UNSPECIFIED.,.F.,.F.,(4,3,3,4),(0.,1.,2.,3.),
  .PIECEWISE_BEZIER_KNOTS.);
#348 = CARTESIAN_POINT('',(4.,-3.,0.));
#349 = CARTESIAN_POINT('',(4.,-2.333333333333,0.));
#350 = CARTESIAN_POINT('',(4.,-1.666666666667,0.));
#351 = CARTESIAN_POINT('',(4.,-1.,0.));
#352 = CARTESIAN_POINT('',(4.,-0.333333333333,0.));
#353 = CARTESIAN_POINT('',(4.,0.333333333333,0.));
#354 = CARTESIAN_POINT('',(4.,1.,0.));
#355 = CARTESIAN_POINT('',(4.,1.666666666667,0.));
#356 = CARTESIAN_POINT('',(4.,2.333333333333,0.));
#357 = CARTESIAN_POINT('',(4.,3.,0.));
#358 = PCURVE('',#202,#359);
#359 = DEFINITIONAL_REPRESENTATION('',(#360),#364);
#360 = LINE('',#361,#362);
#361 = CARTESIAN_POINT('',(3.,0.));
#362 = VECTOR('',#363,1.);
#363 = DIRECTION('',(0.,1.));
#364 = ( GEOMETRIC_REPRESENTATION_CONTEXT(2) 
PARAMETRIC_REPRESENTATION_CONTEXT() REPRESENTATION_CONTEXT('2D SPACE',''
  ) );
#365 = PCURVE('',#98,#366);
#366 = DEFINITIONAL_REPRESENTATION('',(#367),#370);
#367 = B_SPLINE_CURVE_WITH_KNOTS('',1,(#368,#369),.UNSPECIFIED.,.F.,.F.,
  (2,2),(0.,3.),.PIECEWISE_BEZIER_KNOTS.);
#368 = CARTESIAN_POINT('',(0.4,3.));
#369 = CARTESIAN_POINT('',(0.4,-3.));
#370 = ( GEOMETRIC_REPRESENTATION_CONTEXT(2) 
PARAMETRIC_REPRESENTATION_CONTEXT() REPRESENTATION_CONTEXT('2D SPACE',''
  ) );
#371 = ORIENTED_EDGE('',*,*,#372,.F.);
#372 = EDGE_CURVE('',#314,#344,#373,.T.);
#373 = SURFACE_CURVE('',#374,(#385,#392),.PCURVE_S1.);
#374 = B_SPLINE_CURVE_WITH_KNOTS('',3,(#375,#376,#377,#378,#379,#380,
    #381,#382,#383,#384),.UNSPECIFIED.,.F.,.F.,(4,3,3,4),(0.,1.,2.,3.),
  .PIECEWISE_BEZIER_KNOTS.);
#375 = CARTESIAN_POINT('',(-4.,3.,0.));
#376 = CARTESIAN_POINT('',(-3.111111111111,3.,0.));
#377 = CARTESIAN_POINT('',(-2.222222222222,3.,0.));
#378 = CARTESIAN_POINT('',(-1.333333333333,3.,0.));
#379 = CARTESIAN_POINT('',(-0.444444444444,3.,0.));
#380 = CARTESIAN_POINT('',(0.444444444444,3.,0.));
#381 = CARTESIAN_POINT('',(1.333333333333,3.,0.));
#382 = CARTESIAN_POINT('',(2.222222222222,3.,0.));
#383 = CARTESIAN_POINT('',(3.111111111111,3.,0.));
#384 = CARTESIAN_POINT('',(4.,3.,0.));
#385 = PCURVE('',#202,#386);
#386 = DEFINITIONAL_REPRESENTATION('',(#387),#391);
#387 = LINE('',#388,#389);
#388 = CARTESIAN_POINT('',(0.,3.));
#389 = VECTOR('',#390,1.);
#390 = DIRECTION('',(1.,0.));
#391 = ( GEOMETRIC_REPRESENTATION_CONTEXT(2) 
PARAMETRIC_REPRESENTATION_CONTEXT() REPRESENTATION_CONTEXT('2D SPACE',''
  ) );
#392 = PCURVE('',#71,#393);
#393 = DEFINITIONAL_REPRESENTATION('',(#394),#397);
#394 = B_SPLINE_CURVE_WITH_KNOTS('',1,(#395,#396),.UNSPECIFIED.,.F.,.F.,
  (2,2),(0.,3.),.PIECEWISE_BEZIER_KNOTS.);
#395 = CARTESIAN_POINT('',(0.4,-4.));
#396 = CARTESIAN_POINT('',(0.4,4.));
#397 = ( GEOMETRIC_REPRESENTATION_CONTEXT(2) 
PARAMETRIC_REPRESENTATION_CONTEXT() REPRESENTATION_CONTEXT('2D SPACE',''
  ) );
#398 = ADVANCED_FACE('',(#399),#98,.T.);
#399 = FACE_BOUND('',#400,.T.);
#400 = EDGE_LOOP('',(#401,#402,#403,#423));
#401 = ORIENTED_EDGE('',*,*,#160,.F.);
#402 = ORIENTED_EDGE('',*,*,#82,.F.);
#403 = ORIENTED_EDGE('',*,*,#404,.T.);
#404 = EDGE_CURVE('',#56,#344,#405,.T.);
#405 = SURFACE_CURVE('',#406,(#410,#417),.PCURVE_S1.);
#406 = LINE('',#407,#408);
#407 = CARTESIAN_POINT('',(4.,3.,-0.8));
#408 = VECTOR('',#409,1.);
#409 = DIRECTION('',(0.,0.,1.));
#410 = PCURVE('',#98,#411);
#411 = DEFINITIONAL_REPRESENTATION('',(#412),#416);
#412 = LINE('',#413,#414);
#413 = CARTESIAN_POINT('',(-0.4,-3.));
#414 = VECTOR('',#415,1.);
#415 = DIRECTION('',(1.,0.));
#416 = ( GEOMETRIC_REPRESENTATION_CONTEXT(2) 
PARAMETRIC_REPRESENTATION_CONTEXT() REPRESENTATION_CONTEXT('2D SPACE',''
  ) );
#417 = PCURVE('',#71,#418);
#418 = DEFINITIONAL_REPRESENTATION('',(#419),#422);
#419 = B_SPLINE_CURVE_WITH_KNOTS('',1,(#420,#421),.UNSPECIFIED.,.F.,.F.,
  (2,2),(0.,0.8),.PIECEWISE_BEZIER_KNOTS.);
#420 = CARTESIAN_POINT('',(-0.4,4.));
#421 = CARTESIAN_POINT('',(0.4,4.));
#422 = ( GEOMETRIC_REPRESENTATION_CONTEXT(2) 
PARAMETRIC_REPRESENTATION_CONTEXT() REPRESENTATION_CONTEXT('2D SPACE',''
  ) );
#423 = ORIENTED_EDGE('',*,*,#343,.F.);
#424 = ADVANCED_FACE('',(#425),#71,.T.);
#425 = FACE_BOUND('',#426,.T.);
#426 = EDGE_LOOP('',(#427,#428,#429,#449));
#427 = ORIENTED_EDGE('',*,*,#404,.F.);
#428 = ORIENTED_EDGE('',*,*,#55,.F.);
#429 = ORIENTED_EDGE('',*,*,#430,.T.);
#430 = EDGE_CURVE('',#24,#314,#431,.T.);
#431 = SURFACE_CURVE('',#432,(#436,#443),.PCURVE_S1.);
#432 = LINE('',#433,#434);
#433 = CARTESIAN_POINT('',(-4.,3.,-0.8));
#434 = VECTOR('',#435,1.);
#435 = DIRECTION('',(0.,0.,1.));
#436 = PCURVE('',#71,#437);
#437 = DEFINITIONAL_REPRESENTATION('',(#438),#442);
#438 = LINE('',#439,#440);
#439 = CARTESIAN_POINT('',(-0.4,-4.));
#440 = VECTOR('',#441,1.);
#441 = DIRECTION('',(1.,0.));
#442 = ( GEOMETRIC_REPRESENTATION_CONTEXT(2) 
PARAMETRIC_REPRESENTATION_CONTEXT() REPRESENTATION_CONTEXT('2D SPACE',''
  ) );
#443 = PCURVE('',#44,#444);
#444 = DEFINITIONAL_REPRESENTATION('',(#445),#448);
#445 = B_SPLINE_CURVE_WITH_KNOTS('',1,(#446,#447),.UNSPECIFIED.,.F.,.F.,
  (2,2),(0.,0.8),.PIECEWISE_BEZIER_KNOTS.);
#446 = CARTESIAN_POINT('',(0.4,-3.));
#447 = CARTESIAN_POINT('',(-0.4,-3.));
#448 = ( GEOMETRIC_REPRESENTATION_CONTEXT(2) 
PARAMETRIC_REPRESENTATION_CONTEXT() REPRESENTATION_CONTEXT('2D SPACE',''
  ) );
#449 = ORIENTED_EDGE('',*,*,#372,.T.);
#450 = ADVANCED_FACE('',(#451),#44,.T.);
#451 = FACE_BOUND('',#452,.T.);
#452 = EDGE_LOOP('',(#453,#454,#455,#456));
#453 = ORIENTED_EDGE('',*,*,#430,.F.);
#454 = ORIENTED_EDGE('',*,*,#21,.F.);
#455 = ORIENTED_EDGE('',*,*,#137,.F.);
#456 = ORIENTED_EDGE('',*,*,#313,.T.);
#457 = ( GEOMETRIC_REPRESENTATION_CONTEXT(3) 
GLOBAL_UNCERTAINTY_ASSIGNED_CONTEXT((#461)) GLOBAL_UNIT_ASSIGNED_CONTEXT
((#458,#459,#460)) REPRESENTATION_CONTEXT('Context #1',
  '3D Context with UNIT and UNCERTAINTY') );
#458 = ( LENGTH_UNIT() NAMED_UNIT(*) SI_UNIT(.MILLI.,.METRE.) );
#459 = ( NAMED_UNIT(*) PLANE_ANGLE_UNIT() SI_UNIT($,.RADIAN.) );
#460 = ( NAMED_UNIT(*) SI_UNIT($,.STERADIAN.) SOLID_ANGLE_UNIT() );
#461 = UNCERTAINTY_MEASURE_WITH_UNIT(LENGTH_MEASURE(1.E-07),#458,
  'distance_accuracy_value','confusion accuracy');
#462 = PRODUCT_RELATED_PRODUCT_CATEGORY('part',$,(#7));
ENDSEC;
END-ISO-10303-21;
