ISO-10303-21;
HEADER;

/* File generated by Shapr3D Version 26.51.0.10768 */

FILE_DESCRIPTION(('HOOPS Exchange Step'),'2;1');

FILE_NAME('/Users/fevibon/Library/Containers/com.shapr3d.shapr/Data/tmp/export/temp_export',
'2026-05-04T15:16:55+02:00',
('fevibon'),
('Shapr3D Limited'),
'HOOPS Exchange 2025.9',
'Shapr3D',
'Authorized');

FILE_SCHEMA( ('AP242_MANAGED_MODEL_BASED_3D_ENGINEERING_MIM_LF {1 0 10303 442 1 1 4}') );

ENDSEC;

DATA;
#3=(NAMED_UNIT(*)PLANE_ANGLE_UNIT()SI_UNIT($,.RADIAN.));
#4=PLANE_ANGLE_MEASURE_WITH_UNIT(PLANE_ANGLE_MEASURE(0.0174532925),#3);
#5=(CONVERSION_BASED_UNIT('DEGREE',#4)NAMED_UNIT(#6)PLANE_ANGLE_UNIT());
#6=DIMENSIONAL_EXPONENTS(0.,0.,0.,0.,0.,0.,0.);
#7=(NAMED_UNIT(*)SI_UNIT($,.STERADIAN.)SOLID_ANGLE_UNIT());
#8=(LENGTH_UNIT()NAMED_UNIT(*)SI_UNIT(.MILLI.,.METRE.));
#9=UNCERTAINTY_MEASURE_WITH_UNIT(LENGTH_MEASURE(1.000000E-05),#8,'DISTANCE_ACCURACY_VALUE','Maximum Tolerance applied to model');
#10=(GEOMETRIC_REPRESENTATION_CONTEXT(3)GLOBAL_UNCERTAINTY_ASSIGNED_CONTEXT((#9))GLOBAL_UNIT_ASSIGNED_CONTEXT((#8,#5,#7))REPRESENTATION_CONTEXT('','root'));
#12=CARTESIAN_POINT('',(0.,0.,0.));
#13=DIRECTION('',(0.,0.,1.));
#14=DIRECTION('',(1.,0.,0.));
#15=AXIS2_PLACEMENT_3D('',#12,#13,#14);
#27=CARTESIAN_POINT('',(-9.097099027,-7.535052339,0.));
#28=CARTESIAN_POINT('',(-9.446990168,-7.535052339,3.006646134));
#29=CARTESIAN_POINT('',(-9.522109688,-7.535052339,6.026695281));
#30=CARTESIAN_POINT('',(-9.207449811,-7.535052339,10.496185992));
#31=CARTESIAN_POINT('',(-9.031460478,-7.535052339,11.975829778));
#32=CARTESIAN_POINT('',(-8.536343078,-7.535052339,14.900739035));
#33=CARTESIAN_POINT('',(-8.217206378,-7.535052339,16.345984888));
#34=CARTESIAN_POINT('',(-7.436216703,-7.535052339,19.187377316));
#35=CARTESIAN_POINT('',(-6.974360171,-7.535052339,20.583513112));
#36=CARTESIAN_POINT('',(-5.909894805,-7.535052339,23.311823338));
#37=CARTESIAN_POINT('',(-5.307280243,-7.535052339,24.643969142));
#38=CARTESIAN_POINT('',(-3.965222572,-7.535052339,27.229006369));
#39=CARTESIAN_POINT('',(-3.225776619,-7.535052339,28.481882493));
#40=CARTESIAN_POINT('',(-1.616050611,-7.535052339,30.893396619));
#41=CARTESIAN_POINT('',(-0.74577698,-7.535052339,32.051996297));
#42=CARTESIAN_POINT('',(1.117151215,-7.535052339,34.260351434));
#43=CARTESIAN_POINT('',(2.109800337,-7.535052339,35.310087243));
#44=CARTESIAN_POINT('',(4.206735525,-7.535052339,37.287355749));
#45=CARTESIAN_POINT('',(5.310993983,-7.535052339,38.214850489));
#46=CARTESIAN_POINT('',(7.618104384,-7.535052339,39.935891411));
#47=CARTESIAN_POINT('',(8.820938554,-7.535052339,40.72942283));
#48=CARTESIAN_POINT('',(11.310421628,-7.535052339,42.173080524));
#49=CARTESIAN_POINT('',(12.597026291,-7.535052339,42.823185986));
#50=CARTESIAN_POINT('',(15.23803014,-7.535052339,43.973106964));
#51=CARTESIAN_POINT('',(16.592407348,-7.535052339,44.472921289));
#52=CARTESIAN_POINT('',(19.35237359,-7.535052339,45.318072027));
#53=CARTESIAN_POINT('',(20.75791946,-7.535052339,45.663410518));
#54=CARTESIAN_POINT('',(23.603768886,-7.535052339,46.198031846));
#55=CARTESIAN_POINT('',(25.044057191,-7.535052339,46.38732328));
#56=CARTESIAN_POINT('',(27.943382787,-7.535052339,46.610527203));
#57=CARTESIAN_POINT('',(29.402390308,-7.535052339,46.644454598));
#58=CARTESIAN_POINT('',(32.324138544,-7.535052339,46.559525485));
#59=CARTESIAN_POINT('',(33.786871419,-7.535052339,46.440677825));
#60=CARTESIAN_POINT('',(36.701856656,-7.535052339,46.054284874));
#61=CARTESIAN_POINT('',(38.15409147,-7.535052339,45.786755769));
#62=CARTESIAN_POINT('',(41.035036384,-7.535052339,45.108240083));
#63=CARTESIAN_POINT('',(42.463739977,-7.535052339,44.697259006));
#64=CARTESIAN_POINT('',(45.285273277,-7.535052339,43.738019607));
#65=CARTESIAN_POINT('',(46.678091452,-7.535052339,43.189774631));
#66=CARTESIAN_POINT('',(50.785702853,-7.535052339,41.349423533));
#67=CARTESIAN_POINT('',(53.429232419,-7.535052339,39.861466153));
#68=CARTESIAN_POINT('',(58.442921856,-7.535052339,36.425971178));
#69=CARTESIAN_POINT('',(60.813118692,-7.535052339,34.478459612));
#70=CARTESIAN_POINT('',(65.205831284,-7.535052339,30.195223627));
#71=CARTESIAN_POINT('',(67.228339022,-7.535052339,27.85951622));
#72=CARTESIAN_POINT('',(70.860115495,-7.535052339,22.879433392));
#73=CARTESIAN_POINT('',(72.469355822,-7.535052339,20.235080493));
#74=CARTESIAN_POINT('',(75.218431321,-7.535052339,14.724863739));
#75=CARTESIAN_POINT('',(76.35823099,-7.535052339,11.859019462));
#76=CARTESIAN_POINT('',(78.122644578,-7.535052339,5.999910236));
#77=CARTESIAN_POINT('',(78.747207886,-7.535052339,3.006646123));
#78=CARTESIAN_POINT('',(79.446990167,-7.535052339,-3.006646123));
#79=CARTESIAN_POINT('',(79.522109688,-7.535052339,-6.026695281));
#80=CARTESIAN_POINT('',(79.207449811,-7.535052339,-10.496185992));
#81=CARTESIAN_POINT('',(79.031460478,-7.535052339,-11.975829778));
#82=CARTESIAN_POINT('',(78.536343078,-7.535052339,-14.900739035));
#83=CARTESIAN_POINT('',(78.217206378,-7.535052339,-16.345984888));
#84=CARTESIAN_POINT('',(77.436216703,-7.535052339,-19.187377316));
#85=CARTESIAN_POINT('',(76.974360171,-7.535052339,-20.583513112));
#86=CARTESIAN_POINT('',(75.909894805,-7.535052339,-23.311823338));
#87=CARTESIAN_POINT('',(75.307280243,-7.535052339,-24.643969142));
#88=CARTESIAN_POINT('',(73.965222572,-7.535052339,-27.229006369));
#89=CARTESIAN_POINT('',(73.225776619,-7.535052339,-28.481882493));
#90=CARTESIAN_POINT('',(71.616050611,-7.535052339,-30.893396619));
#91=CARTESIAN_POINT('',(70.74577698,-7.535052339,-32.051996297));
#92=CARTESIAN_POINT('',(68.882848785,-7.535052339,-34.260351434));
#93=CARTESIAN_POINT('',(67.890199663,-7.535052339,-35.310087243));
#94=CARTESIAN_POINT('',(65.793264475,-7.535052339,-37.287355749));
#95=CARTESIAN_POINT('',(64.689006017,-7.535052339,-38.214850489));
#96=CARTESIAN_POINT('',(62.381895616,-7.535052339,-39.935891411));
#97=CARTESIAN_POINT('',(61.179061446,-7.535052339,-40.72942283));
#98=CARTESIAN_POINT('',(58.689578372,-7.535052339,-42.173080524));
#99=CARTESIAN_POINT('',(57.402973709,-7.535052339,-42.823185986));
#100=CARTESIAN_POINT('',(54.76196986,-7.535052339,-43.973106964));
#101=CARTESIAN_POINT('',(53.407592652,-7.535052339,-44.472921289));
#102=CARTESIAN_POINT('',(50.64762641,-7.535052339,-45.318072027));
#103=CARTESIAN_POINT('',(49.24208054,-7.535052339,-45.663410518));
#104=CARTESIAN_POINT('',(46.396231114,-7.535052339,-46.198031846));
#105=CARTESIAN_POINT('',(44.955942809,-7.535052339,-46.38732328));
#106=CARTESIAN_POINT('',(42.056617213,-7.535052339,-46.610527203));
#107=CARTESIAN_POINT('',(40.597609692,-7.535052339,-46.644454598));
#108=CARTESIAN_POINT('',(37.675861456,-7.535052339,-46.559525485));
#109=CARTESIAN_POINT('',(36.213128581,-7.535052339,-46.440677825));
#110=CARTESIAN_POINT('',(33.298143344,-7.535052339,-46.054284874));
#111=CARTESIAN_POINT('',(31.84590853,-7.535052339,-45.786755769));
#112=CARTESIAN_POINT('',(28.964963616,-7.535052339,-45.108240083));
#113=CARTESIAN_POINT('',(27.536260023,-7.535052339,-44.697259006));
#114=CARTESIAN_POINT('',(24.714726723,-7.535052339,-43.738019607));
#115=CARTESIAN_POINT('',(23.321908548,-7.535052339,-43.189774631));
#116=CARTESIAN_POINT('',(19.214297147,-7.535052339,-41.349423533));
#117=CARTESIAN_POINT('',(16.570767581,-7.535052339,-39.861466153));
#118=CARTESIAN_POINT('',(11.557078144,-7.535052339,-36.425971178));
#119=CARTESIAN_POINT('',(9.186881308,-7.535052339,-34.478459612));
#120=CARTESIAN_POINT('',(4.794168716,-7.535052339,-30.195223627));
#121=CARTESIAN_POINT('',(2.771660978,-7.535052339,-27.85951622));
#122=CARTESIAN_POINT('',(-0.860115495,-7.535052339,-22.879433392));
#123=CARTESIAN_POINT('',(-2.469355822,-7.535052339,-20.235080493));
#124=CARTESIAN_POINT('',(-5.218431321,-7.535052339,-14.724863739));
#125=CARTESIAN_POINT('',(-6.35823099,-7.535052339,-11.859019462));
#126=CARTESIAN_POINT('',(-8.122644578,-7.535052339,-5.999910236));
#127=CARTESIAN_POINT('',(-8.747207885,-7.535052339,-3.006646134));
#128=CARTESIAN_POINT('',(-9.097099027,-7.535052339,0.));
#129=CARTESIAN_POINT('',(-4.858294053,-15.700377342,0.));
#130=CARTESIAN_POINT('',(-5.208185195,-15.700377342,2.753135691));
#131=CARTESIAN_POINT('',(-5.305994281,-15.700377342,5.513099983));
#132=CARTESIAN_POINT('',(-5.065109224,-15.700377342,9.587083425));
#133=CARTESIAN_POINT('',(-4.920345212,-15.700377342,10.934031107));
#134=CARTESIAN_POINT('',(-4.501922474,-15.700377342,13.593045039));
#135=CARTESIAN_POINT('',(-4.228259149,-15.700377342,14.905092102));
#136=CARTESIAN_POINT('',(-3.55332264,-15.700377342,17.481210351));
#137=CARTESIAN_POINT('',(-3.152050224,-15.700377342,18.745271717));
#138=CARTESIAN_POINT('',(-2.22447701,-15.700377342,21.212566222));
#139=CARTESIAN_POINT('',(-1.69817526,-15.700377342,22.415774877));
#140=CARTESIAN_POINT('',(-0.524664558,-15.700377342,24.748472352));
#141=CARTESIAN_POINT('',(0.122543136,-15.700377342,25.877950791));
#142=CARTESIAN_POINT('',(1.532227955,-15.700377342,28.050854171));
#143=CARTESIAN_POINT('',(2.294697063,-15.700377342,29.094249743));
#144=CARTESIAN_POINT('',(3.927506498,-15.700377342,31.083143498));
#145=CARTESIAN_POINT('',(4.797841841,-15.700377342,32.028630305));
#146=CARTESIAN_POINT('',(6.637414383,-15.700377342,33.81096005));
#147=CARTESIAN_POINT('',(7.606629847,-15.700377342,34.647775076));
#148=CARTESIAN_POINT('',(9.633381796,-15.700377342,36.203247848));
#149=CARTESIAN_POINT('',(10.690907595,-15.700377342,36.921897083));
#150=CARTESIAN_POINT('',(12.882470302,-15.700377342,38.233194803));
#151=CARTESIAN_POINT('',(14.016474708,-15.700377342,38.825826627));
#152=CARTESIAN_POINT('',(16.34821479,-15.700377342,39.879061813));
#153=CARTESIAN_POINT('',(17.545937659,-15.700377342,40.339663294));
#154=CARTESIAN_POINT('',(19.991762508,-15.700377342,41.124717341));
#155=CARTESIAN_POINT('',(21.239831518,-15.700377342,41.449168111));
#156=CARTESIAN_POINT('',(23.772851451,-15.700377342,41.959696161));
#157=CARTESIAN_POINT('',(25.057792152,-15.700377342,42.145776204));
#158=CARTESIAN_POINT('',(27.651063315,-15.700377342,42.37904288));
#159=CARTESIAN_POINT('',(28.959367952,-15.700377342,42.426237297));
#160=CARTESIAN_POINT('',(31.586304454,-15.700377342,42.382777124));
#161=CARTESIAN_POINT('',(32.904928406,-15.700377342,42.292125646));
#162=CARTESIAN_POINT('',(35.539703603,-15.700377342,41.975350094));
#163=CARTESIAN_POINT('',(36.855836447,-15.700377342,41.749236774));
#164=CARTESIAN_POINT('',(39.473475502,-15.700377342,41.165074685));
#165=CARTESIAN_POINT('',(40.774972944,-15.700377342,40.80702835));
#166=CARTESIAN_POINT('',(43.35148821,-15.700377342,39.963591974));
#167=CARTESIAN_POINT('',(44.626492196,-15.700377342,39.478212719));
#168=CARTESIAN_POINT('',(48.395005226,-15.700377342,37.839271485));
#169=CARTESIAN_POINT('',(50.831655866,-15.700377342,36.502551098));
#170=CARTESIAN_POINT('',(55.469240002,-15.700377342,33.394976206));
#171=CARTESIAN_POINT('',(57.670141199,-15.700377342,31.624168377));
#172=CARTESIAN_POINT('',(61.760224986,-15.700377342,27.714682716));
#173=CARTESIAN_POINT('',(63.649357937,-15.700377342,25.576056044));
#174=CARTESIAN_POINT('',(67.049525061,-15.700377342,21.007884161));
#175=CARTESIAN_POINT('',(68.560506589,-15.700377342,18.578400397));
#176=CARTESIAN_POINT('',(71.149200367,-15.700377342,13.514470948));
#177=CARTESIAN_POINT('',(72.226865235,-15.700377342,10.880090753));
#178=CARTESIAN_POINT('',(73.906489056,-15.700377342,5.499393462));
#179=CARTESIAN_POINT('',(74.508402913,-15.700377342,2.753135682));
#180=CARTESIAN_POINT('',(75.208185194,-15.700377342,-2.753135682));
#181=CARTESIAN_POINT('',(75.305994281,-15.700377342,-5.513099983));
#182=CARTESIAN_POINT('',(75.065109224,-15.700377342,-9.587083425));
#183=CARTESIAN_POINT('',(74.920345212,-15.700377342,-10.934031107));
#184=CARTESIAN_POINT('',(74.501922474,-15.700377342,-13.593045039));
#185=CARTESIAN_POINT('',(74.228259149,-15.700377342,-14.905092102));
#186=CARTESIAN_POINT('',(73.55332264,-15.700377342,-17.481210351));
#187=CARTESIAN_POINT('',(73.152050224,-15.700377342,-18.745271717));
#188=CARTESIAN_POINT('',(72.22447701,-15.700377342,-21.212566222));
#189=CARTESIAN_POINT('',(71.69817526,-15.700377342,-22.415774877));
#190=CARTESIAN_POINT('',(70.524664558,-15.700377342,-24.748472352));
#191=CARTESIAN_POINT('',(69.877456864,-15.700377342,-25.877950791));
#192=CARTESIAN_POINT('',(68.467772045,-15.700377342,-28.050854171));
#193=CARTESIAN_POINT('',(67.705302937,-15.700377342,-29.094249743));
#194=CARTESIAN_POINT('',(66.072493502,-15.700377342,-31.083143498));
#195=CARTESIAN_POINT('',(65.202158159,-15.700377342,-32.028630305));
#196=CARTESIAN_POINT('',(63.362585617,-15.700377342,-33.81096005));
#197=CARTESIAN_POINT('',(62.393370153,-15.700377342,-34.647775076));
#198=CARTESIAN_POINT('',(60.366618204,-15.700377342,-36.203247848));
#199=CARTESIAN_POINT('',(59.309092405,-15.700377342,-36.921897083));
#200=CARTESIAN_POINT('',(57.117529698,-15.700377342,-38.233194803));
#201=CARTESIAN_POINT('',(55.983525292,-15.700377342,-38.825826627));
#202=CARTESIAN_POINT('',(53.65178521,-15.700377342,-39.879061813));
#203=CARTESIAN_POINT('',(52.454062341,-15.700377342,-40.339663294));
#204=CARTESIAN_POINT('',(50.008237492,-15.700377342,-41.124717341));
#205=CARTESIAN_POINT('',(48.760168482,-15.700377342,-41.449168111));
#206=CARTESIAN_POINT('',(46.227148549,-15.700377342,-41.959696161));
#207=CARTESIAN_POINT('',(44.942207848,-15.700377342,-42.145776204));
#208=CARTESIAN_POINT('',(42.348936685,-15.700377342,-42.37904288));
#209=CARTESIAN_POINT('',(41.040632048,-15.700377342,-42.426237297));
#210=CARTESIAN_POINT('',(38.413695546,-15.700377342,-42.382777124));
#211=CARTESIAN_POINT('',(37.095071594,-15.700377342,-42.292125646));
#212=CARTESIAN_POINT('',(34.460296397,-15.700377342,-41.975350094));
#213=CARTESIAN_POINT('',(33.144163553,-15.700377342,-41.749236774));
#214=CARTESIAN_POINT('',(30.526524498,-15.700377342,-41.165074685));
#215=CARTESIAN_POINT('',(29.225027056,-15.700377342,-40.80702835));
#216=CARTESIAN_POINT('',(26.64851179,-15.700377342,-39.963591974));
#217=CARTESIAN_POINT('',(25.373507804,-15.700377342,-39.478212719));
#218=CARTESIAN_POINT('',(21.604994774,-15.700377342,-37.839271485));
#219=CARTESIAN_POINT('',(19.168344134,-15.700377342,-36.502551098));
#220=CARTESIAN_POINT('',(14.530759998,-15.700377342,-33.394976206));
#221=CARTESIAN_POINT('',(12.329858801,-15.700377342,-31.624168377));
#222=CARTESIAN_POINT('',(8.239775014,-15.700377342,-27.714682716));
#223=CARTESIAN_POINT('',(6.350642063,-15.700377342,-25.576056044));
#224=CARTESIAN_POINT('',(2.950474939,-15.700377342,-21.007884161));
#225=CARTESIAN_POINT('',(1.439493411,-15.700377342,-18.578400397));
#226=CARTESIAN_POINT('',(-1.149200367,-15.700377342,-13.514470948));
#227=CARTESIAN_POINT('',(-2.226865235,-15.700377342,-10.880090753));
#228=CARTESIAN_POINT('',(-3.906489056,-15.700377342,-5.499393462));
#229=CARTESIAN_POINT('',(-4.508402912,-15.700377342,-2.753135691));
#230=CARTESIAN_POINT('',(-4.858294053,-15.700377342,0.));
#231=CARTESIAN_POINT('',(11.117341821,-7.407063264,0.));
#232=CARTESIAN_POINT('',(10.76745068,-7.407063264,1.797679957));
#233=CARTESIAN_POINT('',(10.584126867,-7.407063264,3.577410203));
#234=CARTESIAN_POINT('',(10.546961939,-7.407063264,6.160765946));
#235=CARTESIAN_POINT('',(10.57404081,-7.407063264,7.007595159));
#236=CARTESIAN_POINT('',(10.703408969,-7.407063264,8.664475962));
#237=CARTESIAN_POINT('',(10.805687649,-7.407063264,9.474509985));
#238=CARTESIAN_POINT('',(11.080920285,-7.407063264,11.050836142));
#239=CARTESIAN_POINT('',(11.253857176,-7.407063264,11.817122067));
#240=CARTESIAN_POINT('',(11.665497434,-7.407063264,13.300674188));
#241=CARTESIAN_POINT('',(11.904183754,-7.407063264,14.017931509));
#242=CARTESIAN_POINT('',(12.442457633,-7.407063264,15.399585462));
#243=CARTESIAN_POINT('',(12.742028473,-7.407063264,16.063990259));
#244=CARTESIAN_POINT('',(13.39777787,-7.407063264,17.337593384));
#245=CARTESIAN_POINT('',(13.753942418,-7.407063264,17.946796095));
#246=CARTESIAN_POINT('',(14.519457051,-7.407063264,19.108561651));
#247=CARTESIAN_POINT('',(14.928803884,-7.407063264,19.661144301));
#248=CARTESIAN_POINT('',(15.798402116,-7.407063264,20.708769176));
#249=CARTESIAN_POINT('',(16.258653918,-7.407063264,21.203821345));
#250=CARTESIAN_POINT('',(17.228762646,-7.407063264,22.135284165));
#251=CARTESIAN_POINT('',(17.738635595,-7.407063264,22.571709872));
#252=CARTESIAN_POINT('',(18.807365964,-7.407063264,23.384155967));
#253=CARTESIAN_POINT('',(19.366235124,-7.407063264,23.760175344));
#254=CARTESIAN_POINT('',(20.532390717,-7.407063264,24.449011363));
#255=CARTESIAN_POINT('',(21.139698905,-7.407063264,24.76182352));
#256=CARTESIAN_POINT('',(22.401555976,-7.407063264,25.320379096));
#257=CARTESIAN_POINT('',(23.056110306,-7.407063264,25.566106115));
#258=CARTESIAN_POINT('',(24.410106883,-7.407063264,25.985828986));
#259=CARTESIAN_POINT('',(25.109557859,-7.407063264,26.159805617));
#260=CARTESIAN_POINT('',(26.549340196,-7.407063264,26.430997813));
#261=CARTESIAN_POINT('',(27.289660599,-7.407063264,26.528194317));
#262=CARTESIAN_POINT('',(28.80548089,-7.407063264,26.641026474));
#263=CARTESIAN_POINT('',(29.58097259,-7.407063264,26.656643607));
#264=CARTESIAN_POINT('',(31.159663915,-7.407063264,26.602249132));
#265=CARTESIAN_POINT('',(31.962841926,-7.407063264,26.5322278));
#266=CARTESIAN_POINT('',(33.588107288,-7.407063264,26.303675071));
#267=CARTESIAN_POINT('',(34.410177358,-7.407063264,26.145134533));
#268=CARTESIAN_POINT('',(36.063243931,-7.407063264,25.738148273));
#269=CARTESIAN_POINT('',(36.894217913,-7.407063264,25.48970369));
#270=CARTESIAN_POINT('',(39.384702787,-7.407063264,24.609856272));
#271=CARTESIAN_POINT('',(41.041647263,-7.407063264,23.843133125));
#272=CARTESIAN_POINT('',(44.261727787,-7.407063264,21.971456528));
#273=CARTESIAN_POINT('',(45.824570502,-7.407063264,20.866627572));
#274=CARTESIAN_POINT('',(48.774076312,-7.407063264,18.365769843));
#275=CARTESIAN_POINT('',(50.160532909,-7.407063264,16.969920934));
#276=CARTESIAN_POINT('',(52.687787347,-7.407063264,13.954200581));
#277=CARTESIAN_POINT('',(53.828441202,-7.407063264,12.334537292));
#278=CARTESIAN_POINT('',(55.812672167,-7.407063264,8.952620468));
#279=CARTESIAN_POINT('',(56.656157126,-7.407063264,7.190605459));
#280=CARTESIAN_POINT('',(58.016216721,-7.407063264,3.612995342));
#281=CARTESIAN_POINT('',(58.532767038,-7.407063264,1.797679951));
#282=CARTESIAN_POINT('',(59.232549319,-7.407063264,-1.797679951));
#283=CARTESIAN_POINT('',(59.415873133,-7.407063264,-3.577410203));
#284=CARTESIAN_POINT('',(59.453038061,-7.407063264,-6.160765946));
#285=CARTESIAN_POINT('',(59.42595919,-7.407063264,-7.007595159));
#286=CARTESIAN_POINT('',(59.296591031,-7.407063264,-8.664475962));
#287=CARTESIAN_POINT('',(59.194312351,-7.407063264,-9.474509985));
#288=CARTESIAN_POINT('',(58.919079715,-7.407063264,-11.050836142));
#289=CARTESIAN_POINT('',(58.746142824,-7.407063264,-11.817122067));
#290=CARTESIAN_POINT('',(58.334502566,-7.407063264,-13.300674188));
#291=CARTESIAN_POINT('',(58.095816246,-7.407063264,-14.017931509));
#292=CARTESIAN_POINT('',(57.557542367,-7.407063264,-15.399585462));
#293=CARTESIAN_POINT('',(57.257971527,-7.407063264,-16.063990259));
#294=CARTESIAN_POINT('',(56.60222213,-7.407063264,-17.337593384));
#295=CARTESIAN_POINT('',(56.246057582,-7.407063264,-17.946796095));
#296=CARTESIAN_POINT('',(55.480542949,-7.407063264,-19.108561651));
#297=CARTESIAN_POINT('',(55.071196116,-7.407063264,-19.661144301));
#298=CARTESIAN_POINT('',(54.201597884,-7.407063264,-20.708769176));
#299=CARTESIAN_POINT('',(53.741346082,-7.407063264,-21.203821345));
#300=CARTESIAN_POINT('',(52.771237354,-7.407063264,-22.135284165));
#301=CARTESIAN_POINT('',(52.261364405,-7.407063264,-22.571709872));
#302=CARTESIAN_POINT('',(51.192634036,-7.407063264,-23.384155967));
#303=CARTESIAN_POINT('',(50.633764876,-7.407063264,-23.760175344));
#304=CARTESIAN_POINT('',(49.467609283,-7.407063264,-24.449011363));
#305=CARTESIAN_POINT('',(48.860301095,-7.407063264,-24.76182352));
#306=CARTESIAN_POINT('',(47.598444024,-7.407063264,-25.320379096));
#307=CARTESIAN_POINT('',(46.943889694,-7.407063264,-25.566106115));
#308=CARTESIAN_POINT('',(45.589893117,-7.407063264,-25.985828986));
#309=CARTESIAN_POINT('',(44.890442141,-7.407063264,-26.159805617));
#310=CARTESIAN_POINT('',(43.450659804,-7.407063264,-26.430997813));
#311=CARTESIAN_POINT('',(42.710339401,-7.407063264,-26.528194317));
#312=CARTESIAN_POINT('',(41.19451911,-7.407063264,-26.641026474));
#313=CARTESIAN_POINT('',(40.41902741,-7.407063264,-26.656643607));
#314=CARTESIAN_POINT('',(38.840336085,-7.407063264,-26.602249132));
#315=CARTESIAN_POINT('',(38.037158074,-7.407063264,-26.5322278));
#316=CARTESIAN_POINT('',(36.411892712,-7.407063264,-26.303675071));
#317=CARTESIAN_POINT('',(35.589822642,-7.407063264,-26.145134533));
#318=CARTESIAN_POINT('',(33.936756069,-7.407063264,-25.738148273));
#319=CARTESIAN_POINT('',(33.105782087,-7.407063264,-25.48970369));
#320=CARTESIAN_POINT('',(30.615297213,-7.407063264,-24.609856272));
#321=CARTESIAN_POINT('',(28.958352737,-7.407063264,-23.843133125));
#322=CARTESIAN_POINT('',(25.738272213,-7.407063264,-21.971456528));
#323=CARTESIAN_POINT('',(24.175429498,-7.407063264,-20.866627572));
#324=CARTESIAN_POINT('',(21.225923688,-7.407063264,-18.365769843));
#325=CARTESIAN_POINT('',(19.839467091,-7.407063264,-16.969920934));
#326=CARTESIAN_POINT('',(17.312212653,-7.407063264,-13.954200581));
#327=CARTESIAN_POINT('',(16.171558798,-7.407063264,-12.334537292));
#328=CARTESIAN_POINT('',(14.187327833,-7.407063264,-8.952620468));
#329=CARTESIAN_POINT('',(13.343842874,-7.407063264,-7.190605458));
#330=CARTESIAN_POINT('',(11.983783279,-7.407063264,-3.612995342));
#331=CARTESIAN_POINT('',(11.467232963,-7.407063264,-1.797679957));
#332=CARTESIAN_POINT('',(11.117341821,-7.407063264,0.));
#333=CARTESIAN_POINT('',(6.878536848,0.758261739,0.));
#334=CARTESIAN_POINT('',(6.528645707,0.758261739,2.051190399));
#335=CARTESIAN_POINT('',(6.36801146,0.758261739,4.091005501));
#336=CARTESIAN_POINT('',(6.404621352,0.758261739,7.069868512));
#337=CARTESIAN_POINT('',(6.462925544,0.758261739,8.04939383));
#338=CARTESIAN_POINT('',(6.668988365,0.758261739,9.972169958));
#339=CARTESIAN_POINT('',(6.81674042,0.758261739,10.915402771));
#340=CARTESIAN_POINT('',(7.198026222,0.758261739,12.757003107));
#341=CARTESIAN_POINT('',(7.431547228,0.758261739,13.655363463));
#342=CARTESIAN_POINT('',(7.980079638,0.758261739,15.399931305));
#343=CARTESIAN_POINT('',(8.295078772,0.758261739,16.246125774));
#344=CARTESIAN_POINT('',(9.00189962,0.758261739,17.88011948));
#345=CARTESIAN_POINT('',(9.393708718,0.758261739,18.667921961));
#346=CARTESIAN_POINT('',(10.249499305,0.758261739,20.180135831));
#347=CARTESIAN_POINT('',(10.713468375,0.758261739,20.904542649));
#348=CARTESIAN_POINT('',(11.709101768,0.758261739,22.285769587));
#349=CARTESIAN_POINT('',(12.24076238,0.758261739,22.942601238));
#350=CARTESIAN_POINT('',(13.367723258,0.758261739,24.185164874));
#351=CARTESIAN_POINT('',(13.963018055,0.758261739,24.770896758));
#352=CARTESIAN_POINT('',(15.213485234,0.758261739,25.867927728));
#353=CARTESIAN_POINT('',(15.868666554,0.758261739,26.379235619));
#354=CARTESIAN_POINT('',(17.23531729,0.758261739,27.324041688));
#355=CARTESIAN_POINT('',(17.946786707,0.758261739,27.757534703));
#356=CARTESIAN_POINT('',(19.422206067,0.758261739,28.543056513));
#357=CARTESIAN_POINT('',(20.186168594,0.758261739,28.895081515));
#358=CARTESIAN_POINT('',(21.762167058,0.758261739,29.513733782));
#359=CARTESIAN_POINT('',(22.574198248,0.758261739,29.780348521));
#360=CARTESIAN_POINT('',(24.241024317,0.758261739,30.224164671));
#361=CARTESIAN_POINT('',(25.095822898,0.758261739,30.401352692));
#362=CARTESIAN_POINT('',(26.841659668,0.758261739,30.662482135));
#363=CARTESIAN_POINT('',(27.732682954,0.758261739,30.746411618));
#364=CARTESIAN_POINT('',(29.54331498,0.758261739,30.817774834));
#365=CARTESIAN_POINT('',(30.462915603,0.758261739,30.805195786));
#366=CARTESIAN_POINT('',(32.321816968,0.758261739,30.681183912));
#367=CARTESIAN_POINT('',(33.261096948,0.758261739,30.569746796));
#368=CARTESIAN_POINT('',(35.149668171,0.758261739,30.246840469));
#369=CARTESIAN_POINT('',(36.09894439,0.758261739,30.035365189));
#370=CARTESIAN_POINT('',(37.997028998,0.758261739,29.512575906));
#371=CARTESIAN_POINT('',(38.945817169,0.758261739,29.201265603));
#372=CARTESIAN_POINT('',(41.775400415,0.758261739,28.120008321));
#373=CARTESIAN_POINT('',(43.639223815,0.758261739,27.20204818));
#374=CARTESIAN_POINT('',(47.235409642,0.758261739,25.0024515));
#375=CARTESIAN_POINT('',(48.967547995,0.758261739,23.720918808));
#376=CARTESIAN_POINT('',(52.219682609,0.758261739,20.846310755));
#377=CARTESIAN_POINT('',(53.739513994,0.758261739,19.25338111));
#378=CARTESIAN_POINT('',(56.498377781,0.758261739,15.825749812));
#379=CARTESIAN_POINT('',(57.737290434,0.758261739,13.991217388));
#380=CARTESIAN_POINT('',(59.88190312,0.758261739,10.163013259));
#381=CARTESIAN_POINT('',(60.787522881,0.758261739,8.169534168));
#382=CARTESIAN_POINT('',(62.232372242,0.758261739,4.113512116));
#383=CARTESIAN_POINT('',(62.771572011,0.758261739,2.051190392));
#384=CARTESIAN_POINT('',(63.471354292,0.758261739,-2.051190392));
#385=CARTESIAN_POINT('',(63.63198854,0.758261739,-4.091005501));
#386=CARTESIAN_POINT('',(63.595378648,0.758261739,-7.069868512));
#387=CARTESIAN_POINT('',(63.537074456,0.758261739,-8.04939383));
#388=CARTESIAN_POINT('',(63.331011635,0.758261739,-9.972169958));
#389=CARTESIAN_POINT('',(63.18325958,0.758261739,-10.915402771));
#390=CARTESIAN_POINT('',(62.801973778,0.758261739,-12.757003107));
#391=CARTESIAN_POINT('',(62.568452772,0.758261739,-13.655363463));
#392=CARTESIAN_POINT('',(62.019920362,0.758261739,-15.399931305));
#393=CARTESIAN_POINT('',(61.704921228,0.758261739,-16.246125774));
#394=CARTESIAN_POINT('',(60.99810038,0.758261739,-17.88011948));
#395=CARTESIAN_POINT('',(60.606291282,0.758261739,-18.667921961));
#396=CARTESIAN_POINT('',(59.750500695,0.758261739,-20.180135831));
#397=CARTESIAN_POINT('',(59.286531625,0.758261739,-20.904542649));
#398=CARTESIAN_POINT('',(58.290898232,0.758261739,-22.285769587));
#399=CARTESIAN_POINT('',(57.75923762,0.758261739,-22.942601238));
#400=CARTESIAN_POINT('',(56.632276742,0.758261739,-24.185164874));
#401=CARTESIAN_POINT('',(56.036981945,0.758261739,-24.770896758));
#402=CARTESIAN_POINT('',(54.786514766,0.758261739,-25.867927728));
#403=CARTESIAN_POINT('',(54.131333446,0.758261739,-26.379235619));
#404=CARTESIAN_POINT('',(52.76468271,0.758261739,-27.324041688));
#405=CARTESIAN_POINT('',(52.053213293,0.758261739,-27.757534703));
#406=CARTESIAN_POINT('',(50.577793933,0.758261739,-28.543056513));
#407=CARTESIAN_POINT('',(49.813831406,0.758261739,-28.895081515));
#408=CARTESIAN_POINT('',(48.237832942,0.758261739,-29.513733782));
#409=CARTESIAN_POINT('',(47.425801752,0.758261739,-29.780348521));
#410=CARTESIAN_POINT('',(45.758975683,0.758261739,-30.224164671));
#411=CARTESIAN_POINT('',(44.904177102,0.758261739,-30.401352692));
#412=CARTESIAN_POINT('',(43.158340332,0.758261739,-30.662482135));
#413=CARTESIAN_POINT('',(42.267317046,0.758261739,-30.746411618));
#414=CARTESIAN_POINT('',(40.45668502,0.758261739,-30.817774834));
#415=CARTESIAN_POINT('',(39.537084397,0.758261739,-30.805195786));
#416=CARTESIAN_POINT('',(37.678183032,0.758261739,-30.681183912));
#417=CARTESIAN_POINT('',(36.738903052,0.758261739,-30.569746796));
#418=CARTESIAN_POINT('',(34.850331829,0.758261739,-30.246840469));
#419=CARTESIAN_POINT('',(33.90105561,0.758261739,-30.035365189));
#420=CARTESIAN_POINT('',(32.002971002,0.758261739,-29.512575906));
#421=CARTESIAN_POINT('',(31.054182831,0.758261739,-29.201265603));
#422=CARTESIAN_POINT('',(28.224599585,0.758261739,-28.120008321));
#423=CARTESIAN_POINT('',(26.360776185,0.758261739,-27.20204818));
#424=CARTESIAN_POINT('',(22.764590358,0.758261739,-25.0024515));
#425=CARTESIAN_POINT('',(21.032452005,0.758261739,-23.720918808));
#426=CARTESIAN_POINT('',(17.780317391,0.758261739,-20.846310755));
#427=CARTESIAN_POINT('',(16.260486006,0.758261739,-19.25338111));
#428=CARTESIAN_POINT('',(13.501622219,0.758261739,-15.825749812));
#429=CARTESIAN_POINT('',(12.262709566,0.758261739,-13.991217388));
#430=CARTESIAN_POINT('',(10.11809688,0.758261739,-10.163013259));
#431=CARTESIAN_POINT('',(9.212477119,0.758261739,-8.169534168));
#432=CARTESIAN_POINT('',(7.767627758,0.758261739,-4.113512116));
#433=CARTESIAN_POINT('',(7.22842799,0.758261739,-2.051190399));
#434=CARTESIAN_POINT('',(6.878536848,0.758261739,0.));
#435=CARTESIAN_POINT('',(2.639731875,8.923586741,0.));
#436=CARTESIAN_POINT('',(2.289840734,8.923586741,2.304700842));
#437=CARTESIAN_POINT('',(2.151896053,8.923586741,4.604600799));
#438=CARTESIAN_POINT('',(2.262280765,8.923586741,7.978971078));
#439=CARTESIAN_POINT('',(2.351810278,8.923586741,9.091192501));
#440=CARTESIAN_POINT('',(2.634567761,8.923586741,11.279863953));
#441=CARTESIAN_POINT('',(2.827793191,8.923586741,12.356295557));
#442=CARTESIAN_POINT('',(3.315132159,8.923586741,14.463170072));
#443=CARTESIAN_POINT('',(3.60923728,8.923586741,15.493604858));
#444=CARTESIAN_POINT('',(4.294661843,8.923586741,17.499188421));
#445=CARTESIAN_POINT('',(4.685973789,8.923586741,18.474320039));
#446=CARTESIAN_POINT('',(5.561341606,8.923586741,20.360653497));
#447=CARTESIAN_POINT('',(6.045388963,8.923586741,21.271853662));
#448=CARTESIAN_POINT('',(7.10122074,8.923586741,23.022678279));
#449=CARTESIAN_POINT('',(7.672994332,8.923586741,23.862289203));
#450=CARTESIAN_POINT('',(8.898746485,8.923586741,25.462977523));
#451=CARTESIAN_POINT('',(9.552720875,8.923586741,26.224058176));
#452=CARTESIAN_POINT('',(10.9370444,8.923586741,27.661560573));
#453=CARTESIAN_POINT('',(11.667382191,8.923586741,28.337972171));
#454=CARTESIAN_POINT('',(13.198207822,8.923586741,29.600571292));
#455=CARTESIAN_POINT('',(13.998697513,8.923586741,30.186761366));
#456=CARTESIAN_POINT('',(15.663268616,8.923586741,31.263927408));
#457=CARTESIAN_POINT('',(16.52733829,8.923586741,31.754894062));
#458=CARTESIAN_POINT('',(18.312021417,8.923586741,32.637101664));
#459=CARTESIAN_POINT('',(19.232638283,8.923586741,33.028339509));
#460=CARTESIAN_POINT('',(21.12277814,8.923586741,33.707088467));
#461=CARTESIAN_POINT('',(22.09228619,8.923586741,33.994590928));
#462=CARTESIAN_POINT('',(24.071941752,8.923586741,34.462500356));
#463=CARTESIAN_POINT('',(25.082087937,8.923586741,34.642899768));
#464=CARTESIAN_POINT('',(27.133979139,8.923586741,34.893966457));
#465=CARTESIAN_POINT('',(28.17570531,8.923586741,34.964628919));
#466=CARTESIAN_POINT('',(30.281149069,8.923586741,34.994523194));
#467=CARTESIAN_POINT('',(31.344858617,8.923586741,34.953747966));
#468=CARTESIAN_POINT('',(33.483970021,8.923586741,34.760118693));
#469=CARTESIAN_POINT('',(34.559351971,8.923586741,34.607265791));
#470=CARTESIAN_POINT('',(36.711229053,8.923586741,34.190005867));
#471=CARTESIAN_POINT('',(37.787711422,8.923586741,33.925595845));
#472=CARTESIAN_POINT('',(39.930814065,8.923586741,33.28700354));
#473=CARTESIAN_POINT('',(40.997416426,8.923586741,32.912827515));
#474=CARTESIAN_POINT('',(44.166098042,8.923586741,31.630160369));
#475=CARTESIAN_POINT('',(46.236800367,8.923586741,30.560963236));
#476=CARTESIAN_POINT('',(50.209091496,8.923586741,28.033446473));
#477=CARTESIAN_POINT('',(52.110525487,8.923586741,26.575210044));
#478=CARTESIAN_POINT('',(55.665288907,8.923586741,23.326851666));
#479=CARTESIAN_POINT('',(57.318495079,8.923586741,21.536841286));
#480=CARTESIAN_POINT('',(60.308968215,8.923586741,17.697299043));
#481=CARTESIAN_POINT('',(61.646139667,8.923586741,15.647897484));
#482=CARTESIAN_POINT('',(63.951134074,8.923586741,11.373406051));
#483=CARTESIAN_POINT('',(64.918888636,8.923586741,9.148462878));
#484=CARTESIAN_POINT('',(66.448527763,8.923586741,4.61402889));
#485=CARTESIAN_POINT('',(67.010376984,8.923586741,2.304700834));
#486=CARTESIAN_POINT('',(67.710159265,8.923586741,-2.304700834));
#487=CARTESIAN_POINT('',(67.848103947,8.923586741,-4.604600799));
#488=CARTESIAN_POINT('',(67.737719235,8.923586741,-7.978971078));
#489=CARTESIAN_POINT('',(67.648189722,8.923586741,-9.091192501));
#490=CARTESIAN_POINT('',(67.365432239,8.923586741,-11.279863953));
#491=CARTESIAN_POINT('',(67.172206809,8.923586741,-12.356295557));
#492=CARTESIAN_POINT('',(66.684867841,8.923586741,-14.463170072));
#493=CARTESIAN_POINT('',(66.39076272,8.923586741,-15.493604858));
#494=CARTESIAN_POINT('',(65.705338157,8.923586741,-17.499188421));
#495=CARTESIAN_POINT('',(65.314026211,8.923586741,-18.474320039));
#496=CARTESIAN_POINT('',(64.438658394,8.923586741,-20.360653497));
#497=CARTESIAN_POINT('',(63.954611037,8.923586741,-21.271853662));
#498=CARTESIAN_POINT('',(62.89877926,8.923586741,-23.022678279));
#499=CARTESIAN_POINT('',(62.327005668,8.923586741,-23.862289203));
#500=CARTESIAN_POINT('',(61.101253515,8.923586741,-25.462977523));
#501=CARTESIAN_POINT('',(60.447279125,8.923586741,-26.224058176));
#502=CARTESIAN_POINT('',(59.0629556,8.923586741,-27.661560573));
#503=CARTESIAN_POINT('',(58.332617809,8.923586741,-28.337972171));
#504=CARTESIAN_POINT('',(56.801792178,8.923586741,-29.600571292));
#505=CARTESIAN_POINT('',(56.001302487,8.923586741,-30.186761366));
#506=CARTESIAN_POINT('',(54.336731384,8.923586741,-31.263927408));
#507=CARTESIAN_POINT('',(53.47266171,8.923586741,-31.754894062));
#508=CARTESIAN_POINT('',(51.687978583,8.923586741,-32.637101664));
#509=CARTESIAN_POINT('',(50.767361717,8.923586741,-33.028339509));
#510=CARTESIAN_POINT('',(48.87722186,8.923586741,-33.707088467));
#511=CARTESIAN_POINT('',(47.90771381,8.923586741,-33.994590928));
#512=CARTESIAN_POINT('',(45.928058248,8.923586741,-34.462500356));
#513=CARTESIAN_POINT('',(44.917912063,8.923586741,-34.642899768));
#514=CARTESIAN_POINT('',(42.866020861,8.923586741,-34.893966457));
#515=CARTESIAN_POINT('',(41.82429469,8.923586741,-34.964628919));
#516=CARTESIAN_POINT('',(39.718850931,8.923586741,-34.994523194));
#517=CARTESIAN_POINT('',(38.655141383,8.923586741,-34.953747966));
#518=CARTESIAN_POINT('',(36.516029979,8.923586741,-34.760118693));
#519=CARTESIAN_POINT('',(35.440648029,8.923586741,-34.607265791));
#520=CARTESIAN_POINT('',(33.288770947,8.923586741,-34.190005867));
#521=CARTESIAN_POINT('',(32.212288578,8.923586741,-33.925595845));
#522=CARTESIAN_POINT('',(30.069185935,8.923586741,-33.28700354));
#523=CARTESIAN_POINT('',(29.002583574,8.923586741,-32.912827515));
#524=CARTESIAN_POINT('',(25.833901958,8.923586741,-31.630160369));
#525=CARTESIAN_POINT('',(23.763199633,8.923586741,-30.560963236));
#526=CARTESIAN_POINT('',(19.790908504,8.923586741,-28.033446473));
#527=CARTESIAN_POINT('',(17.889474513,8.923586741,-26.575210043));
#528=CARTESIAN_POINT('',(14.334711093,8.923586741,-23.326851666));
#529=CARTESIAN_POINT('',(12.681504921,8.923586741,-21.536841286));
#530=CARTESIAN_POINT('',(9.691031785,8.923586741,-17.697299043));
#531=CARTESIAN_POINT('',(8.353860333,8.923586741,-15.647897485));
#532=CARTESIAN_POINT('',(6.048865926,8.923586741,-11.373406051));
#533=CARTESIAN_POINT('',(5.081111364,8.923586741,-9.148462878));
#534=CARTESIAN_POINT('',(3.551472237,8.923586741,-4.61402889));
#535=CARTESIAN_POINT('',(2.989623017,8.923586741,-2.304700842));
#536=CARTESIAN_POINT('',(2.639731875,8.923586741,0.));
#537=CARTESIAN_POINT('',(-13.335904,0.630272664,0.));
#538=CARTESIAN_POINT('',(-13.685795141,0.630272664,3.260156576));
#539=CARTESIAN_POINT('',(-13.738225095,0.630272664,6.540290579));
#540=CARTESIAN_POINT('',(-13.349790398,0.630272664,11.405288558));
#541=CARTESIAN_POINT('',(-13.142575744,0.630272664,13.017628449));
#542=CARTESIAN_POINT('',(-12.570763682,0.630272664,16.208433031));
#543=CARTESIAN_POINT('',(-12.206153607,0.630272664,17.786877674));
#544=CARTESIAN_POINT('',(-11.319110766,0.630272664,20.893544282));
#545=CARTESIAN_POINT('',(-10.796670119,0.630272664,22.421754508));
#546=CARTESIAN_POINT('',(-9.5953126,0.630272664,25.411080454));
#547=CARTESIAN_POINT('',(-8.916385226,0.630272664,26.872163407));
#548=CARTESIAN_POINT('',(-7.405780586,0.630272664,29.709540387));
#549=CARTESIAN_POINT('',(-6.574096375,0.630272664,31.085814195));
#550=CARTESIAN_POINT('',(-4.764329176,0.630272664,33.735939066));
#551=CARTESIAN_POINT('',(-3.786251024,0.630272664,35.009742851));
#552=CARTESIAN_POINT('',(-1.693204068,0.630272664,37.43755937));
#553=CARTESIAN_POINT('',(-0.578241167,0.630272664,38.59154418));
#554=CARTESIAN_POINT('',(1.776056667,0.630272664,40.763751447));
#555=CARTESIAN_POINT('',(3.01535812,0.630272664,41.781925901));
#556=CARTESIAN_POINT('',(5.602826972,0.630272664,43.668534975));
#557=CARTESIAN_POINT('',(6.950969513,0.630272664,44.536948577));
#558=CARTESIAN_POINT('',(9.738372954,0.630272664,46.112966244));
#559=CARTESIAN_POINT('',(11.177577874,0.630272664,46.820545345));
#560=CARTESIAN_POINT('',(14.127845489,0.630272664,48.067152115));
#561=CARTESIAN_POINT('',(15.638877037,0.630272664,48.606179283));
#562=CARTESIAN_POINT('',(18.712984672,0.630272664,49.511426712));
#563=CARTESIAN_POINT('',(20.276007402,0.630272664,49.877652924));
#564=CARTESIAN_POINT('',(23.43468632,0.630272664,50.436367532));
#565=CARTESIAN_POINT('',(25.03032223,0.630272664,50.628870355));
#566=CARTESIAN_POINT('',(28.235702258,0.630272664,50.842011525));
#567=CARTESIAN_POINT('',(29.845412663,0.630272664,50.862671899));
#568=CARTESIAN_POINT('',(33.061972634,0.630272664,50.736273845));
#569=CARTESIAN_POINT('',(34.668814433,0.630272664,50.589230004));
#570=CARTESIAN_POINT('',(37.864009709,0.630272664,50.133219655));
#571=CARTESIAN_POINT('',(39.452346492,0.630272664,49.824274765));
#572=CARTESIAN_POINT('',(42.596597266,0.630272664,49.051405481));
#573=CARTESIAN_POINT('',(44.152507009,0.630272664,48.587489662));
#574=CARTESIAN_POINT('',(47.219058345,0.630272664,47.51244724));
#575=CARTESIAN_POINT('',(48.729690709,0.630272664,46.901336543));
#576=CARTESIAN_POINT('',(53.176400481,0.630272664,44.859575582));
#577=CARTESIAN_POINT('',(56.026808971,0.630272664,43.220381209));
#578=CARTESIAN_POINT('',(61.416603711,0.630272664,39.456966151));
#579=CARTESIAN_POINT('',(63.956096184,0.630272664,37.332750848));
#580=CARTESIAN_POINT('',(68.651437582,0.630272664,32.675764539));
#581=CARTESIAN_POINT('',(70.807320107,0.630272664,30.142976396));
#582=CARTESIAN_POINT('',(74.670705929,0.630272664,24.750982623));
#583=CARTESIAN_POINT('',(76.378205054,0.630272664,21.891760589));
#584=CARTESIAN_POINT('',(79.287662275,0.630272664,15.935256531));
#585=CARTESIAN_POINT('',(80.489596745,0.630272664,12.837948172));
#586=CARTESIAN_POINT('',(82.338800099,0.630272664,6.50042701));
#587=CARTESIAN_POINT('',(82.986012859,0.630272664,3.260156565));
#588=CARTESIAN_POINT('',(83.68579514,0.630272664,-3.260156565));
#589=CARTESIAN_POINT('',(83.738225095,0.630272664,-6.540290579));
#590=CARTESIAN_POINT('',(83.349790398,0.630272664,-11.405288558));
#591=CARTESIAN_POINT('',(83.142575744,0.630272664,-13.017628449));
#592=CARTESIAN_POINT('',(82.570763682,0.630272664,-16.208433031));
#593=CARTESIAN_POINT('',(82.206153607,0.630272664,-17.786877674));
#594=CARTESIAN_POINT('',(81.319110766,0.630272664,-20.893544282));
#595=CARTESIAN_POINT('',(80.796670119,0.630272664,-22.421754508));
#596=CARTESIAN_POINT('',(79.5953126,0.630272664,-25.411080454));
#597=CARTESIAN_POINT('',(78.916385226,0.630272664,-26.872163407));
#598=CARTESIAN_POINT('',(77.405780586,0.630272664,-29.709540387));
#599=CARTESIAN_POINT('',(76.574096375,0.630272664,-31.085814195));
#600=CARTESIAN_POINT('',(74.764329176,0.630272664,-33.735939066));
#601=CARTESIAN_POINT('',(73.786251024,0.630272664,-35.009742851));
#602=CARTESIAN_POINT('',(71.693204068,0.630272664,-37.43755937));
#603=CARTESIAN_POINT('',(70.578241167,0.630272664,-38.59154418));
#604=CARTESIAN_POINT('',(68.223943333,0.630272664,-40.763751447));
#605=CARTESIAN_POINT('',(66.98464188,0.630272664,-41.781925901));
#606=CARTESIAN_POINT('',(64.397173028,0.630272664,-43.668534975));
#607=CARTESIAN_POINT('',(63.049030487,0.630272664,-44.536948577));
#608=CARTESIAN_POINT('',(60.261627046,0.630272664,-46.112966244));
#609=CARTESIAN_POINT('',(58.822422126,0.630272664,-46.820545345));
#610=CARTESIAN_POINT('',(55.872154511,0.630272664,-48.067152115));
#611=CARTESIAN_POINT('',(54.361122963,0.630272664,-48.606179283));
#612=CARTESIAN_POINT('',(51.287015328,0.630272664,-49.511426712));
#613=CARTESIAN_POINT('',(49.723992598,0.630272664,-49.877652924));
#614=CARTESIAN_POINT('',(46.56531368,0.630272664,-50.436367532));
#615=CARTESIAN_POINT('',(44.96967777,0.630272664,-50.628870355));
#616=CARTESIAN_POINT('',(41.764297742,0.630272664,-50.842011525));
#617=CARTESIAN_POINT('',(40.154587337,0.630272664,-50.862671899));
#618=CARTESIAN_POINT('',(36.938027366,0.630272664,-50.736273845));
#619=CARTESIAN_POINT('',(35.331185567,0.630272664,-50.589230004));
#620=CARTESIAN_POINT('',(32.135990291,0.630272664,-50.133219655));
#621=CARTESIAN_POINT('',(30.547653508,0.630272664,-49.824274765));
#622=CARTESIAN_POINT('',(27.403402734,0.630272664,-49.051405481));
#623=CARTESIAN_POINT('',(25.847492991,0.630272664,-48.587489662));
#624=CARTESIAN_POINT('',(22.780941655,0.630272664,-47.51244724));
#625=CARTESIAN_POINT('',(21.270309291,0.630272664,-46.901336543));
#626=CARTESIAN_POINT('',(16.823599519,0.630272664,-44.859575582));
#627=CARTESIAN_POINT('',(13.973191029,0.630272664,-43.220381209));
#628=CARTESIAN_POINT('',(8.583396289,0.630272664,-39.456966151));
#629=CARTESIAN_POINT('',(6.043903816,0.630272664,-37.332750848));
#630=CARTESIAN_POINT('',(1.348562418,0.630272664,-32.675764539));
#631=CARTESIAN_POINT('',(-0.807320107,0.630272664,-30.142976396));
#632=CARTESIAN_POINT('',(-4.670705929,0.630272664,-24.750982623));
#633=CARTESIAN_POINT('',(-6.378205054,0.630272664,-21.891760589));
#634=CARTESIAN_POINT('',(-9.287662275,0.630272664,-15.93525653));
#635=CARTESIAN_POINT('',(-10.489596745,0.630272664,-12.837948172));
#636=CARTESIAN_POINT('',(-12.338800099,0.630272664,-6.50042701));
#637=CARTESIAN_POINT('',(-12.986012858,0.630272664,-3.260156576));
#638=CARTESIAN_POINT('',(-13.335904,0.630272664,0.));
#639=CARTESIAN_POINT('',(-9.097099027,-7.535052339,0.));
#640=CARTESIAN_POINT('',(-9.446990168,-7.535052339,3.006646134));
#641=CARTESIAN_POINT('',(-9.522109688,-7.535052339,6.026695281));
#642=CARTESIAN_POINT('',(-9.207449811,-7.535052339,10.496185992));
#643=CARTESIAN_POINT('',(-9.031460478,-7.535052339,11.975829778));
#644=CARTESIAN_POINT('',(-8.536343078,-7.535052339,14.900739035));
#645=CARTESIAN_POINT('',(-8.217206378,-7.535052339,16.345984888));
#646=CARTESIAN_POINT('',(-7.436216703,-7.535052339,19.187377316));
#647=CARTESIAN_POINT('',(-6.974360171,-7.535052339,20.583513112));
#648=CARTESIAN_POINT('',(-5.909894805,-7.535052339,23.311823338));
#649=CARTESIAN_POINT('',(-5.307280243,-7.535052339,24.643969142));
#650=CARTESIAN_POINT('',(-3.965222572,-7.535052339,27.229006369));
#651=CARTESIAN_POINT('',(-3.225776619,-7.535052339,28.481882493));
#652=CARTESIAN_POINT('',(-1.616050611,-7.535052339,30.893396619));
#653=CARTESIAN_POINT('',(-0.74577698,-7.535052339,32.051996297));
#654=CARTESIAN_POINT('',(1.117151215,-7.535052339,34.260351434));
#655=CARTESIAN_POINT('',(2.109800337,-7.535052339,35.310087243));
#656=CARTESIAN_POINT('',(4.206735525,-7.535052339,37.287355749));
#657=CARTESIAN_POINT('',(5.310993983,-7.535052339,38.214850489));
#658=CARTESIAN_POINT('',(7.618104384,-7.535052339,39.935891411));
#659=CARTESIAN_POINT('',(8.820938554,-7.535052339,40.72942283));
#660=CARTESIAN_POINT('',(11.310421628,-7.535052339,42.173080524));
#661=CARTESIAN_POINT('',(12.597026291,-7.535052339,42.823185986));
#662=CARTESIAN_POINT('',(15.23803014,-7.535052339,43.973106964));
#663=CARTESIAN_POINT('',(16.592407348,-7.535052339,44.472921289));
#664=CARTESIAN_POINT('',(19.35237359,-7.535052339,45.318072027));
#665=CARTESIAN_POINT('',(20.75791946,-7.535052339,45.663410518));
#666=CARTESIAN_POINT('',(23.603768886,-7.535052339,46.198031846));
#667=CARTESIAN_POINT('',(25.044057191,-7.535052339,46.38732328));
#668=CARTESIAN_POINT('',(27.943382787,-7.535052339,46.610527203));
#669=CARTESIAN_POINT('',(29.402390308,-7.535052339,46.644454598));
#670=CARTESIAN_POINT('',(32.324138544,-7.535052339,46.559525485));
#671=CARTESIAN_POINT('',(33.786871419,-7.535052339,46.440677825));
#672=CARTESIAN_POINT('',(36.701856656,-7.535052339,46.054284874));
#673=CARTESIAN_POINT('',(38.15409147,-7.535052339,45.786755769));
#674=CARTESIAN_POINT('',(41.035036384,-7.535052339,45.108240083));
#675=CARTESIAN_POINT('',(42.463739977,-7.535052339,44.697259006));
#676=CARTESIAN_POINT('',(45.285273277,-7.535052339,43.738019607));
#677=CARTESIAN_POINT('',(46.678091452,-7.535052339,43.189774631));
#678=CARTESIAN_POINT('',(50.785702853,-7.535052339,41.349423533));
#679=CARTESIAN_POINT('',(53.429232419,-7.535052339,39.861466153));
#680=CARTESIAN_POINT('',(58.442921856,-7.535052339,36.425971178));
#681=CARTESIAN_POINT('',(60.813118692,-7.535052339,34.478459612));
#682=CARTESIAN_POINT('',(65.205831284,-7.535052339,30.195223627));
#683=CARTESIAN_POINT('',(67.228339022,-7.535052339,27.85951622));
#684=CARTESIAN_POINT('',(70.860115495,-7.535052339,22.879433392));
#685=CARTESIAN_POINT('',(72.469355822,-7.535052339,20.235080493));
#686=CARTESIAN_POINT('',(75.218431321,-7.535052339,14.724863739));
#687=CARTESIAN_POINT('',(76.35823099,-7.535052339,11.859019462));
#688=CARTESIAN_POINT('',(78.122644578,-7.535052339,5.999910236));
#689=CARTESIAN_POINT('',(78.747207886,-7.535052339,3.006646123));
#690=CARTESIAN_POINT('',(79.446990167,-7.535052339,-3.006646123));
#691=CARTESIAN_POINT('',(79.522109688,-7.535052339,-6.026695281));
#692=CARTESIAN_POINT('',(79.207449811,-7.535052339,-10.496185992));
#693=CARTESIAN_POINT('',(79.031460478,-7.535052339,-11.975829778));
#694=CARTESIAN_POINT('',(78.536343078,-7.535052339,-14.900739035));
#695=CARTESIAN_POINT('',(78.217206378,-7.535052339,-16.345984888));
#696=CARTESIAN_POINT('',(77.436216703,-7.535052339,-19.187377316));
#697=CARTESIAN_POINT('',(76.974360171,-7.535052339,-20.583513112));
#698=CARTESIAN_POINT('',(75.909894805,-7.535052339,-23.311823338));
#699=CARTESIAN_POINT('',(75.307280243,-7.535052339,-24.643969142));
#700=CARTESIAN_POINT('',(73.965222572,-7.535052339,-27.229006369));
#701=CARTESIAN_POINT('',(73.225776619,-7.535052339,-28.481882493));
#702=CARTESIAN_POINT('',(71.616050611,-7.535052339,-30.893396619));
#703=CARTESIAN_POINT('',(70.74577698,-7.535052339,-32.051996297));
#704=CARTESIAN_POINT('',(68.882848785,-7.535052339,-34.260351434));
#705=CARTESIAN_POINT('',(67.890199663,-7.535052339,-35.310087243));
#706=CARTESIAN_POINT('',(65.793264475,-7.535052339,-37.287355749));
#707=CARTESIAN_POINT('',(64.689006017,-7.535052339,-38.214850489));
#708=CARTESIAN_POINT('',(62.381895616,-7.535052339,-39.935891411));
#709=CARTESIAN_POINT('',(61.179061446,-7.535052339,-40.72942283));
#710=CARTESIAN_POINT('',(58.689578372,-7.535052339,-42.173080524));
#711=CARTESIAN_POINT('',(57.402973709,-7.535052339,-42.823185986));
#712=CARTESIAN_POINT('',(54.76196986,-7.535052339,-43.973106964));
#713=CARTESIAN_POINT('',(53.407592652,-7.535052339,-44.472921289));
#714=CARTESIAN_POINT('',(50.64762641,-7.535052339,-45.318072027));
#715=CARTESIAN_POINT('',(49.24208054,-7.535052339,-45.663410518));
#716=CARTESIAN_POINT('',(46.396231114,-7.535052339,-46.198031846));
#717=CARTESIAN_POINT('',(44.955942809,-7.535052339,-46.38732328));
#718=CARTESIAN_POINT('',(42.056617213,-7.535052339,-46.610527203));
#719=CARTESIAN_POINT('',(40.597609692,-7.535052339,-46.644454598));
#720=CARTESIAN_POINT('',(37.675861456,-7.535052339,-46.559525485));
#721=CARTESIAN_POINT('',(36.213128581,-7.535052339,-46.440677825));
#722=CARTESIAN_POINT('',(33.298143344,-7.535052339,-46.054284874));
#723=CARTESIAN_POINT('',(31.84590853,-7.535052339,-45.786755769));
#724=CARTESIAN_POINT('',(28.964963616,-7.535052339,-45.108240083));
#725=CARTESIAN_POINT('',(27.536260023,-7.535052339,-44.697259006));
#726=CARTESIAN_POINT('',(24.714726723,-7.535052339,-43.738019607));
#727=CARTESIAN_POINT('',(23.321908548,-7.535052339,-43.189774631));
#728=CARTESIAN_POINT('',(19.214297147,-7.535052339,-41.349423533));
#729=CARTESIAN_POINT('',(16.570767581,-7.535052339,-39.861466153));
#730=CARTESIAN_POINT('',(11.557078144,-7.535052339,-36.425971178));
#731=CARTESIAN_POINT('',(9.186881308,-7.535052339,-34.478459612));
#732=CARTESIAN_POINT('',(4.794168716,-7.535052339,-30.195223627));
#733=CARTESIAN_POINT('',(2.771660978,-7.535052339,-27.85951622));
#734=CARTESIAN_POINT('',(-0.860115495,-7.535052339,-22.879433392));
#735=CARTESIAN_POINT('',(-2.469355822,-7.535052339,-20.235080493));
#736=CARTESIAN_POINT('',(-5.218431321,-7.535052339,-14.724863739));
#737=CARTESIAN_POINT('',(-6.35823099,-7.535052339,-11.859019462));
#738=CARTESIAN_POINT('',(-8.122644578,-7.535052339,-5.999910236));
#739=CARTESIAN_POINT('',(-8.747207885,-7.535052339,-3.006646134));
#740=CARTESIAN_POINT('',(-9.097099027,-7.535052339,0.));
#741=(BOUNDED_SURFACE()
B_SPLINE_SURFACE(3,3,((#27,#28,#29,#30,#31,#32,#33,#34,#35,#36,#37,#38,#39,#40,#41,#42,#43,#44,#45,#46,#47,#48,#49,#50,#51,#52,
#53,#54,#55,#56,#57,#58,#59,#60,#61,#62,#63,#64,#65,#66,#67,#68,#69,#70,#71,#72,#73,#74,#75,#76,#77,
#78,#79,#80,#81,#82,#83,#84,#85,#86,#87,#88,#89,#90,#91,#92,#93,#94,#95,#96,#97,#98,#99,#100,#101,#102,
#103,#104,#105,#106,#107,#108,#109,#110,#111,#112,#113,#114,#115,#116,#117,#118,#119,#120,#121,#122,#123,#124,#125,#126,#127,
#128),(#129,#130,#131,#132,#133,#134,#135,#136,#137,#138,#139,#140,#141,#142,#143,#144,#145,#146,#147,#148,#149,#150,#151,#152,#153,#154,
#155,#156,#157,#158,#159,#160,#161,#162,#163,#164,#165,#166,#167,#168,#169,#170,#171,#172,#173,#174,#175,#176,#177,#178,#179,
#180,#181,#182,#183,#184,#185,#186,#187,#188,#189,#190,#191,#192,#193,#194,#195,#196,#197,#198,#199,#200,#201,#202,#203,#204,
#205,#206,#207,#208,#209,#210,#211,#212,#213,#214,#215,#216,#217,#218,#219,#220,#221,#222,#223,#224,#225,#226,#227,#228,#229,
#230),(#231,#232,#233,#234,#235,#236,#237,#238,#239,#240,#241,#242,#243,#244,#245,#246,#247,#248,#249,#250,#251,#252,#253,#254,#255,#256,
#257,#258,#259,#260,#261,#262,#263,#264,#265,#266,#267,#268,#269,#270,#271,#272,#273,#274,#275,#276,#277,#278,#279,#280,#281,
#282,#283,#284,#285,#286,#287,#288,#289,#290,#291,#292,#293,#294,#295,#296,#297,#298,#299,#300,#301,#302,#303,#304,#305,#306,
#307,#308,#309,#310,#311,#312,#313,#314,#315,#316,#317,#318,#319,#320,#321,#322,#323,#324,#325,#326,#327,#328,#329,#330,#331,
#332),(#333,#334,#335,#336,#337,#338,#339,#340,#341,#342,#343,#344,#345,#346,#347,#348,#349,#350,#351,#352,#353,#354,#355,#356,#357,#358,
#359,#360,#361,#362,#363,#364,#365,#366,#367,#368,#369,#370,#371,#372,#373,#374,#375,#376,#377,#378,#379,#380,#381,#382,#383,
#384,#385,#386,#387,#388,#389,#390,#391,#392,#393,#394,#395,#396,#397,#398,#399,#400,#401,#402,#403,#404,#405,#406,#407,#408,
#409,#410,#411,#412,#413,#414,#415,#416,#417,#418,#419,#420,#421,#422,#423,#424,#425,#426,#427,#428,#429,#430,#431,#432,#433,
#434),(#435,#436,#437,#438,#439,#440,#441,#442,#443,#444,#445,#446,#447,#448,#449,#450,#451,#452,#453,#454,#455,#456,#457,#458,#459,#460,
#461,#462,#463,#464,#465,#466,#467,#468,#469,#470,#471,#472,#473,#474,#475,#476,#477,#478,#479,#480,#481,#482,#483,#484,#485,
#486,#487,#488,#489,#490,#491,#492,#493,#494,#495,#496,#497,#498,#499,#500,#501,#502,#503,#504,#505,#506,#507,#508,#509,#510,
#511,#512,#513,#514,#515,#516,#517,#518,#519,#520,#521,#522,#523,#524,#525,#526,#527,#528,#529,#530,#531,#532,#533,#534,#535,
#536),(#537,#538,#539,#540,#541,#542,#543,#544,#545,#546,#547,#548,#549,#550,#551,#552,#553,#554,#555,#556,#557,#558,#559,#560,#561,#562,
#563,#564,#565,#566,#567,#568,#569,#570,#571,#572,#573,#574,#575,#576,#577,#578,#579,#580,#581,#582,#583,#584,#585,#586,#587,
#588,#589,#590,#591,#592,#593,#594,#595,#596,#597,#598,#599,#600,#601,#602,#603,#604,#605,#606,#607,#608,#609,#610,#611,#612,
#613,#614,#615,#616,#617,#618,#619,#620,#621,#622,#623,#624,#625,#626,#627,#628,#629,#630,#631,#632,#633,#634,#635,#636,#637,
#638),(#639,#640,#641,#642,#643,#644,#645,#646,#647,#648,#649,#650,#651,#652,#653,#654,#655,#656,#657,#658,#659,#660,#661,#662,#663,#664,
#665,#666,#667,#668,#669,#670,#671,#672,#673,#674,#675,#676,#677,#678,#679,#680,#681,#682,#683,#684,#685,#686,#687,#688,#689,
#690,#691,#692,#693,#694,#695,#696,#697,#698,#699,#700,#701,#702,#703,#704,#705,#706,#707,#708,#709,#710,#711,#712,#713,#714,
#715,#716,#717,#718,#719,#720,#721,#722,#723,#724,#725,#726,#727,#728,#729,#730,#731,#732,#733,#734,#735,#736,#737,#738,#739,
#740)),.UNSPECIFIED.,.T.,.T.,.U.)
B_SPLINE_SURFACE_WITH_KNOTS((4,3,4),(4,2,2,2,2,2,2,2,2,2,2,2,2,2,2,2,2,2,2,2,2,2,2,2,2,2,
2,2,2,2,2,2,2,2,2,2,2,2,2,2,2,2,2,2,2,2,2,2,2,2,4),(0.,0.5,1.),(0.,0.03125,0.046875,0.0625,0.078125,0.09375,0.109375,0.125,0.140625,0.15625,0.171875,0.1875,0.203125,0.21875,0.234375,0.25,0.265625,0.28125,0.296875,0.3125,0.34375,0.375,0.40625,0.4375,0.46875,0.5,
0.53125,0.546875,0.5625,0.578125,0.59375,0.609375,0.625,0.640625,0.65625,0.671875,0.6875,0.703125,0.71875,0.734375,0.75,0.765625,0.78125,0.796875,0.8125,0.84375,0.875,0.90625,0.9375,0.96875,1.),.UNSPECIFIED.)
GEOMETRIC_REPRESENTATION_ITEM()
RATIONAL_B_SPLINE_SURFACE(((1.,1.,1.,1.,1.,1.,1.,1.,1.,1.,1.,1.,1.,1.,1.,1.,1.,1.,1.,1.,1.,1.,1.,1.,1.,1.,
1.,1.,1.,1.,1.,1.,1.,1.,1.,1.,1.,1.,1.,1.,1.,1.,1.,1.,1.,1.,1.,1.,1.,1.,1.,
1.,1.,1.,1.,1.,1.,1.,1.,1.,1.,1.,1.,1.,1.,1.,1.,1.,1.,1.,1.,1.,1.,1.,1.,1.,
1.,1.,1.,1.,1.,1.,1.,1.,1.,1.,1.,1.,1.,1.,1.,1.,1.,1.,1.,1.,1.,1.,1.,1.,1.,
1.),(0.333333333,0.333333333,0.333333333,0.333333333,0.333333333,0.333333333,0.333333333,0.333333333,0.333333333,0.333333333,0.333333333,0.333333333,0.333333333,0.333333333,0.333333333,0.333333333,0.333333333,0.333333333,0.333333333,0.333333333,0.333333333,0.333333333,0.333333333,0.333333333,0.333333333,0.333333333,
0.333333333,0.333333333,0.333333333,0.333333333,0.333333333,0.333333333,0.333333333,0.333333333,0.333333333,0.333333333,0.333333333,0.333333333,0.333333333,0.333333333,0.333333333,0.333333333,0.333333333,0.333333333,0.333333333,0.333333333,0.333333333,0.333333333,0.333333333,0.333333333,0.333333333,
0.333333333,0.333333333,0.333333333,0.333333333,0.333333333,0.333333333,0.333333333,0.333333333,0.333333333,0.333333333,0.333333333,0.333333333,0.333333333,0.333333333,0.333333333,0.333333333,0.333333333,0.333333333,0.333333333,0.333333333,0.333333333,0.333333333,0.333333333,0.333333333,0.333333333,
0.333333333,0.333333333,0.333333333,0.333333333,0.333333333,0.333333333,0.333333333,0.333333333,0.333333333,0.333333333,0.333333333,0.333333333,0.333333333,0.333333333,0.333333333,0.333333333,0.333333333,0.333333333,0.333333333,0.333333333,0.333333333,0.333333333,0.333333333,0.333333333,0.333333333,
0.333333333),(0.333333333,0.333333333,0.333333333,0.333333333,0.333333333,0.333333333,0.333333333,0.333333333,0.333333333,0.333333333,0.333333333,0.333333333,0.333333333,0.333333333,0.333333333,0.333333333,0.333333333,0.333333333,0.333333333,0.333333333,0.333333333,0.333333333,0.333333333,0.333333333,0.333333333,0.333333333,
0.333333333,0.333333333,0.333333333,0.333333333,0.333333333,0.333333333,0.333333333,0.333333333,0.333333333,0.333333333,0.333333333,0.333333333,0.333333333,0.333333333,0.333333333,0.333333333,0.333333333,0.333333333,0.333333333,0.333333333,0.333333333,0.333333333,0.333333333,0.333333333,0.333333333,
0.333333333,0.333333333,0.333333333,0.333333333,0.333333333,0.333333333,0.333333333,0.333333333,0.333333333,0.333333333,0.333333333,0.333333333,0.333333333,0.333333333,0.333333333,0.333333333,0.333333333,0.333333333,0.333333333,0.333333333,0.333333333,0.333333333,0.333333333,0.333333333,0.333333333,
0.333333333,0.333333333,0.333333333,0.333333333,0.333333333,0.333333333,0.333333333,0.333333333,0.333333333,0.333333333,0.333333333,0.333333333,0.333333333,0.333333333,0.333333333,0.333333333,0.333333333,0.333333333,0.333333333,0.333333333,0.333333333,0.333333333,0.333333333,0.333333333,0.333333333,
0.333333333),(1.,1.,1.,1.,1.,1.,1.,1.,1.,1.,1.,1.,1.,1.,1.,1.,1.,1.,1.,1.,1.,1.,1.,1.,1.,1.,
1.,1.,1.,1.,1.,1.,1.,1.,1.,1.,1.,1.,1.,1.,1.,1.,1.,1.,1.,1.,1.,1.,1.,1.,1.,
1.,1.,1.,1.,1.,1.,1.,1.,1.,1.,1.,1.,1.,1.,1.,1.,1.,1.,1.,1.,1.,1.,1.,1.,1.,
1.,1.,1.,1.,1.,1.,1.,1.,1.,1.,1.,1.,1.,1.,1.,1.,1.,1.,1.,1.,1.,1.,1.,1.,1.,
1.),(0.333333333,0.333333333,0.333333333,0.333333333,0.333333333,0.333333333,0.333333333,0.333333333,0.333333333,0.333333333,0.333333333,0.333333333,0.333333333,0.333333333,0.333333333,0.333333333,0.333333333,0.333333333,0.333333333,0.333333333,0.333333333,0.333333333,0.333333333,0.333333333,0.333333333,0.333333333,
0.333333333,0.333333333,0.333333333,0.333333333,0.333333333,0.333333333,0.333333333,0.333333333,0.333333333,0.333333333,0.333333333,0.333333333,0.333333333,0.333333333,0.333333333,0.333333333,0.333333333,0.333333333,0.333333333,0.333333333,0.333333333,0.333333333,0.333333333,0.333333333,0.333333333,
0.333333333,0.333333333,0.333333333,0.333333333,0.333333333,0.333333333,0.333333333,0.333333333,0.333333333,0.333333333,0.333333333,0.333333333,0.333333333,0.333333333,0.333333333,0.333333333,0.333333333,0.333333333,0.333333333,0.333333333,0.333333333,0.333333333,0.333333333,0.333333333,0.333333333,
0.333333333,0.333333333,0.333333333,0.333333333,0.333333333,0.333333333,0.333333333,0.333333333,0.333333333,0.333333333,0.333333333,0.333333333,0.333333333,0.333333333,0.333333333,0.333333333,0.333333333,0.333333333,0.333333333,0.333333333,0.333333333,0.333333333,0.333333333,0.333333333,0.333333333,
0.333333333),(0.333333333,0.333333333,0.333333333,0.333333333,0.333333333,0.333333333,0.333333333,0.333333333,0.333333333,0.333333333,0.333333333,0.333333333,0.333333333,0.333333333,0.333333333,0.333333333,0.333333333,0.333333333,0.333333333,0.333333333,0.333333333,0.333333333,0.333333333,0.333333333,0.333333333,0.333333333,
0.333333333,0.333333333,0.333333333,0.333333333,0.333333333,0.333333333,0.333333333,0.333333333,0.333333333,0.333333333,0.333333333,0.333333333,0.333333333,0.333333333,0.333333333,0.333333333,0.333333333,0.333333333,0.333333333,0.333333333,0.333333333,0.333333333,0.333333333,0.333333333,0.333333333,
0.333333333,0.333333333,0.333333333,0.333333333,0.333333333,0.333333333,0.333333333,0.333333333,0.333333333,0.333333333,0.333333333,0.333333333,0.333333333,0.333333333,0.333333333,0.333333333,0.333333333,0.333333333,0.333333333,0.333333333,0.333333333,0.333333333,0.333333333,0.333333333,0.333333333,
0.333333333,0.333333333,0.333333333,0.333333333,0.333333333,0.333333333,0.333333333,0.333333333,0.333333333,0.333333333,0.333333333,0.333333333,0.333333333,0.333333333,0.333333333,0.333333333,0.333333333,0.333333333,0.333333333,0.333333333,0.333333333,0.333333333,0.333333333,0.333333333,0.333333333,
0.333333333),(1.,1.,1.,1.,1.,1.,1.,1.,1.,1.,1.,1.,1.,1.,1.,1.,1.,1.,1.,1.,1.,1.,1.,1.,1.,1.,
1.,1.,1.,1.,1.,1.,1.,1.,1.,1.,1.,1.,1.,1.,1.,1.,1.,1.,1.,1.,1.,1.,1.,1.,1.,
1.,1.,1.,1.,1.,1.,1.,1.,1.,1.,1.,1.,1.,1.,1.,1.,1.,1.,1.,1.,1.,1.,1.,1.,1.,
1.,1.,1.,1.,1.,1.,1.,1.,1.,1.,1.,1.,1.,1.,1.,1.,1.,1.,1.,1.,1.,1.,1.,1.,1.,
1.)))
REPRESENTATION_ITEM('')
SURFACE()
);
#742=CARTESIAN_POINT('',(-9.097099027,-7.535052339,0.));
#743=VERTEX_POINT('',#742);
#744=CARTESIAN_POINT('',(-9.097099027,-7.535052339,0.));
#745=CARTESIAN_POINT('',(-9.052944808,-7.620107808,0.));
#746=CARTESIAN_POINT('',(-9.002217413,-7.705132723,0.));
#747=CARTESIAN_POINT('',(-8.943898829,-7.789555209,0.));
#748=CARTESIAN_POINT('',(-8.885580245,-7.873977695,0.));
#749=CARTESIAN_POINT('',(-8.819669075,-7.957798974,0.));
#750=CARTESIAN_POINT('',(-8.745073759,-8.040302609,0.));
#751=CARTESIAN_POINT('',(-8.670478443,-8.122806244,0.));
#752=CARTESIAN_POINT('',(-8.587196631,-8.203993217,0.));
#753=CARTESIAN_POINT('',(-8.494091079,-8.282985808,0.));
#754=CARTESIAN_POINT('',(-8.400985527,-8.361978398,0.));
#755=CARTESIAN_POINT('',(-8.29805269,-8.438777104,0.));
#756=CARTESIAN_POINT('',(-8.184153613,-8.512331558,0.));
#757=CARTESIAN_POINT('',(-8.070254535,-8.585886012,0.));
#758=CARTESIAN_POINT('',(-7.945384275,-8.656195911,0.));
#759=CARTESIAN_POINT('',(-7.808465647,-8.722036455,0.));
#760=CARTESIAN_POINT('',(-7.671547019,-8.787876999,0.));
#761=CARTESIAN_POINT('',(-7.522573596,-8.849246707,0.));
#762=CARTESIAN_POINT('',(-7.360615224,-8.904759353,0.));
#763=CARTESIAN_POINT('',(-7.198656852,-8.960271998,0.));
#764=CARTESIAN_POINT('',(-7.023705747,-9.009924537,0.));
#765=CARTESIAN_POINT('',(-6.835085632,-9.052202911,0.));
#766=CARTESIAN_POINT('',(-6.646465516,-9.094481286,0.));
#767=CARTESIAN_POINT('',(-6.444167706,-9.129380573,0.));
#768=CARTESIAN_POINT('',(-6.227893947,-9.155318432,0.));
#769=CARTESIAN_POINT('',(-6.011620189,-9.181256291,0.));
#770=CARTESIAN_POINT('',(-5.781361783,-9.198225809,0.));
#771=CARTESIAN_POINT('',(-5.537329952,-9.204665184,0.));
#772=CARTESIAN_POINT('',(-5.415314037,-9.207884871,0.));
#773=CARTESIAN_POINT('',(-5.289863566,-9.208472978,0.));
#774=CARTESIAN_POINT('',(-5.161062647,-9.206245338,0.));
#775=CARTESIAN_POINT('',(-5.032261727,-9.204017698,0.));
#776=CARTESIAN_POINT('',(-4.900110165,-9.198974018,0.));
#777=CARTESIAN_POINT('',(-4.764734846,-9.190942909,0.));
#778=CARTESIAN_POINT('',(-4.629359527,-9.182911799,0.));
#779=CARTESIAN_POINT('',(-4.490760311,-9.171892955,0.));
#780=CARTESIAN_POINT('',(-4.349109371,-9.157732238,0.));
#781=CARTESIAN_POINT('',(-4.20745843,-9.143571521,0.));
#782=CARTESIAN_POINT('',(-4.062755692,-9.126268625,0.));
#783=CARTESIAN_POINT('',(-3.915220219,-9.105691258,0.));
#784=CARTESIAN_POINT('',(-3.767684746,-9.085113891,0.));
#785=CARTESIAN_POINT('',(-3.617316545,-9.061261755,0.));
#786=CARTESIAN_POINT('',(-3.464382073,-9.034028959,0.));
#787=CARTESIAN_POINT('',(-3.311447601,-9.006796163,0.));
#788=CARTESIAN_POINT('',(-3.155946954,-8.976182429,0.));
#789=CARTESIAN_POINT('',(-2.998193219,-8.942112584,0.));
#790=CARTESIAN_POINT('',(-2.840439483,-8.908042739,0.));
#791=CARTESIAN_POINT('',(-2.680432851,-8.870516542,0.));
#792=CARTESIAN_POINT('',(-2.518530867,-8.829493429,0.));
#793=CARTESIAN_POINT('',(-2.356628883,-8.788470316,0.));
#794=CARTESIAN_POINT('',(-2.19283184,-8.743950095,0.));
#795=CARTESIAN_POINT('',(-2.0275381,-8.695930068,0.));
#796=CARTESIAN_POINT('',(-1.86224436,-8.647910042,0.));
#797=CARTESIAN_POINT('',(-1.695454312,-8.596390081,0.));
#798=CARTESIAN_POINT('',(-1.527602019,-8.54140778,0.));
#799=CARTESIAN_POINT('',(-1.359749727,-8.486425479,0.));
#800=CARTESIAN_POINT('',(-1.190835669,-8.427980781,0.));
#801=CARTESIAN_POINT('',(-1.021323094,-8.366152996,0.));
#802=CARTESIAN_POINT('',(-0.85181052,-8.304325211,0.));
#803=CARTESIAN_POINT('',(-0.681699983,-8.23911436,0.));
#804=CARTESIAN_POINT('',(-0.511476172,-8.170641757,0.));
#805=CARTESIAN_POINT('',(-0.34125236,-8.102169154,0.));
#806=CARTESIAN_POINT('',(-0.170915883,-8.030434902,0.));
#807=CARTESIAN_POINT('',(-0.000964124,-7.955601382,0.));
#808=CARTESIAN_POINT('',(0.338939395,-7.805934342,0.));
#809=CARTESIAN_POINT('',(0.67729565,-7.643835178,0.));
#810=CARTESIAN_POINT('',(1.010121397,-7.471057801,0.));
#811=CARTESIAN_POINT('',(1.342947145,-7.298280425,0.));
#812=CARTESIAN_POINT('',(1.670222228,-7.114835299,0.));
#813=CARTESIAN_POINT('',(1.98822011,-6.922970836,0.));
#814=CARTESIAN_POINT('',(2.14721905,-6.827038604,0.));
#815=CARTESIAN_POINT('',(2.30390465,-6.729008296,0.));
#816=CARTESIAN_POINT('',(2.457857892,-6.629193255,0.));
#817=CARTESIAN_POINT('',(2.611811135,-6.529378214,0.));
#818=CARTESIAN_POINT('',(2.763031585,-6.427778877,0.));
#819=CARTESIAN_POINT('',(2.911141121,-6.324721838,0.));
#820=CARTESIAN_POINT('',(3.059250656,-6.221664799,0.));
#821=CARTESIAN_POINT('',(3.204248941,-6.117150497,0.));
#822=CARTESIAN_POINT('',(3.345804539,-6.01151216,0.));
#823=CARTESIAN_POINT('',(3.487360137,-5.905873824,0.));
#824=CARTESIAN_POINT('',(3.625472821,-5.799111878,0.));
#825=CARTESIAN_POINT('',(3.759862066,-5.691559685,0.));
#826=CARTESIAN_POINT('',(3.894251312,-5.584007493,0.));
#827=CARTESIAN_POINT('',(4.024917001,-5.475665446,0.));
#828=CARTESIAN_POINT('',(4.151632108,-5.366860897,0.));
#829=CARTESIAN_POINT('',(4.278347215,-5.258056348,0.));
#830=CARTESIAN_POINT('',(4.401111727,-5.148789645,0.));
#831=CARTESIAN_POINT('',(4.519753075,-5.039376548,0.));
#832=CARTESIAN_POINT('',(4.638394424,-4.92996345,0.));
#833=CARTESIAN_POINT('',(4.752912694,-4.820404254,0.));
#834=CARTESIAN_POINT('',(4.863189207,-4.710998272,0.));
#835=CARTESIAN_POINT('',(4.973465719,-4.601592291,0.));
#836=CARTESIAN_POINT('',(5.079500643,-4.492339762,0.));
#837=CARTESIAN_POINT('',(5.181227254,-4.383519541,0.));
#838=CARTESIAN_POINT('',(5.282953865,-4.27469932,0.));
#839=CARTESIAN_POINT('',(5.380372402,-4.166311584,0.));
#840=CARTESIAN_POINT('',(5.473465001,-4.058611617,0.));
#841=CARTESIAN_POINT('',(5.566557601,-3.950911651,0.));
#842=CARTESIAN_POINT('',(5.655324555,-3.843899571,0.));
#843=CARTESIAN_POINT('',(5.739792853,-3.737804885,0.));
#844=CARTESIAN_POINT('',(5.82426115,-3.631710199,0.));
#845=CARTESIAN_POINT('',(5.904431119,-3.526532967,0.));
#846=CARTESIAN_POINT('',(5.980369917,-3.422475587,0.));
#847=CARTESIAN_POINT('',(6.056308714,-3.318418207,0.));
#848=CARTESIAN_POINT('',(6.128016691,-3.215480689,0.));
#849=CARTESIAN_POINT('',(6.195596067,-3.113837795,0.));
#850=CARTESIAN_POINT('',(6.33075482,-2.910552008,0.));
#851=CARTESIAN_POINT('',(6.449375794,-2.712471311,0.));
#852=CARTESIAN_POINT('',(6.552614753,-2.52066717,0.));
#853=CARTESIAN_POINT('',(6.655853712,-2.328863029,0.));
#854=CARTESIAN_POINT('',(6.743721318,-2.143332309,0.));
#855=CARTESIAN_POINT('',(6.817683306,-1.964741622,0.));
#856=CARTESIAN_POINT('',(6.891645294,-1.786150936,0.));
#857=CARTESIAN_POINT('',(6.951710689,-1.614496014,0.));
#858=CARTESIAN_POINT('',(6.999506911,-1.450095013,0.));
#859=CARTESIAN_POINT('',(7.047303132,-1.285694012,0.));
#860=CARTESIAN_POINT('',(7.08283715,-1.128542316,0.));
#861=CARTESIAN_POINT('',(7.107777929,-0.978676892,0.));
#862=CARTESIAN_POINT('',(7.132718707,-0.828811467,0.));
#863=CARTESIAN_POINT('',(7.147071157,-0.686227909,0.));
#864=CARTESIAN_POINT('',(7.152456827,-0.550750043,0.));
#865=CARTESIAN_POINT('',(7.157842497,-0.415272177,0.));
#866=CARTESIAN_POINT('',(7.154264481,-0.286896137,0.));
#867=CARTESIAN_POINT('',(7.143237213,-0.165294852,0.));
#868=CARTESIAN_POINT('',(7.132209945,-0.043693567,0.));
#869=CARTESIAN_POINT('',(7.113735058,0.071136148,0.));
#870=CARTESIAN_POINT('',(7.089184807,0.179619309,0.));
#871=CARTESIAN_POINT('',(7.064634556,0.28810247,0.));
#872=CARTESIAN_POINT('',(7.034009489,0.390241563,0.));
#873=CARTESIAN_POINT('',(6.998523666,0.486517051,0.));
#874=CARTESIAN_POINT('',(6.963037842,0.58279254,0.));
#875=CARTESIAN_POINT('',(6.922691067,0.67320627,0.));
#876=CARTESIAN_POINT('',(6.878536848,0.758261739,0.));
#877=CARTESIAN_POINT('',(6.83438263,0.843317208,0.));
#878=CARTESIAN_POINT('',(6.783655235,0.928342123,0.));
#879=CARTESIAN_POINT('',(6.725336651,1.012764609,0.));
#880=CARTESIAN_POINT('',(6.667018067,1.097187095,0.));
#881=CARTESIAN_POINT('',(6.601106897,1.181008373,0.));
#882=CARTESIAN_POINT('',(6.526511581,1.263512009,0.));
#883=CARTESIAN_POINT('',(6.451916264,1.346015644,0.));
#884=CARTESIAN_POINT('',(6.368634453,1.427202617,0.));
#885=CARTESIAN_POINT('',(6.275528901,1.506195208,0.));
#886=CARTESIAN_POINT('',(6.182423349,1.585187798,0.));
#887=CARTESIAN_POINT('',(6.079490512,1.661986503,0.));
#888=CARTESIAN_POINT('',(5.965591435,1.735540958,0.));
#889=CARTESIAN_POINT('',(5.851692357,1.809095412,0.));
#890=CARTESIAN_POINT('',(5.726822097,1.879405311,0.));
#891=CARTESIAN_POINT('',(5.589903469,1.945245855,0.));
#892=CARTESIAN_POINT('',(5.452984841,2.011086399,0.));
#893=CARTESIAN_POINT('',(5.304011418,2.072456106,0.));
#894=CARTESIAN_POINT('',(5.142053046,2.127968752,0.));
#895=CARTESIAN_POINT('',(4.980094674,2.183481398,0.));
#896=CARTESIAN_POINT('',(4.805143569,2.233133936,0.));
#897=CARTESIAN_POINT('',(4.616523453,2.275412311,0.));
#898=CARTESIAN_POINT('',(4.427903338,2.317690686,0.));
#899=CARTESIAN_POINT('',(4.225605527,2.352589973,0.));
#900=CARTESIAN_POINT('',(4.009331769,2.378527832,0.));
#901=CARTESIAN_POINT('',(3.79305801,2.404465691,0.));
#902=CARTESIAN_POINT('',(3.562799604,2.421435208,0.));
#903=CARTESIAN_POINT('',(3.318767774,2.427874583,0.));
#904=CARTESIAN_POINT('',(3.196751859,2.431094271,0.));
#905=CARTESIAN_POINT('',(3.071301388,2.431682378,0.));
#906=CARTESIAN_POINT('',(2.942500468,2.429454738,0.));
#907=CARTESIAN_POINT('',(2.813699548,2.427227097,0.));
#908=CARTESIAN_POINT('',(2.681547986,2.422183418,0.));
#909=CARTESIAN_POINT('',(2.546172668,2.414152309,0.));
#910=CARTESIAN_POINT('',(2.410797349,2.406121199,0.));
#911=CARTESIAN_POINT('',(2.272198133,2.395102355,0.));
#912=CARTESIAN_POINT('',(2.130547193,2.380941638,0.));
#913=CARTESIAN_POINT('',(1.988896252,2.366780921,0.));
#914=CARTESIAN_POINT('',(1.844193514,2.349478024,0.));
#915=CARTESIAN_POINT('',(1.696658041,2.328900657,0.));
#916=CARTESIAN_POINT('',(1.549122568,2.30832329,0.));
#917=CARTESIAN_POINT('',(1.398754367,2.284471155,0.));
#918=CARTESIAN_POINT('',(1.245819895,2.257238359,0.));
#919=CARTESIAN_POINT('',(1.092885423,2.230005563,0.));
#920=CARTESIAN_POINT('',(0.937384776,2.199391829,0.));
#921=CARTESIAN_POINT('',(0.77963104,2.165321984,0.));
#922=CARTESIAN_POINT('',(0.621877305,2.131252139,0.));
#923=CARTESIAN_POINT('',(0.461870672,2.093725942,0.));
#924=CARTESIAN_POINT('',(0.299968689,2.052702829,0.));
#925=CARTESIAN_POINT('',(0.138066705,2.011679715,0.));
#926=CARTESIAN_POINT('',(-0.025730338,1.967159494,0.));
#927=CARTESIAN_POINT('',(-0.191024079,1.919139468,0.));
#928=CARTESIAN_POINT('',(-0.356317819,1.871119442,0.));
#929=CARTESIAN_POINT('',(-0.523107867,1.81959948,0.));
#930=CARTESIAN_POINT('',(-0.690960159,1.76461718,0.));
#931=CARTESIAN_POINT('',(-0.858812451,1.709634879,0.));
#932=CARTESIAN_POINT('',(-1.02772651,1.65119018,0.));
#933=CARTESIAN_POINT('',(-1.197239084,1.589362395,0.));
#934=CARTESIAN_POINT('',(-1.366751658,1.52753461,0.));
#935=CARTESIAN_POINT('',(-1.536862195,1.46232376,0.));
#936=CARTESIAN_POINT('',(-1.707086007,1.393851157,0.));
#937=CARTESIAN_POINT('',(-1.877309818,1.325378554,0.));
#938=CARTESIAN_POINT('',(-2.047646295,1.253644302,0.));
#939=CARTESIAN_POINT('',(-2.217598054,1.178810782,0.));
#940=CARTESIAN_POINT('',(-2.557501573,1.029143742,0.));
#941=CARTESIAN_POINT('',(-2.895857828,0.867044578,0.));
#942=CARTESIAN_POINT('',(-3.228683576,0.694267201,0.));
#943=CARTESIAN_POINT('',(-3.561509323,0.521489825,0.));
#944=CARTESIAN_POINT('',(-3.888784406,0.338044699,0.));
#945=CARTESIAN_POINT('',(-4.206782288,0.146180235,0.));
#946=CARTESIAN_POINT('',(-4.365781229,0.050248004,0.));
#947=CARTESIAN_POINT('',(-4.522466828,-0.047782304,0.));
#948=CARTESIAN_POINT('',(-4.676420071,-0.147597345,0.));
#949=CARTESIAN_POINT('',(-4.830373313,-0.247412387,0.));
#950=CARTESIAN_POINT('',(-4.981593764,-0.349011723,0.));
#951=CARTESIAN_POINT('',(-5.129703299,-0.452068762,0.));
#952=CARTESIAN_POINT('',(-5.277812835,-0.555125802,0.));
#953=CARTESIAN_POINT('',(-5.422811119,-0.659640104,0.));
#954=CARTESIAN_POINT('',(-5.564366717,-0.76527844,0.));
#955=CARTESIAN_POINT('',(-5.705922315,-0.870916776,0.));
#956=CARTESIAN_POINT('',(-5.844034999,-0.977678722,0.));
#957=CARTESIAN_POINT('',(-5.978424245,-1.085230915,0.));
#958=CARTESIAN_POINT('',(-6.11281349,-1.192783108,0.));
#959=CARTESIAN_POINT('',(-6.243479179,-1.301125154,0.));
#960=CARTESIAN_POINT('',(-6.370194286,-1.409929703,0.));
#961=CARTESIAN_POINT('',(-6.496909393,-1.518734253,0.));
#962=CARTESIAN_POINT('',(-6.619673905,-1.628000955,0.));
#963=CARTESIAN_POINT('',(-6.738315254,-1.737414053,0.));
#964=CARTESIAN_POINT('',(-6.856956602,-1.84682715,0.));
#965=CARTESIAN_POINT('',(-6.971474873,-1.956386346,0.));
#966=CARTESIAN_POINT('',(-7.081751385,-2.065792328,0.));
#967=CARTESIAN_POINT('',(-7.192027897,-2.175198309,0.));
#968=CARTESIAN_POINT('',(-7.298062821,-2.284450839,0.));
#969=CARTESIAN_POINT('',(-7.399789432,-2.39327106,0.));
#970=CARTESIAN_POINT('',(-7.501516043,-2.502091281,0.));
#971=CARTESIAN_POINT('',(-7.59893458,-2.610479016,0.));
#972=CARTESIAN_POINT('',(-7.692027179,-2.718178983,0.));
#973=CARTESIAN_POINT('',(-7.785119779,-2.825878949,0.));
#974=CARTESIAN_POINT('',(-7.873886734,-2.932891029,0.));
#975=CARTESIAN_POINT('',(-7.958355031,-3.038985715,0.));
#976=CARTESIAN_POINT('',(-8.042823328,-3.145080401,0.));
#977=CARTESIAN_POINT('',(-8.122993297,-3.250257633,0.));
#978=CARTESIAN_POINT('',(-8.198932095,-3.354315013,0.));
#979=CARTESIAN_POINT('',(-8.274870893,-3.458372393,0.));
#980=CARTESIAN_POINT('',(-8.346578869,-3.561309911,0.));
#981=CARTESIAN_POINT('',(-8.414158246,-3.662952805,0.));
#982=CARTESIAN_POINT('',(-8.549316999,-3.866238592,0.));
#983=CARTESIAN_POINT('',(-8.667937972,-4.06431929,0.));
#984=CARTESIAN_POINT('',(-8.771176931,-4.25612343,0.));
#985=CARTESIAN_POINT('',(-8.87441589,-4.447927571,0.));
#986=CARTESIAN_POINT('',(-8.962283496,-4.633458292,0.));
#987=CARTESIAN_POINT('',(-9.036245484,-4.812048978,0.));
#988=CARTESIAN_POINT('',(-9.110207472,-4.990639665,0.));
#989=CARTESIAN_POINT('',(-9.170272868,-5.162294586,0.));
#990=CARTESIAN_POINT('',(-9.218069089,-5.326695587,0.));
#991=CARTESIAN_POINT('',(-9.26586531,-5.491096589,0.));
#992=CARTESIAN_POINT('',(-9.301399328,-5.648248284,0.));
#993=CARTESIAN_POINT('',(-9.326340107,-5.798113709,0.));
#994=CARTESIAN_POINT('',(-9.351280886,-5.947979133,0.));
#995=CARTESIAN_POINT('',(-9.365633335,-6.090562691,0.));
#996=CARTESIAN_POINT('',(-9.371019005,-6.226040557,0.));
#997=CARTESIAN_POINT('',(-9.376404676,-6.361518423,0.));
#998=CARTESIAN_POINT('',(-9.372826659,-6.489894463,0.));
#999=CARTESIAN_POINT('',(-9.361799391,-6.611495749,0.));
#1000=CARTESIAN_POINT('',(-9.350772123,-6.733097034,0.));
#1001=CARTESIAN_POINT('',(-9.332297237,-6.847926748,0.));
#1002=CARTESIAN_POINT('',(-9.307746986,-6.956409909,0.));
#1003=CARTESIAN_POINT('',(-9.283196734,-7.06489307,0.));
#1004=CARTESIAN_POINT('',(-9.252571667,-7.167032163,0.));
#1005=CARTESIAN_POINT('',(-9.217085844,-7.263307652,0.));
#1006=CARTESIAN_POINT('',(-9.18160002,-7.35958314,0.));
#1007=CARTESIAN_POINT('',(-9.141253245,-7.44999687,0.));
#1008=CARTESIAN_POINT('',(-9.097099027,-7.535052339,0.));
#1009=B_SPLINE_CURVE_WITH_KNOTS('',3,(#744,#745,#746,#747,#748,#749,#750,#751,#752,#753,#754,#755,#756,#757,#758,#759,#760,#761,#762,#763,#764,#765,#766,#767,#768,#769,
#770,#771,#772,#773,#774,#775,#776,#777,#778,#779,#780,#781,#782,#783,#784,#785,#786,#787,#788,#789,#790,#791,#792,#793,#794,
#795,#796,#797,#798,#799,#800,#801,#802,#803,#804,#805,#806,#807,#808,#809,#810,#811,#812,#813,#814,#815,#816,#817,#818,#819,
#820,#821,#822,#823,#824,#825,#826,#827,#828,#829,#830,#831,#832,#833,#834,#835,#836,#837,#838,#839,#840,#841,#842,#843,#844,
#845,#846,#847,#848,#849,#850,#851,#852,#853,#854,#855,#856,#857,#858,#859,#860,#861,#862,#863,#864,#865,#866,#867,#868,#869,
#870,#871,#872,#873,#874,#875,#876,#877,#878,#879,#880,#881,#882,#883,#884,#885,#886,#887,#888,#889,#890,#891,#892,#893,#894,
#895,#896,#897,#898,#899,#900,#901,#902,#903,#904,#905,#906,#907,#908,#909,#910,#911,#912,#913,#914,#915,#916,#917,#918,#919,
#920,#921,#922,#923,#924,#925,#926,#927,#928,#929,#930,#931,#932,#933,#934,#935,#936,#937,#938,#939,#940,#941,#942,#943,#944,
#945,#946,#947,#948,#949,#950,#951,#952,#953,#954,#955,#956,#957,#958,#959,#960,#961,#962,#963,#964,#965,#966,#967,#968,#969,
#970,#971,#972,#973,#974,#975,#976,#977,#978,#979,#980,#981,#982,#983,#984,#985,#986,#987,#988,#989,#990,#991,#992,#993,#994,
#995,#996,#997,#998,#999,#1000,#1001,#1002,#1003,#1004,#1005,#1006,#1007,#1008),.UNSPECIFIED.,.T.,.F.,(4,3,3,3,3,3,3,3,3,3,3,3,3,3,3,3,3,3,3,3,3,3,3,3,3,3,
3,3,3,3,3,3,3,3,3,3,3,3,3,3,3,3,3,3,3,3,3,3,3,3,3,
3,3,3,3,3,3,3,3,3,3,3,3,3,3,3,3,3,3,3,3,3,3,3,3,3,
3,3,3,3,3,3,3,3,3,3,3,3,4),(0.,0.015625,0.03125,0.046875,0.0625,0.078125,0.09375,0.109375,0.125,0.140625,0.1484375,0.15625,0.1640625,0.171875,0.1796875,0.1875,0.1953125,0.203125,0.2109375,0.21875,0.2265625,0.234375,0.25,0.265625,0.2734375,0.28125,
0.2890625,0.296875,0.3046875,0.3125,0.3203125,0.328125,0.3359375,0.34375,0.3515625,0.359375,0.375,0.390625,0.40625,0.421875,0.4375,0.453125,0.46875,0.484375,0.5,0.515625,0.53125,0.546875,0.5625,0.578125,0.59375,
0.609375,0.625,0.640625,0.6484375,0.65625,0.6640625,0.671875,0.6796875,0.6875,0.6953125,0.703125,0.7109375,0.71875,0.7265625,0.734375,0.75,0.765625,0.7734375,0.78125,0.7890625,0.796875,0.8046875,0.8125,0.8203125,0.828125,
0.8359375,0.84375,0.8515625,0.859375,0.875,0.890625,0.90625,0.921875,0.9375,0.953125,0.96875,0.984375,1.),.UNSPECIFIED.);
#1010=EDGE_CURVE('',#743,#743,#1009,.T.);
#1011=ORIENTED_EDGE('',*,*,#1010,.T.);
#1012=CARTESIAN_POINT('',(-9.097099027,-7.535052339,0.));
#1013=CARTESIAN_POINT('',(-9.446990168,-7.535052339,3.006646134));
#1014=CARTESIAN_POINT('',(-9.522109688,-7.535052339,6.026695281));
#1015=CARTESIAN_POINT('',(-9.312336437,-7.535052339,9.006355755));
#1016=CARTESIAN_POINT('',(-9.207449811,-7.535052339,10.496185992));
#1017=CARTESIAN_POINT('',(-9.031460478,-7.535052339,11.975829778));
#1018=CARTESIAN_POINT('',(-8.783901778,-7.535052339,13.438284406));
#1019=CARTESIAN_POINT('',(-8.536343078,-7.535052339,14.900739035));
#1020=CARTESIAN_POINT('',(-8.217206378,-7.535052339,16.345984888));
#1021=CARTESIAN_POINT('',(-7.82671154,-7.535052339,17.766681102));
#1022=CARTESIAN_POINT('',(-7.436216703,-7.535052339,19.187377316));
#1023=CARTESIAN_POINT('',(-6.974360171,-7.535052339,20.583513112));
#1024=CARTESIAN_POINT('',(-6.442127488,-7.535052339,21.947668225));
#1025=CARTESIAN_POINT('',(-5.909894805,-7.535052339,23.311823338));
#1026=CARTESIAN_POINT('',(-5.307280243,-7.535052339,24.643969142));
#1027=CARTESIAN_POINT('',(-4.636251408,-7.535052339,25.936487756));
#1028=CARTESIAN_POINT('',(-3.965222572,-7.535052339,27.229006369));
#1029=CARTESIAN_POINT('',(-3.225776619,-7.535052339,28.481882493));
#1030=CARTESIAN_POINT('',(-2.420913615,-7.535052339,29.687639556));
#1031=CARTESIAN_POINT('',(-1.616050611,-7.535052339,30.893396619));
#1032=CARTESIAN_POINT('',(-0.74577698,-7.535052339,32.051996297));
#1033=CARTESIAN_POINT('',(0.185687117,-7.535052339,33.156173865));
#1034=CARTESIAN_POINT('',(1.117151215,-7.535052339,34.260351434));
#1035=CARTESIAN_POINT('',(2.109800337,-7.535052339,35.310087243));
#1036=CARTESIAN_POINT('',(3.158267931,-7.535052339,36.298721496));
#1037=CARTESIAN_POINT('',(4.206735525,-7.535052339,37.287355749));
#1038=CARTESIAN_POINT('',(5.310993983,-7.535052339,38.214850489));
#1039=CARTESIAN_POINT('',(6.464549184,-7.535052339,39.07537095));
#1040=CARTESIAN_POINT('',(7.618104384,-7.535052339,39.935891411));
#1041=CARTESIAN_POINT('',(8.820938554,-7.535052339,40.72942283));
#1042=CARTESIAN_POINT('',(10.065680091,-7.535052339,41.451251677));
#1043=CARTESIAN_POINT('',(11.310421628,-7.535052339,42.173080524));
#1044=CARTESIAN_POINT('',(12.597026291,-7.535052339,42.823185986));
#1045=CARTESIAN_POINT('',(13.917528215,-7.535052339,43.398146475));
#1046=CARTESIAN_POINT('',(15.23803014,-7.535052339,43.973106964));
#1047=CARTESIAN_POINT('',(16.592407348,-7.535052339,44.472921289));
#1048=CARTESIAN_POINT('',(17.972390469,-7.535052339,44.895496658));
#1049=CARTESIAN_POINT('',(19.35237359,-7.535052339,45.318072027));
#1050=CARTESIAN_POINT('',(20.75791946,-7.535052339,45.663410518));
#1051=CARTESIAN_POINT('',(22.180844173,-7.535052339,45.930721182));
#1052=CARTESIAN_POINT('',(23.603768886,-7.535052339,46.198031846));
#1053=CARTESIAN_POINT('',(25.044057191,-7.535052339,46.38732328));
#1054=CARTESIAN_POINT('',(26.493719989,-7.535052339,46.498925241));
#1055=CARTESIAN_POINT('',(27.943382787,-7.535052339,46.610527203));
#1056=CARTESIAN_POINT('',(29.402390308,-7.535052339,46.644454598));
#1057=CARTESIAN_POINT('',(30.863264426,-7.535052339,46.601990041));
#1058=CARTESIAN_POINT('',(32.324138544,-7.535052339,46.559525485));
#1059=CARTESIAN_POINT('',(33.786871419,-7.535052339,46.440677825));
#1060=CARTESIAN_POINT('',(35.244364038,-7.535052339,46.24748135));
#1061=CARTESIAN_POINT('',(36.701856656,-7.535052339,46.054284874));
#1062=CARTESIAN_POINT('',(38.15409147,-7.535052339,45.786755769));
#1063=CARTESIAN_POINT('',(39.594563927,-7.535052339,45.447497926));
#1064=CARTESIAN_POINT('',(41.035036384,-7.535052339,45.108240083));
#1065=CARTESIAN_POINT('',(42.463739977,-7.535052339,44.697259006));
#1066=CARTESIAN_POINT('',(43.874506627,-7.535052339,44.217639307));
#1067=CARTESIAN_POINT('',(45.285273277,-7.535052339,43.738019607));
#1068=CARTESIAN_POINT('',(46.678091452,-7.535052339,43.189774631));
#1069=CARTESIAN_POINT('',(48.047295253,-7.535052339,42.576324265));
#1070=CARTESIAN_POINT('',(50.785702853,-7.535052339,41.349423533));
#1071=CARTESIAN_POINT('',(53.429232419,-7.535052339,39.861466153));
#1072=CARTESIAN_POINT('',(55.936077138,-7.535052339,38.143718666));
#1073=CARTESIAN_POINT('',(58.442921856,-7.535052339,36.425971178));
#1074=CARTESIAN_POINT('',(60.813118692,-7.535052339,34.478459612));
#1075=CARTESIAN_POINT('',(63.009474988,-7.535052339,32.33684162));
#1076=CARTESIAN_POINT('',(65.205831284,-7.535052339,30.195223627));
#1077=CARTESIAN_POINT('',(67.228339022,-7.535052339,27.85951622));
#1078=CARTESIAN_POINT('',(69.044227258,-7.535052339,25.369474806));
#1079=CARTESIAN_POINT('',(70.860115495,-7.535052339,22.879433392));
#1080=CARTESIAN_POINT('',(72.469355822,-7.535052339,20.235080493));
#1081=CARTESIAN_POINT('',(73.843893571,-7.535052339,17.479972116));
#1082=CARTESIAN_POINT('',(75.218431321,-7.535052339,14.724863739));
#1083=CARTESIAN_POINT('',(76.35823099,-7.535052339,11.859019462));
#1084=CARTESIAN_POINT('',(77.240437784,-7.535052339,8.929464849));
#1085=CARTESIAN_POINT('',(78.122644578,-7.535052339,5.999910236));
#1086=CARTESIAN_POINT('',(78.747207886,-7.535052339,3.006646123));
#1087=CARTESIAN_POINT('',(79.097099027,-7.535052339,-0.));
#1088=CARTESIAN_POINT('',(79.446990167,-7.535052339,-3.006646123));
#1089=CARTESIAN_POINT('',(79.522109688,-7.535052339,-6.026695281));
#1090=CARTESIAN_POINT('',(79.312336437,-7.535052339,-9.006355755));
#1091=CARTESIAN_POINT('',(79.207449811,-7.535052339,-10.496185992));
#1092=CARTESIAN_POINT('',(79.031460478,-7.535052339,-11.975829778));
#1093=CARTESIAN_POINT('',(78.783901778,-7.535052339,-13.438284406));
#1094=CARTESIAN_POINT('',(78.536343078,-7.535052339,-14.900739035));
#1095=CARTESIAN_POINT('',(78.217206378,-7.535052339,-16.345984888));
#1096=CARTESIAN_POINT('',(77.82671154,-7.535052339,-17.766681102));
#1097=CARTESIAN_POINT('',(77.436216703,-7.535052339,-19.187377316));
#1098=CARTESIAN_POINT('',(76.974360171,-7.535052339,-20.583513112));
#1099=CARTESIAN_POINT('',(76.442127488,-7.535052339,-21.947668225));
#1100=CARTESIAN_POINT('',(75.909894805,-7.535052339,-23.311823338));
#1101=CARTESIAN_POINT('',(75.307280243,-7.535052339,-24.643969142));
#1102=CARTESIAN_POINT('',(74.636251408,-7.535052339,-25.936487756));
#1103=CARTESIAN_POINT('',(73.965222572,-7.535052339,-27.229006369));
#1104=CARTESIAN_POINT('',(73.225776619,-7.535052339,-28.481882493));
#1105=CARTESIAN_POINT('',(72.420913615,-7.535052339,-29.687639556));
#1106=CARTESIAN_POINT('',(71.616050611,-7.535052339,-30.893396619));
#1107=CARTESIAN_POINT('',(70.74577698,-7.535052339,-32.051996297));
#1108=CARTESIAN_POINT('',(69.814312883,-7.535052339,-33.156173865));
#1109=CARTESIAN_POINT('',(68.882848785,-7.535052339,-34.260351434));
#1110=CARTESIAN_POINT('',(67.890199663,-7.535052339,-35.310087243));
#1111=CARTESIAN_POINT('',(66.841732069,-7.535052339,-36.298721496));
#1112=CARTESIAN_POINT('',(65.793264475,-7.535052339,-37.287355749));
#1113=CARTESIAN_POINT('',(64.689006017,-7.535052339,-38.214850489));
#1114=CARTESIAN_POINT('',(63.535450816,-7.535052339,-39.07537095));
#1115=CARTESIAN_POINT('',(62.381895616,-7.535052339,-39.935891411));
#1116=CARTESIAN_POINT('',(61.179061446,-7.535052339,-40.72942283));
#1117=CARTESIAN_POINT('',(59.934319909,-7.535052339,-41.451251677));
#1118=CARTESIAN_POINT('',(58.689578372,-7.535052339,-42.173080524));
#1119=CARTESIAN_POINT('',(57.402973709,-7.535052339,-42.823185986));
#1120=CARTESIAN_POINT('',(56.082471785,-7.535052339,-43.398146475));
#1121=CARTESIAN_POINT('',(54.76196986,-7.535052339,-43.973106964));
#1122=CARTESIAN_POINT('',(53.407592652,-7.535052339,-44.472921289));
#1123=CARTESIAN_POINT('',(52.027609531,-7.535052339,-44.895496658));
#1124=CARTESIAN_POINT('',(50.64762641,-7.535052339,-45.318072027));
#1125=CARTESIAN_POINT('',(49.24208054,-7.535052339,-45.663410518));
#1126=CARTESIAN_POINT('',(47.819155827,-7.535052339,-45.930721182));
#1127=CARTESIAN_POINT('',(46.396231114,-7.535052339,-46.198031846));
#1128=CARTESIAN_POINT('',(44.955942809,-7.535052339,-46.38732328));
#1129=CARTESIAN_POINT('',(43.506280011,-7.535052339,-46.498925241));
#1130=CARTESIAN_POINT('',(42.056617213,-7.535052339,-46.610527203));
#1131=CARTESIAN_POINT('',(40.597609692,-7.535052339,-46.644454598));
#1132=CARTESIAN_POINT('',(39.136735574,-7.535052339,-46.601990041));
#1133=CARTESIAN_POINT('',(37.675861456,-7.535052339,-46.559525485));
#1134=CARTESIAN_POINT('',(36.213128581,-7.535052339,-46.440677825));
#1135=CARTESIAN_POINT('',(34.755635962,-7.535052339,-46.24748135));
#1136=CARTESIAN_POINT('',(33.298143344,-7.535052339,-46.054284874));
#1137=CARTESIAN_POINT('',(31.84590853,-7.535052339,-45.786755769));
#1138=CARTESIAN_POINT('',(30.405436073,-7.535052339,-45.447497926));
#1139=CARTESIAN_POINT('',(28.964963616,-7.535052339,-45.108240083));
#1140=CARTESIAN_POINT('',(27.536260023,-7.535052339,-44.697259006));
#1141=CARTESIAN_POINT('',(26.125493373,-7.535052339,-44.217639307));
#1142=CARTESIAN_POINT('',(24.714726723,-7.535052339,-43.738019607));
#1143=CARTESIAN_POINT('',(23.321908548,-7.535052339,-43.189774631));
#1144=CARTESIAN_POINT('',(21.952704747,-7.535052339,-42.576324265));
#1145=CARTESIAN_POINT('',(19.214297147,-7.535052339,-41.349423533));
#1146=CARTESIAN_POINT('',(16.570767581,-7.535052339,-39.861466153));
#1147=CARTESIAN_POINT('',(14.063922862,-7.535052339,-38.143718666));
#1148=CARTESIAN_POINT('',(11.557078144,-7.535052339,-36.425971178));
#1149=CARTESIAN_POINT('',(9.186881308,-7.535052339,-34.478459612));
#1150=CARTESIAN_POINT('',(6.990525012,-7.535052339,-32.33684162));
#1151=CARTESIAN_POINT('',(4.794168716,-7.535052339,-30.195223627));
#1152=CARTESIAN_POINT('',(2.771660978,-7.535052339,-27.85951622));
#1153=CARTESIAN_POINT('',(0.955772742,-7.535052339,-25.369474806));
#1154=CARTESIAN_POINT('',(-0.860115495,-7.535052339,-22.879433392));
#1155=CARTESIAN_POINT('',(-2.469355822,-7.535052339,-20.235080493));
#1156=CARTESIAN_POINT('',(-3.843893571,-7.535052339,-17.479972116));
#1157=CARTESIAN_POINT('',(-5.218431321,-7.535052339,-14.724863739));
#1158=CARTESIAN_POINT('',(-6.35823099,-7.535052339,-11.859019462));
#1159=CARTESIAN_POINT('',(-7.240437784,-7.535052339,-8.929464849));
#1160=CARTESIAN_POINT('',(-8.122644578,-7.535052339,-5.999910236));
#1161=CARTESIAN_POINT('',(-8.747207885,-7.535052339,-3.006646134));
#1162=CARTESIAN_POINT('',(-9.097099027,-7.535052339,0.));
#1163=B_SPLINE_CURVE_WITH_KNOTS('',3,(#1012,#1013,#1014,#1015,#1016,#1017,#1018,#1019,#1020,#1021,#1022,#1023,#1024,#1025,#1026,#1027,#1028,#1029,#1030,#1031,#1032,#1033,#1034,#1035,#1036,#1037,
#1038,#1039,#1040,#1041,#1042,#1043,#1044,#1045,#1046,#1047,#1048,#1049,#1050,#1051,#1052,#1053,#1054,#1055,#1056,#1057,#1058,#1059,#1060,#1061,#1062,
#1063,#1064,#1065,#1066,#1067,#1068,#1069,#1070,#1071,#1072,#1073,#1074,#1075,#1076,#1077,#1078,#1079,#1080,#1081,#1082,#1083,#1084,#1085,#1086,#1087,
#1088,#1089,#1090,#1091,#1092,#1093,#1094,#1095,#1096,#1097,#1098,#1099,#1100,#1101,#1102,#1103,#1104,#1105,#1106,#1107,#1108,#1109,#1110,#1111,#1112,
#1113,#1114,#1115,#1116,#1117,#1118,#1119,#1120,#1121,#1122,#1123,#1124,#1125,#1126,#1127,#1128,#1129,#1130,#1131,#1132,#1133,#1134,#1135,#1136,#1137,
#1138,#1139,#1140,#1141,#1142,#1143,#1144,#1145,#1146,#1147,#1148,#1149,#1150,#1151,#1152,#1153,#1154,#1155,#1156,#1157,#1158,#1159,#1160,#1161,#1162),.UNSPECIFIED.,.T.,.F.,(4,3,3,3,3,3,3,3,3,3,3,3,3,3,3,3,3,3,3,3,3,3,3,3,3,3,
3,3,3,3,3,3,3,3,3,3,3,3,3,3,3,3,3,3,3,3,3,3,3,3,4),(0.,0.03125,0.046875,0.0625,0.078125,0.09375,0.109375,0.125,0.140625,0.15625,0.171875,0.1875,0.203125,0.21875,0.234375,0.25,0.265625,0.28125,0.296875,0.3125,0.34375,0.375,0.40625,0.4375,0.46875,0.5,
0.53125,0.546875,0.5625,0.578125,0.59375,0.609375,0.625,0.640625,0.65625,0.671875,0.6875,0.703125,0.71875,0.734375,0.75,0.765625,0.78125,0.796875,0.8125,0.84375,0.875,0.90625,0.9375,0.96875,1.),.UNSPECIFIED.);
#1164=EDGE_CURVE('',#743,#743,#1163,.T.);
#1165=ORIENTED_EDGE('',*,*,#1164,.T.);
#1166=ORIENTED_EDGE('',*,*,#1010,.F.);
#1167=ORIENTED_EDGE('',*,*,#1164,.F.);
#1168=EDGE_LOOP('',(#1011,#1165,#1166,#1167));
#1169=FACE_BOUND('',#1168,.T.);
#1170=ADVANCED_FACE('',(#1169),#741,.T.);
#1171=CLOSED_SHELL('',(#1170));
#1172=MANIFOLD_SOLID_BREP('Cuerpo 01',#1171);
#1173=COLOUR_RGB('',0.627451003,0.627451003,0.643137276);
#1174=FILL_AREA_STYLE_COLOUR('',#1173);
#1175=FILL_AREA_STYLE('',(#1174));
#1176=SURFACE_STYLE_FILL_AREA(#1175);
#1177=SURFACE_SIDE_STYLE('',(#1176));
#1178=SURFACE_STYLE_USAGE(.BOTH.,#1177);
#1179=PRESENTATION_STYLE_ASSIGNMENT((#1178));
#26=STYLED_ITEM('',(#1179),#1172);
#16=SHAPE_REPRESENTATION('root',(#15),#10);
#17=ADVANCED_BREP_SHAPE_REPRESENTATION('root',(#1172),#10);
#1187=SHAPE_REPRESENTATION_RELATIONSHIP('','',#16,#17);
#1188=CARTESIAN_POINT('',(0.,0.,0.));
#1189=DIRECTION('',(0.,0.,1.));
#1190=DIRECTION('',(1.,0.,0.));
#1191=AXIS2_PLACEMENT_3D('',#1188,#1189,#1190);
#1193=MAPPED_ITEM('',#1192,#1191);
#1192=REPRESENTATION_MAP(#1191,#16);
#1194=APPLICATION_CONTEXT('Managed model based 3d engineering');
#1195=APPLICATION_PROTOCOL_DEFINITION('international standard','ap242_managed_model_based_3d_engineering',2014,#1194);
#1196=PRODUCT_CONTEXT('',#1194,'mechanical');
#1197=PRODUCT_DEFINITION_CONTEXT('part definition',#1194,'design');
#24=PRODUCT('root','root','',(#1196));
#1198=PRODUCT_RELATED_PRODUCT_CATEGORY('part','',(#24));
#1199=PRODUCT_DEFINITION_FORMATION_WITH_SPECIFIED_SOURCE('','',#24,.NOT_KNOWN.);
#25=PRODUCT_DEFINITION('design','',#1199,#1197);
#23=PRODUCT_DEFINITION_SHAPE('','',#25);
#1200=SHAPE_DEFINITION_REPRESENTATION(#23,#16);
#11=DRAUGHTING_MODEL('',(#1193),#10);
#1201=DESCRIPTIVE_REPRESENTATION_ITEM('KEY','/Users/fevibon/Library/Containers/com.shapr3d.shapr/Data/tmp/698408E9-22CB-4D3C-B8A1-5294872A12FD.tmp');
#1202=PROPERTY_DEFINITION('KEY','',#25);
#1203=REPRESENTATION('',(#1201),#10);
#1204=PROPERTY_DEFINITION_REPRESENTATION(#1202,#1203);
#1205=GENERAL_PROPERTY('','KEY','');
#1206=GENERAL_PROPERTY_ASSOCIATION('','',#1205,#1202);
#1=MECHANICAL_DESIGN_GEOMETRIC_PRESENTATION_REPRESENTATION('',(#26),#10);
ENDSEC;
END-ISO-10303-21;
