ISO-10303-21;
HEADER;

/* File generated by Shapr3D Version 26.32.0.10532 */

FILE_DESCRIPTION(('HOOPS Exchange Step'),'2;1');

FILE_NAME('/private/var/mobile/Containers/Data/Application/14AF4A4F-3867-4C69-BE3A-5DB98616F2D0/tmp/export/temp_export',
'2026-03-19T12:35:30+01:00',
('mobile'),
('Shapr3D Limited'),
'HOOPS Exchange 2025.9',
'Shapr3D',
'Authorized');

FILE_SCHEMA( ('AP242_MANAGED_MODEL_BASED_3D_ENGINEERING_MIM_LF {1 0 10303 442 1 1 4}') );

ENDSEC;

DATA;
#3=(NAMED_UNIT(*)PLANE_ANGLE_UNIT()SI_UNIT($,.RADIAN.));
#4=PLANE_ANGLE_MEASURE_WITH_UNIT(PLANE_ANGLE_MEASURE(0.0174532925),#3);
#5=(CONVERSION_BASED_UNIT('DEGREE',#4)NAMED_UNIT(#6)PLANE_ANGLE_UNIT());
#6=DIMENSIONAL_EXPONENTS(0.,0.,0.,0.,0.,0.,0.);
#7=(NAMED_UNIT(*)SI_UNIT($,.STERADIAN.)SOLID_ANGLE_UNIT());
#8=(LENGTH_UNIT()NAMED_UNIT(*)SI_UNIT(.MILLI.,.METRE.));
#9=UNCERTAINTY_MEASURE_WITH_UNIT(LENGTH_MEASURE(1.000000E-05),#8,'DISTANCE_ACCURACY_VALUE','Maximum Tolerance applied to model');
#10=(GEOMETRIC_REPRESENTATION_CONTEXT(3)GLOBAL_UNCERTAINTY_ASSIGNED_CONTEXT((#9))GLOBAL_UNIT_ASSIGNED_CONTEXT((#8,#5,#7))REPRESENTATION_CONTEXT('','Cuerpo 02'));
#12=CARTESIAN_POINT('',(0.,0.,0.));
#13=DIRECTION('',(0.,0.,1.));
#14=DIRECTION('',(1.,0.,0.));
#15=AXIS2_PLACEMENT_3D('TS3D_PRODUCT_CSYS',#12,#13,#14);
#27=CARTESIAN_POINT('',(-0.933333333,3.566666667,-0.));
#28=CARTESIAN_POINT('',(-0.933333333,3.566666667,3.220314687));
#29=CARTESIAN_POINT('',(-2.1,3.566666667,-0.));
#30=CARTESIAN_POINT('',(-2.1,3.566666667,3.220314687));
#31=CARTESIAN_POINT('',(-4.1,2.9,-0.));
#32=CARTESIAN_POINT('',(-4.1,2.9,3.220314687));
#33=CARTESIAN_POINT('',(-4.1,-0.1,-0.));
#34=CARTESIAN_POINT('',(-4.1,-0.1,3.220314687));
#35=CARTESIAN_POINT('',(-4.1,-4.1,-0.));
#36=CARTESIAN_POINT('',(-4.1,-4.1,3.220314687));
#37=CARTESIAN_POINT('',(1.9,-4.1,-0.));
#38=CARTESIAN_POINT('',(1.9,-4.1,3.220314687));
#39=CARTESIAN_POINT('',(5.9,-0.1,-0.));
#40=CARTESIAN_POINT('',(5.9,-0.1,3.220314687));
#41=CARTESIAN_POINT('',(2.9,2.9,-0.));
#42=CARTESIAN_POINT('',(2.9,2.9,3.220314687));
#43=CARTESIAN_POINT('',(0.233333333,3.566666667,-0.));
#44=CARTESIAN_POINT('',(0.233333333,3.566666667,3.220314687));
#45=CARTESIAN_POINT('',(-0.933333333,3.566666667,-0.));
#46=CARTESIAN_POINT('',(-0.933333333,3.566666667,3.220314687));
#47=B_SPLINE_SURFACE_WITH_KNOTS('',4,1,((#27,#28),(#29,#30),(#31,#32),(#33,#34),(#35,#36),(#37,#38),(#39,#40),(#41,#42),(#43,#44),(#45,#46)),.UNSPECIFIED.,.T.,.F.,.U.,(5,1,1,1,1,1,5),(2,2),(0.,0.166666667,0.333333333,0.5,0.666666667,0.833333333,1.),(0.857142857,0.949151848),.UNSPECIFIED.);
#48=CARTESIAN_POINT('',(-0.933333333,3.566666667,3.115485883));
#49=VERTEX_POINT('',#48);
#50=CARTESIAN_POINT('',(-0.933333333,3.566666667,0.));
#51=VERTEX_POINT('',#50);
#52=CARTESIAN_POINT('',(-0.933333333,3.566666667,3.115485883));
#53=CARTESIAN_POINT('',(-0.933333333,3.566666667,-0.));
#54=B_SPLINE_CURVE_WITH_KNOTS('',1,(#52,#53),.UNSPECIFIED.,.F.,.F.,(2,2),(0.05384326,0.142857143),.UNSPECIFIED.);
#55=EDGE_CURVE('',#49,#51,#54,.T.);
#56=ORIENTED_EDGE('',*,*,#55,.T.);
#57=CARTESIAN_POINT('',(-0.933333333,3.566666667,0.));
#58=CARTESIAN_POINT('',(-1.196679374,3.56666667,0.));
#59=CARTESIAN_POINT('',(-1.456893448,3.547958259,0.));
#60=CARTESIAN_POINT('',(-1.713133874,3.505513763,0.));
#61=CARTESIAN_POINT('',(-1.841254088,3.484291515,0.));
#62=CARTESIAN_POINT('',(-1.968369209,3.45706548,0.));
#63=CARTESIAN_POINT('',(-2.094269227,3.422581174,0.));
#64=CARTESIAN_POINT('',(-2.220169245,3.388096868,0.));
#65=CARTESIAN_POINT('',(-2.345601263,3.346050762,0.));
#66=CARTESIAN_POINT('',(-2.467745048,3.295473101,0.));
#67=CARTESIAN_POINT('',(-2.589888833,3.24489544,0.));
#68=CARTESIAN_POINT('',(-2.707491618,3.186381357,0.));
#69=CARTESIAN_POINT('',(-2.819849279,3.118700237,0.));
#70=CARTESIAN_POINT('',(-2.93220694,3.051019117,0.));
#71=CARTESIAN_POINT('',(-3.040110111,2.973460447,0.));
#72=CARTESIAN_POINT('',(-3.139967611,2.886716468,0.));
#73=CARTESIAN_POINT('',(-3.239825111,2.799972489,0.));
#74=CARTESIAN_POINT('',(-3.330368058,2.705354348,0.));
#75=CARTESIAN_POINT('',(-3.411815603,2.603047307,0.));
#76=CARTESIAN_POINT('',(-3.493263148,2.500740266,0.));
#77=CARTESIAN_POINT('',(-3.566023391,2.38993015,0.));
#78=CARTESIAN_POINT('',(-3.629157731,2.273630613,0.));
#79=CARTESIAN_POINT('',(-3.75542641,2.041031539,0.));
#80=CARTESIAN_POINT('',(-3.840748911,1.793549574,0.));
#81=CARTESIAN_POINT('',(-3.90292747,1.537655377,0.));
#82=CARTESIAN_POINT('',(-3.934016749,1.409708278,0.));
#83=CARTESIAN_POINT('',(-3.959166147,1.279782785,0.));
#84=CARTESIAN_POINT('',(-3.979676594,1.150359915,0.));
#85=CARTESIAN_POINT('',(-4.000187041,1.020937045,0.));
#86=CARTESIAN_POINT('',(-4.016201196,0.891385321,0.));
#87=CARTESIAN_POINT('',(-4.028837239,0.761736788,0.));
#88=CARTESIAN_POINT('',(-4.054109325,0.502439722,0.));
#89=CARTESIAN_POINT('',(-4.066200391,0.242764918,0.));
#90=CARTESIAN_POINT('',(-4.068399858,-0.017193357,0.));
#91=CARTESIAN_POINT('',(-4.070599325,-0.277151633,0.));
#92=CARTESIAN_POINT('',(-4.062887892,-0.537393932,0.));
#93=CARTESIAN_POINT('',(-4.043029075,-0.797984348,0.));
#94=CARTESIAN_POINT('',(-4.023170259,-1.058574765,0.));
#95=CARTESIAN_POINT('',(-3.991091797,-1.320789683,0.));
#96=CARTESIAN_POINT('',(-3.938659761,-1.577495062,0.));
#97=CARTESIAN_POINT('',(-3.912443743,-1.705847752,0.));
#98=CARTESIAN_POINT('',(-3.881030923,-1.833014108,0.));
#99=CARTESIAN_POINT('',(-3.842340512,-1.958519125,0.));
#100=CARTESIAN_POINT('',(-3.803650101,-2.084024142,0.));
#101=CARTESIAN_POINT('',(-3.75735438,-2.208185591,0.));
#102=CARTESIAN_POINT('',(-3.702619912,-2.326913489,0.));
#103=CARTESIAN_POINT('',(-3.647885444,-2.445641386,0.));
#104=CARTESIAN_POINT('',(-3.584552951,-2.55962931,0.));
#105=CARTESIAN_POINT('',(-3.51106773,-2.668020175,0.));
#106=CARTESIAN_POINT('',(-3.437582509,-2.77641104,0.));
#107=CARTESIAN_POINT('',(-3.353123456,-2.879696395,0.));
#108=CARTESIAN_POINT('',(-3.261446716,-2.972689814,0.));
#109=CARTESIAN_POINT('',(-3.169769977,-3.065683233,0.));
#110=CARTESIAN_POINT('',(-3.070302576,-3.149554642,0.));
#111=CARTESIAN_POINT('',(-2.963570407,-3.224919805,0.));
#112=CARTESIAN_POINT('',(-2.856838239,-3.300284968,0.));
#113=CARTESIAN_POINT('',(-2.741934799,-3.367455019,0.));
#114=CARTESIAN_POINT('',(-2.62436744,-3.424923106,0.));
#115=CARTESIAN_POINT('',(-2.389232722,-3.539859279,0.));
#116=CARTESIAN_POINT('',(-2.140835033,-3.61928059,0.));
#117=CARTESIAN_POINT('',(-1.883144099,-3.673583937,0.));
#118=CARTESIAN_POINT('',(-1.625453164,-3.727887283,0.));
#119=CARTESIAN_POINT('',(-1.366704424,-3.75534265,0.));
#120=CARTESIAN_POINT('',(-1.107208862,-3.763843009,0.));
#121=CARTESIAN_POINT('',(-0.588217736,-3.780843728,0.));
#122=CARTESIAN_POINT('',(-0.061687483,-3.721365134,0.));
#123=CARTESIAN_POINT('',(0.443073933,-3.606343763,0.));
#124=CARTESIAN_POINT('',(0.695454641,-3.548833078,0.));
#125=CARTESIAN_POINT('',(0.943829355,-3.477049274,0.));
#126=CARTESIAN_POINT('',(1.188199161,-3.39099622,0.));
#127=CARTESIAN_POINT('',(1.432568967,-3.304943166,0.));
#128=CARTESIAN_POINT('',(1.673883379,-3.204166535,0.));
#129=CARTESIAN_POINT('',(1.908629625,-3.088561177,0.));
#130=CARTESIAN_POINT('',(2.143375871,-2.972955818,0.));
#131=CARTESIAN_POINT('',(2.369130586,-2.843875209,0.));
#132=CARTESIAN_POINT('',(2.584905098,-2.699837665,0.));
#133=CARTESIAN_POINT('',(2.800679609,-2.555800122,0.));
#134=CARTESIAN_POINT('',(3.006550817,-2.396920892,0.));
#135=CARTESIAN_POINT('',(3.199859305,-2.219214413,0.));
#136=CARTESIAN_POINT('',(3.393167793,-2.041507934,0.));
#137=CARTESIAN_POINT('',(3.569959547,-1.848505833,0.));
#138=CARTESIAN_POINT('',(3.72361304,-1.637805861,0.));
#139=CARTESIAN_POINT('',(3.877266534,-1.427105888,0.));
#140=CARTESIAN_POINT('',(4.008832062,-1.195467669,0.));
#141=CARTESIAN_POINT('',(4.102349673,-0.952267931,0.));
#142=CARTESIAN_POINT('',(4.149108478,-0.830668062,0.));
#143=CARTESIAN_POINT('',(4.186821033,-0.705632393,0.));
#144=CARTESIAN_POINT('',(4.214179145,-0.576664065,0.));
#145=CARTESIAN_POINT('',(4.241537256,-0.447695738,0.));
#146=CARTESIAN_POINT('',(4.257871627,-0.317245948,0.));
#147=CARTESIAN_POINT('',(4.262892952,-0.187418899,0.));
#148=CARTESIAN_POINT('',(4.267914277,-0.057591849,0.));
#149=CARTESIAN_POINT('',(4.261769354,0.072275123,0.));
#150=CARTESIAN_POINT('',(4.244362765,0.202182359,0.));
#151=CARTESIAN_POINT('',(4.226956176,0.332089595,0.));
#152=CARTESIAN_POINT('',(4.198063435,0.461766445,0.));
#153=CARTESIAN_POINT('',(4.159620438,0.586722629,0.));
#154=CARTESIAN_POINT('',(4.121177442,0.711678812,0.));
#155=CARTESIAN_POINT('',(4.073061459,0.833211315,0.));
#156=CARTESIAN_POINT('',(4.016243119,0.951663683,0.));
#157=CARTESIAN_POINT('',(3.959424779,1.070116051,0.));
#158=CARTESIAN_POINT('',(3.893995726,1.185002574,0.));
#159=CARTESIAN_POINT('',(3.822734914,1.294252125,0.));
#160=CARTESIAN_POINT('',(3.68021329,1.512751228,0.));
#161=CARTESIAN_POINT('',(3.513102898,1.712331616,0.));
#162=CARTESIAN_POINT('',(3.327185021,1.897441438,0.));
#163=CARTESIAN_POINT('',(3.141267145,2.08255126,0.));
#164=CARTESIAN_POINT('',(2.939799368,2.249572623,0.));
#165=CARTESIAN_POINT('',(2.728860934,2.400387084,0.));
#166=CARTESIAN_POINT('',(2.5179225,2.551201544,0.));
#167=CARTESIAN_POINT('',(2.296514146,2.686570211,0.));
#168=CARTESIAN_POINT('',(2.065893053,2.808347746,0.));
#169=CARTESIAN_POINT('',(1.835271959,2.930125281,0.));
#170=CARTESIAN_POINT('',(1.595456241,3.037964449,0.));
#171=CARTESIAN_POINT('',(1.353093664,3.130499562,0.));
#172=CARTESIAN_POINT('',(1.110731087,3.223034675,0.));
#173=CARTESIAN_POINT('',(0.864271721,3.301120826,0.));
#174=CARTESIAN_POINT('',(0.613810119,3.365091493,0.));
#175=CARTESIAN_POINT('',(0.363348517,3.42906216,0.));
#176=CARTESIAN_POINT('',(0.108892689,3.478945595,0.));
#177=CARTESIAN_POINT('',(-0.149938635,3.513397094,0.));
#178=CARTESIAN_POINT('',(-0.408769959,3.547848593,0.));
#179=CARTESIAN_POINT('',(-0.67107368,3.566666663,0.));
#180=CARTESIAN_POINT('',(-0.933333333,3.566666667,0.));
#181=B_SPLINE_CURVE_WITH_KNOTS('',3,(#57,#58,#59,#60,#61,#62,#63,#64,#65,#66,#67,#68,#69,#70,#71,#72,#73,#74,#75,#76,#77,#78,#79,#80,#81,#82,
#83,#84,#85,#86,#87,#88,#89,#90,#91,#92,#93,#94,#95,#96,#97,#98,#99,#100,#101,#102,#103,#104,#105,#106,#107,
#108,#109,#110,#111,#112,#113,#114,#115,#116,#117,#118,#119,#120,#121,#122,#123,#124,#125,#126,#127,#128,#129,#130,#131,#132,
#133,#134,#135,#136,#137,#138,#139,#140,#141,#142,#143,#144,#145,#146,#147,#148,#149,#150,#151,#152,#153,#154,#155,#156,#157,
#158,#159,#160,#161,#162,#163,#164,#165,#166,#167,#168,#169,#170,#171,#172,#173,#174,#175,#176,#177,#178,#179,#180),.UNSPECIFIED.,.T.,.F.,(4,3,3,3,3,3,3,3,3,3,3,3,3,3,3,3,3,3,3,3,3,3,3,3,3,3,
3,3,3,3,3,3,3,3,3,3,3,3,3,3,3,4),(0.,0.000779195,0.001168792,0.001558389,0.001947987,0.002337584,0.002727182,0.003116779,0.003895974,0.004285571,0.004675168,0.005454363,0.006233558,0.007012753,0.00740235,0.007791947,0.008181545,0.008571142,0.008960739,0.009350337,0.010129531,0.010908726,0.012467116,0.01324631,0.014025505,0.0148047,
0.015583895,0.016363089,0.017142284,0.017531881,0.017921479,0.018311076,0.018700674,0.019090271,0.019479868,0.020259063,0.021038258,0.021817452,0.022596647,0.023375842,0.024155037,0.024934231),.UNSPECIFIED.);
#182=EDGE_CURVE('',#51,#51,#181,.T.);
#183=ORIENTED_EDGE('',*,*,#182,.T.);
#184=ORIENTED_EDGE('',*,*,#55,.F.);
#185=CARTESIAN_POINT('',(-0.933333333,3.566666667,3.115485883));
#186=CARTESIAN_POINT('',(-1.195647162,3.56666667,3.088550358));
#187=CARTESIAN_POINT('',(-1.454350699,3.54811032,3.05758361));
#188=CARTESIAN_POINT('',(-1.708975905,3.506200322,3.025367018));
#189=CARTESIAN_POINT('',(-1.836288508,3.485245323,3.009258722));
#190=CARTESIAN_POINT('',(-1.96257252,3.458382228,2.992860207));
#191=CARTESIAN_POINT('',(-2.087685841,3.424377568,2.976707827));
#192=CARTESIAN_POINT('',(-2.212799162,3.390372907,2.960555448));
#193=CARTESIAN_POINT('',(-2.337359653,3.348986708,2.944573917));
#194=CARTESIAN_POINT('',(-2.459124297,3.299026487,2.929763647));
#195=CARTESIAN_POINT('',(-2.580888941,3.249066266,2.914953377));
#196=CARTESIAN_POINT('',(-2.698308025,3.191219803,2.901514405));
#197=CARTESIAN_POINT('',(-2.810720079,3.124172335,2.890292099));
#198=CARTESIAN_POINT('',(-2.923132133,3.057124867,2.879069793));
#199=CARTESIAN_POINT('',(-3.031403383,2.98010672,2.870027859));
#200=CARTESIAN_POINT('',(-3.131669548,2.893888282,2.86419816));
#201=CARTESIAN_POINT('',(-3.231935713,2.807669845,2.858368461));
#202=CARTESIAN_POINT('',(-3.323024987,2.713484528,2.855798298));
#203=CARTESIAN_POINT('',(-3.405084205,2.611459476,2.856488141));
#204=CARTESIAN_POINT('',(-3.487143422,2.509434424,2.857177985));
#205=CARTESIAN_POINT('',(-3.560705381,2.398500593,2.861203377));
#206=CARTESIAN_POINT('',(-3.624242082,2.28263992,2.867829736));
#207=CARTESIAN_POINT('',(-3.751315483,2.050918575,2.881082455));
#208=CARTESIAN_POINT('',(-3.83739264,1.804247061,2.904147286));
#209=CARTESIAN_POINT('',(-3.900237418,1.548660679,2.927175634));
#210=CARTESIAN_POINT('',(-3.963082196,1.293074297,2.950203982));
#211=CARTESIAN_POINT('',(-4.001883967,1.033696267,2.972350995));
#212=CARTESIAN_POINT('',(-4.027630366,0.774013681,2.988104894));
#213=CARTESIAN_POINT('',(-4.053376765,0.514331095,3.003858792));
#214=CARTESIAN_POINT('',(-4.065874747,0.253415124,3.01346245));
#215=CARTESIAN_POINT('',(-4.068323008,-0.008561263,3.015238703));
#216=CARTESIAN_POINT('',(-4.07077127,-0.270537651,3.017014956));
#217=CARTESIAN_POINT('',(-4.063043483,-0.534634431,3.010893108));
#218=CARTESIAN_POINT('',(-4.043157304,-0.796299402,2.99791708));
#219=CARTESIAN_POINT('',(-4.023271125,-1.057964373,2.984941052));
#220=CARTESIAN_POINT('',(-3.991561656,-1.317572952,2.965071831));
#221=CARTESIAN_POINT('',(-3.939322598,-1.574244075,2.942682569));
#222=CARTESIAN_POINT('',(-3.88708354,-1.830915198,2.920293308));
#223=CARTESIAN_POINT('',(-3.813569415,-2.085215627,2.895382656));
#224=CARTESIAN_POINT('',(-3.704413936,-2.323013567,2.878223839));
#225=CARTESIAN_POINT('',(-3.649836197,-2.441912537,2.86964443));
#226=CARTESIAN_POINT('',(-3.58542695,-2.558250556,2.86296179));
#227=CARTESIAN_POINT('',(-3.511543549,-2.667318053,2.859405106));
#228=CARTESIAN_POINT('',(-3.437660148,-2.776385551,2.855848423));
#229=CARTESIAN_POINT('',(-3.355122195,-2.877363025,2.855404181));
#230=CARTESIAN_POINT('',(-3.263888282,-2.970209145,2.858225653));
#231=CARTESIAN_POINT('',(-3.172654369,-3.063055266,2.861047124));
#232=CARTESIAN_POINT('',(-3.072239144,-3.148125375,2.867164767));
#233=CARTESIAN_POINT('',(-2.964284157,-3.224415612,2.876160445));
#234=CARTESIAN_POINT('',(-2.85632917,-3.300705849,2.885156123));
#235=CARTESIAN_POINT('',(-2.743227625,-3.366735237,2.896775283));
#236=CARTESIAN_POINT('',(-2.625793227,-3.424225631,2.910113307));
#237=CARTESIAN_POINT('',(-2.508358829,-3.481716026,2.923451331));
#238=CARTESIAN_POINT('',(-2.385797976,-3.530891523,2.938606425));
#239=CARTESIAN_POINT('',(-2.261623427,-3.572037079,2.954391408));
#240=CARTESIAN_POINT('',(-2.137448878,-3.613182636,2.970176392));
#241=CARTESIAN_POINT('',(-2.011858154,-3.646393337,2.986548095));
#242=CARTESIAN_POINT('',(-1.885055988,-3.673180534,3.002871734));
#243=CARTESIAN_POINT('',(-1.631451657,-3.726754926,3.035519014));
#244=CARTESIAN_POINT('',(-1.372383715,-3.754979846,3.067935507));
#245=CARTESIAN_POINT('',(-1.1106199,-3.763730111,3.096649251));
#246=CARTESIAN_POINT('',(-0.848856085,-3.772480377,3.125362994));
#247=CARTESIAN_POINT('',(-0.589223231,-3.761612241,3.14990321));
#248=CARTESIAN_POINT('',(-0.33118691,-3.734861722,3.16910845));
#249=CARTESIAN_POINT('',(-0.073150588,-3.708111203,3.188313691));
#250=CARTESIAN_POINT('',(0.183270247,-3.665345463,3.202224545));
#251=CARTESIAN_POINT('',(0.438222989,-3.607447272,3.210245407));
#252=CARTESIAN_POINT('',(0.693175731,-3.54954908,3.21826627));
#253=CARTESIAN_POINT('',(0.947309029,-3.476046766,3.220314687));
#254=CARTESIAN_POINT('',(1.193372349,-3.389172155,3.21635774));
#255=CARTESIAN_POINT('',(1.439435668,-3.302297544,3.212400792));
#256=CARTESIAN_POINT('',(1.679092761,-3.201773903,3.202531846));
#257=CARTESIAN_POINT('',(1.912041854,-3.086879483,3.187199676));
#258=CARTESIAN_POINT('',(2.37794004,-2.857090643,3.156535335));
#259=CARTESIAN_POINT('',(2.822215683,-2.567133804,3.102272049));
#260=CARTESIAN_POINT('',(3.203458143,-2.215902462,3.038042117));
#261=CARTESIAN_POINT('',(3.298768758,-2.128094627,3.021984634));
#262=CARTESIAN_POINT('',(3.390385024,-2.036189656,3.005351528));
#263=CARTESIAN_POINT('',(3.477763451,-1.939509112,2.988480138));
#264=CARTESIAN_POINT('',(3.565141878,-1.842828568,2.971608748));
#265=CARTESIAN_POINT('',(3.648494828,-1.740980341,2.95444634));
#266=CARTESIAN_POINT('',(3.725162457,-1.635679484,2.937872555));
#267=CARTESIAN_POINT('',(3.878497716,-1.425077771,2.904724984));
#268=CARTESIAN_POINT('',(4.007722388,-1.198338093,2.873393037));
#269=CARTESIAN_POINT('',(4.102329004,-0.952321681,2.849457223));
#270=CARTESIAN_POINT('',(4.149632312,-0.829313475,2.837489316));
#271=CARTESIAN_POINT('',(4.187206616,-0.703970847,2.827657546));
#272=CARTESIAN_POINT('',(4.214300483,-0.576091719,2.820495382));
#273=CARTESIAN_POINT('',(4.24139435,-0.448212592,2.813333218));
#274=CARTESIAN_POINT('',(4.258037473,-0.317002151,2.808837576));
#275=CARTESIAN_POINT('',(4.262995738,-0.184719678,2.807502211));
#276=CARTESIAN_POINT('',(4.267954002,-0.052437205,2.806166845));
#277=CARTESIAN_POINT('',(4.261270262,0.078417647,2.807982652));
#278=CARTESIAN_POINT('',(4.243585876,0.207925515,2.812710389));
#279=CARTESIAN_POINT('',(4.225901491,0.337433383,2.817438125));
#280=CARTESIAN_POINT('',(4.196973384,0.466332284,2.825137591));
#281=CARTESIAN_POINT('',(4.157903516,0.592280296,2.835241262));
#282=CARTESIAN_POINT('',(4.07976378,0.84417632,2.855448606));
#283=CARTESIAN_POINT('',(3.964579806,1.077126024,2.88435549));
#284=CARTESIAN_POINT('',(3.821481512,1.296172239,2.916608228));
#285=CARTESIAN_POINT('',(3.749932364,1.405695346,2.932734597));
#286=CARTESIAN_POINT('',(3.671612268,1.511025801,2.949631846));
#287=CARTESIAN_POINT('',(3.588910468,1.611025375,2.966450384));
#288=CARTESIAN_POINT('',(3.506208669,1.711024949,2.983268923));
#289=CARTESIAN_POINT('',(3.418714462,1.806318157,3.000100135));
#290=CARTESIAN_POINT('',(3.327045367,1.897580478,3.016547404));
#291=CARTESIAN_POINT('',(3.235376273,1.988842799,3.032994674));
#292=CARTESIAN_POINT('',(3.13952469,2.076066433,3.049059953));
#293=CARTESIAN_POINT('',(3.039860862,2.159668011,3.064438868));
#294=CARTESIAN_POINT('',(2.940197034,2.243269588,3.079817783));
#295=CARTESIAN_POINT('',(2.836279422,2.323540232,3.09456291));
#296=CARTESIAN_POINT('',(2.730087076,2.399510164,3.108209179));
#297=CARTESIAN_POINT('',(2.517702382,2.551450027,3.135501717));
#298=CARTESIAN_POINT('',(2.296248746,2.686648675,3.158437007));
#299=CARTESIAN_POINT('',(2.067039518,2.807742211,3.176122245));
#300=CARTESIAN_POINT('',(1.837830291,2.928835746,3.193807483));
#301=CARTESIAN_POINT('',(1.60083439,3.035762421,3.206259203));
#302=CARTESIAN_POINT('',(1.356383057,3.129242665,3.212852136));
#303=CARTESIAN_POINT('',(1.23415739,3.175982787,3.216148602));
#304=CARTESIAN_POINT('',(1.109641556,3.219454035,3.217978085));
#305=CARTESIAN_POINT('',(0.984722724,3.259040977,3.218285729));
#306=CARTESIAN_POINT('',(0.859803891,3.298627918,3.218593374));
#307=CARTESIAN_POINT('',(0.734303378,3.334427957,3.217394438));
#308=CARTESIAN_POINT('',(0.608232028,3.366513673,3.214723997));
#309=CARTESIAN_POINT('',(0.356089329,3.430685104,3.209383117));
#310=CARTESIAN_POINT('',(0.101684684,3.480117706,3.198138024));
#311=CARTESIAN_POINT('',(-0.155127837,3.514085627,3.181402447));
#312=CARTESIAN_POINT('',(-0.411940358,3.548053547,3.16466687));
#313=CARTESIAN_POINT('',(-0.671140177,3.566666663,3.142409016));
#314=CARTESIAN_POINT('',(-0.933333333,3.566666667,3.115485883));
#315=B_SPLINE_CURVE_WITH_KNOTS('',3,(#185,#186,#187,#188,#189,#190,#191,#192,#193,#194,#195,#196,#197,#198,#199,#200,#201,#202,#203,#204,#205,#206,#207,#208,#209,#210,
#211,#212,#213,#214,#215,#216,#217,#218,#219,#220,#221,#222,#223,#224,#225,#226,#227,#228,#229,#230,#231,#232,#233,#234,#235,
#236,#237,#238,#239,#240,#241,#242,#243,#244,#245,#246,#247,#248,#249,#250,#251,#252,#253,#254,#255,#256,#257,#258,#259,#260,
#261,#262,#263,#264,#265,#266,#267,#268,#269,#270,#271,#272,#273,#274,#275,#276,#277,#278,#279,#280,#281,#282,#283,#284,#285,
#286,#287,#288,#289,#290,#291,#292,#293,#294,#295,#296,#297,#298,#299,#300,#301,#302,#303,#304,#305,#306,#307,#308,#309,#310,
#311,#312,#313,#314),.UNSPECIFIED.,.T.,.F.,(4,3,3,3,3,3,3,3,3,3,3,3,3,3,3,3,3,3,3,3,3,3,3,3,3,3,
3,3,3,3,3,3,3,3,3,3,3,3,3,3,3,3,3,4),(0.,0.00078015,0.001170225,0.0015603,0.001950375,0.002340451,0.002730526,0.003120601,0.003900751,0.004680901,0.005461051,0.006241201,0.007021352,0.007801502,0.008191577,0.008581652,0.008971727,0.009361802,0.009751877,0.010141952,0.010922103,0.011702253,0.012482403,0.013262553,0.014042703,0.015603004,
0.015993079,0.016383154,0.017163304,0.017553379,0.017943454,0.018333529,0.018723604,0.019503755,0.01989383,0.020283905,0.02067398,0.021064055,0.021844205,0.022624355,0.02301443,0.023404506,0.024184656,0.024964806),.UNSPECIFIED.);
#316=EDGE_CURVE('',#49,#49,#315,.T.);
#317=ORIENTED_EDGE('',*,*,#316,.F.);
#318=EDGE_LOOP('',(#56,#183,#184,#317));
#319=FACE_BOUND('',#318,.T.);
#320=ADVANCED_FACE('',(#319),#47,.T.);
#321=CARTESIAN_POINT('',(-0.1,-0.1,-5.));
#322=DIRECTION('',(1.,0.,0.));
#323=DIRECTION('',(0.,-1.,0.));
#324=AXIS2_PLACEMENT_3D('',#321,#322,#323);
#325=SPHERICAL_SURFACE('',#324,8.94427191);
#326=ORIENTED_EDGE('',*,*,#316,.T.);
#327=EDGE_LOOP('',(#326));
#328=FACE_BOUND('',#327,.T.);
#329=ADVANCED_FACE('',(#328),#325,.T.);
#330=CARTESIAN_POINT('',(-18.1,-17.1,0.));
#331=DIRECTION('',(0.,0.,1.));
#332=DIRECTION('',(1.,0.,0.));
#333=AXIS2_PLACEMENT_3D('',#330,#331,#332);
#334=PLANE('',#333);
#335=ORIENTED_EDGE('',*,*,#182,.F.);
#336=EDGE_LOOP('',(#335));
#337=FACE_BOUND('',#336,.T.);
#338=ADVANCED_FACE('',(#337),#334,.F.);
#339=CLOSED_SHELL('',(#320,#329,#338));
#340=MANIFOLD_SOLID_BREP('Cuerpo 02',#339);
#341=COLOUR_RGB('',0.627451003,0.627451003,0.643137276);
#342=FILL_AREA_STYLE_COLOUR('',#341);
#343=FILL_AREA_STYLE('',(#342));
#344=SURFACE_STYLE_FILL_AREA(#343);
#345=SURFACE_SIDE_STYLE('',(#344));
#346=SURFACE_STYLE_USAGE(.BOTH.,#345);
#347=PRESENTATION_STYLE_ASSIGNMENT((#346));
#26=STYLED_ITEM('',(#347),#340);
#16=SHAPE_REPRESENTATION('Cuerpo 02',(#15),#10);
#17=ADVANCED_BREP_SHAPE_REPRESENTATION('Cuerpo 02',(#340),#10);
#355=SHAPE_REPRESENTATION_RELATIONSHIP('','',#16,#17);
#356=CARTESIAN_POINT('',(0.,0.,0.));
#357=DIRECTION('',(0.,0.,1.));
#358=DIRECTION('',(1.,0.,0.));
#359=AXIS2_PLACEMENT_3D('',#356,#357,#358);
#361=MAPPED_ITEM('',#360,#359);
#360=REPRESENTATION_MAP(#359,#16);
#362=APPLICATION_CONTEXT('Managed model based 3d engineering');
#363=APPLICATION_PROTOCOL_DEFINITION('international standard','ap242_managed_model_based_3d_engineering',2014,#362);
#364=PRODUCT_CONTEXT('',#362,'mechanical');
#365=PRODUCT_DEFINITION_CONTEXT('part definition',#362,'design');
#24=PRODUCT('Cuerpo 02','Cuerpo 02','',(#364));
#366=PRODUCT_RELATED_PRODUCT_CATEGORY('part','',(#24));
#367=PRODUCT_DEFINITION_FORMATION_WITH_SPECIFIED_SOURCE('','',#24,.NOT_KNOWN.);
#25=PRODUCT_DEFINITION('design','',#367,#365);
#23=PRODUCT_DEFINITION_SHAPE('','',#25);
#368=SHAPE_DEFINITION_REPRESENTATION(#23,#16);
#11=DRAUGHTING_MODEL('',(#361),#10);
#369=DESCRIPTIVE_REPRESENTATION_ITEM('KEY','/private/var/mobile/Containers/Data/Application/14AF4A4F-3867-4C69-BE3A-5DB98616F2D0/tmp/A11C7FA8-CA19-473C-B5F2-9072219F8B0A.tmp');
#370=PROPERTY_DEFINITION('KEY','',#25);
#371=REPRESENTATION('',(#369),#10);
#372=PROPERTY_DEFINITION_REPRESENTATION(#370,#371);
#373=GENERAL_PROPERTY('','KEY','');
#374=GENERAL_PROPERTY_ASSOCIATION('','',#373,#370);
#1=MECHANICAL_DESIGN_GEOMETRIC_PRESENTATION_REPRESENTATION('',(#26),#10);
ENDSEC;
END-ISO-10303-21;
